<?xml version="1.0" encoding="UTF-8" standalone="no" ?>
<!DOCTYPE svg PUBLIC "-//W3C//DTD SVG 1.1//EN" "http://www.w3.org/Graphics/SVG/1.1/DTD/svg11.dtd">
<svg xmlns="http://www.w3.org/2000/svg" xmlns:xlink="http://www.w3.org/1999/xlink" version="1.1" width="1080" height="1080" viewBox="0 0 1080 1080" xml:space="preserve">
<desc>Created with Fabric.js 5.2.4</desc>
<defs>
</defs>
<rect x="0" y="0" width="100%" height="100%" fill="transparent"></rect>
<g transform="matrix(1 0 0 1 540 540)" id="392ff017-a757-4802-bbef-088b962c4c19"  >
</g>
<g transform="matrix(1 0 0 1 540 540)" id="488f5bba-86e3-4d24-901a-e29671207ce2"  >
<rect style="stroke: none; stroke-width: 1; stroke-dasharray: none; stroke-linecap: butt; stroke-dashoffset: 0; stroke-linejoin: miter; stroke-miterlimit: 4; fill: rgb(255,255,255); fill-rule: nonzero; opacity: 1; visibility: hidden;" vector-effect="non-scaling-stroke"  x="-540" y="-540" rx="0" ry="0" width="1080" height="1080" />
</g>
<g transform="matrix(1 0 0 1 624.81 548.13)"  >
<path style="stroke: none; stroke-width: 1; stroke-dasharray: none; stroke-linecap: butt; stroke-dashoffset: 0; stroke-linejoin: miter; stroke-miterlimit: 4; fill: rgb(255,255,255); fill-rule: nonzero; opacity: 1;" vector-effect="non-scaling-stroke"  transform=" translate(-186.13, -12.99)" d="M 187.53 11.347 C 187.53 10.918 187.42 10.610999999999999 187.18 10.411 C 186.91 10.195 186.44 10.08 185.8 10.08 L 184.87 10.08 L 184.87 12.631 L 185.99 12.631 C 187.02 12.631 187.53 12.202 187.53 11.347 z M 188.98 16.668 L 187.70999999999998 16.668 L 186.89 14.873 C 186.48 13.972999999999999 186.04 13.523 185.55999999999997 13.523 L 184.86999999999998 13.523 L 184.86999999999998 16.668 L 183.81999999999996 16.668 L 183.81999999999996 9.183699999999998 L 185.91999999999996 9.183699999999998 C 186.85999999999996 9.183699999999998 187.55999999999995 9.386499999999998 188.04999999999995 9.809599999999998 C 188.45999999999995 10.172999999999998 188.65999999999997 10.639999999999997 188.65999999999997 11.220999999999998 C 188.65999999999997 11.735999999999999 188.48999999999998 12.168999999999999 188.15999999999997 12.528999999999998 C 187.82999999999996 12.892999999999999 187.35999999999996 13.138999999999998 186.75999999999996 13.264999999999999 L 186.75999999999996 13.297999999999998 C 187.17999999999995 13.395999999999999 187.58999999999997 13.854 187.99999999999997 14.679999999999998 L 188.97999999999996 16.671999999999997 L 188.97999999999996 16.667999999999996 z M 191.31 12.998999999999999 C 191.31 11.527 190.81 10.283999999999999 189.81 9.298199999999998 C 188.8 8.312799999999998 187.58 7.817999999999998 186.13 7.817999999999998 C 184.64 7.817999999999998 183.39 8.312799999999998 182.41 9.306699999999998 C 181.42 10.304999999999998 180.93 11.538999999999998 180.93 12.998999999999997 C 180.93 14.491999999999997 181.44 15.739999999999997 182.46 16.732999999999997 C 183.46 17.726999999999997 184.68 18.217999999999996 186.13 18.217999999999996 C 187.56 18.217999999999996 188.79 17.722999999999995 189.79999999999998 16.716999999999995 C 190.80999999999997 15.726999999999995 191.30999999999997 14.483999999999995 191.30999999999997 12.998999999999995 z M 192.02 12.966999999999999 C 192.02 14.62 191.45000000000002 16.006 190.31 17.122 C 189.17000000000002 18.247 187.77 18.807 186.1 18.807 C 184.41 18.807 183.01999999999998 18.255 181.9 17.171 C 180.79 16.070999999999998 180.24 14.689 180.24 13.012 C 180.24 11.372 180.8 9.994 181.93 8.8614 C 183.06 7.7326999999999995 184.47 7.1682999999999995 186.15 7.1682999999999995 C 187.8 7.1682999999999995 189.18 7.708099999999999 190.3 8.7836 C 191.45000000000002 9.8878 192.02 11.278 192.02 12.966999999999999 z" stroke-linecap="round" />
</g>
<g transform="matrix(1 0 0 1 453.65 556.19)"  >
<path style="stroke: none; stroke-width: 1; stroke-dasharray: none; stroke-linecap: butt; stroke-dashoffset: 0; stroke-linejoin: miter; stroke-miterlimit: 4; fill: rgb(255,255,255); fill-rule: nonzero; opacity: 1;" vector-effect="non-scaling-stroke"  transform=" translate(-16.3, -18.38)" d="M 32.065 33.836 L 28.438 33.836 L 28.438 13.076999999999998 C 28.438 11.437999999999999 28.546 9.441799999999997 28.738999999999997 7.086199999999998 L 28.656999999999996 7.086199999999998 C 28.316999999999997 8.464199999999998 28.005999999999997 9.462099999999998 27.732999999999997 10.079999999999998 L 17.189999999999998 33.836 L 15.422999999999998 33.836 L 4.858999999999998 10.251999999999999 C 4.561399999999998 9.592999999999998 4.2498999999999985 8.5336 3.934899999999998 7.086199999999999 L 3.856399999999998 7.086199999999999 C 3.9675999999999982 8.325199999999999 4.029799999999998 10.332999999999998 4.029799999999998 13.117999999999999 L 4.029799999999998 33.836 L 0.5329999999999981 33.836 L 0.5329799999999981 2.9229999999999983 L 5.317879999999999 2.922899999999998 L 14.801979999999999 24.4789 C 15.516979999999998 26.102899999999998 15.979979999999998 27.337899999999998 16.203979999999998 28.1799 L 16.354979999999998 28.1799 C 16.97198 26.4909 17.462979999999998 25.2239 17.834979999999998 24.3889 L 27.523979999999998 2.9228999999999985 L 32.062979999999996 2.9227999999999983 L 32.062979999999996 33.8358 L 32.06498 33.8358 z" stroke-linecap="round" />
</g>
<g transform="matrix(1 0 0 1 480.2 552.84)"  >
<path style="stroke: none; stroke-width: 1; stroke-dasharray: none; stroke-linecap: butt; stroke-dashoffset: 0; stroke-linejoin: miter; stroke-miterlimit: 4; fill: rgb(255,255,255); fill-rule: nonzero; opacity: 1;" vector-effect="non-scaling-stroke"  transform=" translate(-41.52, -17.7)" d="M 43.223 33.835 L 39.698 33.835 L 39.698 11.759 L 43.223 11.759 L 43.223 33.835 z M 43.833 3.846 C 43.833 4.4964 43.604 5.0401 43.15 5.4861 C 42.704 5.9317 42.152 6.1568000000000005 41.506 6.1568000000000005 C 40.876 6.1568000000000005 40.328 5.9408 39.878 5.510700000000001 C 39.428 5.077200000000001 39.207 4.524900000000001 39.207 3.846000000000001 C 39.207 3.208000000000001 39.43 2.664300000000001 39.878 2.222600000000001 C 40.328 1.7809000000000008 40.876 1.5683000000000007 41.506 1.5683000000000007 C 42.152 1.5683000000000007 42.704 1.7809000000000008 43.15 2.222600000000001 C 43.604 2.664300000000001 43.833 3.208000000000001 43.833 3.846000000000001 z" stroke-linecap="round" />
</g>
<g transform="matrix(1 0 0 1 495.69 557.93)"  >
<path style="stroke: none; stroke-width: 1; stroke-dasharray: none; stroke-linecap: butt; stroke-dashoffset: 0; stroke-linejoin: miter; stroke-miterlimit: 4; fill: rgb(255,255,255); fill-rule: nonzero; opacity: 1;" vector-effect="non-scaling-stroke"  transform=" translate(-57, -22.79)" d="M 65.254 32.814 C 63.56 33.853 61.540000000000006 34.368 59.205000000000005 34.368 C 56.040000000000006 34.368 53.492000000000004 33.317 51.545 31.219 C 49.656 29.182000000000002 48.703 26.553 48.703 23.330000000000002 C 48.703 19.715000000000003 49.738 16.787000000000003 51.823 14.562000000000001 C 53.897 12.333000000000002 56.686 11.221 60.195 11.221 C 62.113 11.221 63.814 11.597 65.303 12.341000000000001 L 65.303 15.969000000000001 C 63.654999999999994 14.811000000000002 61.913 14.239 60.043 14.239 C 57.794 14.239 55.966 15.024000000000001 54.547 16.591 C 53.07 18.194000000000003 52.321999999999996 20.337 52.321999999999996 23.011000000000003 C 52.321999999999996 25.580000000000002 53.004999999999995 27.612000000000002 54.36299999999999 29.113000000000003 C 55.724999999999994 30.606 57.53699999999999 31.354000000000003 59.82299999999999 31.354000000000003 C 61.75299999999999 31.354000000000003 63.559999999999995 30.720000000000002 65.25399999999999 29.457000000000004 L 65.25399999999999 32.81400000000001 z" stroke-linecap="round" />
</g>
<g transform="matrix(1 0 0 1 515.05 557.74)"  >
<path style="stroke: none; stroke-width: 1; stroke-dasharray: none; stroke-linecap: butt; stroke-dashoffset: 0; stroke-linejoin: miter; stroke-miterlimit: 4; fill: rgb(255,255,255); fill-rule: nonzero; opacity: 1;" vector-effect="non-scaling-stroke"  transform=" translate(-76.36, -22.6)" d="M 82.115 15.341 C 81.494 14.863 80.598 14.629 79.416 14.629 C 77.981 14.629 76.774 15.272 75.797 16.567999999999998 C 74.689 18.016 74.137 20.019999999999996 74.137 22.58 L 74.137 33.833999999999996 L 70.603 33.833999999999996 L 70.603 11.758999999999997 L 74.137 11.758999999999997 L 74.137 16.309999999999995 L 74.222 16.309999999999995 C 74.741 14.698999999999995 75.54299999999999 13.459999999999996 76.61399999999999 12.580999999999996 C 77.61599999999999 11.778999999999996 78.749 11.373999999999995 79.996 11.373999999999995 C 80.937 11.373999999999995 81.636 11.475999999999996 82.115 11.674999999999995 L 82.115 15.338999999999995 L 82.115 15.340999999999996 z" stroke-linecap="round" />
</g>
<g transform="matrix(1 0 0 1 533.25 557.93)"  >
<path style="stroke: none; stroke-width: 1; stroke-dasharray: none; stroke-linecap: butt; stroke-dashoffset: 0; stroke-linejoin: miter; stroke-miterlimit: 4; fill: rgb(255,255,255); fill-rule: nonzero; opacity: 1;" vector-effect="non-scaling-stroke"  transform=" translate(-94.57, -22.79)" d="M 101.81 22.837 C 101.81 20.012 101.17 17.852 99.895 16.372 C 98.65599999999999 14.949 96.926 14.237 94.697 14.237 C 92.501 14.237 90.738 14.957 89.421 16.396 C 88.027 17.934 87.331 20.106 87.331 22.924 C 87.331 25.564999999999998 87.994 27.639 89.331 29.119 C 90.66 30.608 92.452 31.352 94.697 31.352 C 97.02 31.352 98.799 30.596 100.02000000000001 29.091 C 101.21000000000001 27.618000000000002 101.81000000000002 25.537000000000003 101.81000000000002 22.837000000000003 M 105.43000000000002 22.713000000000005 C 105.43000000000002 26.230000000000004 104.44000000000003 29.056000000000004 102.46000000000002 31.175000000000004 C 100.47000000000003 33.301 97.79700000000003 34.365 94.43500000000002 34.365 C 91.12300000000002 34.365 88.48500000000001 33.301 86.55000000000001 31.175 C 84.65700000000001 29.126 83.70400000000001 26.418 83.70400000000001 23.053 C 83.70400000000001 19.212 84.77900000000001 16.252000000000002 86.93900000000001 14.15 C 88.935 12.199 91.605 11.217 94.95100000000001 11.217 C 98.24300000000001 11.217 100.82000000000001 12.244 102.67 14.276 C 104.5 16.320999999999998 105.43 19.134999999999998 105.43 22.713" stroke-linecap="round" />
</g>
<g transform="matrix(1 0 0 1 554.86 557.93)"  >
<path style="stroke: none; stroke-width: 1; stroke-dasharray: none; stroke-linecap: butt; stroke-dashoffset: 0; stroke-linejoin: miter; stroke-miterlimit: 4; fill: rgb(255,255,255); fill-rule: nonzero; opacity: 1;" vector-effect="non-scaling-stroke"  transform=" translate(-116.17, -22.79)" d="M 122.96 27.929 C 122.96 29.737 122.27999999999999 31.233999999999998 120.92999999999999 32.428 C 119.44999999999999 33.72 117.41999999999999 34.366 114.86999999999999 34.366 C 112.77999999999999 34.366 110.94999999999999 33.929 109.38999999999999 33.037 L 109.38999999999999 29.238 C 111.11999999999999 30.645 113.02999999999999 31.352 115.12999999999998 31.352 C 117.92999999999998 31.352 119.32999999999998 30.322 119.32999999999998 28.269 C 119.32999999999998 27.406 119.01999999999998 26.689999999999998 118.39999999999998 26.137999999999998 C 117.77999999999997 25.573999999999998 116.57999999999998 24.898999999999997 114.77999999999997 24.11 C 112.92999999999998 23.3 111.61999999999998 22.47 110.83999999999997 21.607 C 109.90999999999997 20.584 109.43999999999997 19.255 109.43999999999997 17.619 C 109.43999999999997 15.786999999999999 110.16999999999997 14.262 111.61999999999998 13.047 C 113.06999999999998 11.828000000000001 114.92999999999998 11.219000000000001 117.21999999999997 11.219000000000001 C 118.97999999999998 11.219000000000001 120.54999999999997 11.563 121.93999999999997 12.254000000000001 L 121.93999999999997 15.812000000000001 C 120.48999999999997 14.761000000000001 118.81999999999996 14.237000000000002 116.92999999999996 14.237000000000002 C 115.75999999999996 14.237000000000002 114.81999999999996 14.528000000000002 114.11999999999996 15.096000000000002 C 113.40999999999997 15.677000000000001 113.05999999999996 16.417 113.05999999999996 17.321 C 113.05999999999996 18.298000000000002 113.35999999999996 19.059 113.94999999999996 19.603 C 114.46999999999996 20.106 115.57999999999996 20.719 117.25999999999996 21.435000000000002 C 119.13999999999996 22.224000000000004 120.50999999999996 23.042 121.33999999999996 23.881000000000004 C 122.40999999999995 24.940000000000005 122.95999999999997 26.289000000000005 122.95999999999997 27.929000000000002" stroke-linecap="round" />
</g>
<g transform="matrix(1 0 0 1 576 557.93)"  >
<path style="stroke: none; stroke-width: 1; stroke-dasharray: none; stroke-linecap: butt; stroke-dashoffset: 0; stroke-linejoin: miter; stroke-miterlimit: 4; fill: rgb(255,255,255); fill-rule: nonzero; opacity: 1;" vector-effect="non-scaling-stroke"  transform=" translate(-137.32, -22.79)" d="M 144.55 22.837 C 144.55 20.012 143.91000000000003 17.852 142.63000000000002 16.372 C 141.40000000000003 14.949 139.66000000000003 14.237 137.44000000000003 14.237 C 135.24000000000004 14.237 133.48000000000002 14.957 132.15000000000003 16.396 C 130.76000000000005 17.934 130.07000000000002 20.106 130.07000000000002 22.924 C 130.07000000000002 25.564999999999998 130.74 27.639 132.06000000000003 29.119 C 133.41000000000003 30.608 135.20000000000002 31.352 137.44000000000003 31.352 C 139.77000000000004 31.352 141.54000000000002 30.596 142.76000000000002 29.091 C 143.95000000000002 27.618000000000002 144.55 25.537000000000003 144.55 22.837000000000003 M 148.18 22.713000000000005 C 148.18 26.230000000000004 147.18 29.056000000000004 145.20000000000002 31.175000000000004 C 143.22000000000003 33.301 140.54000000000002 34.365 137.18 34.365 C 133.86 34.365 131.23000000000002 33.301 129.29000000000002 31.175 C 127.40000000000002 29.126 126.45000000000002 26.418 126.45000000000002 23.053 C 126.45000000000002 19.212 127.53000000000002 16.252000000000002 129.68 14.15 C 131.67000000000002 12.199 134.35 11.217 137.70000000000002 11.217 C 140.99 11.217 143.56000000000003 12.244 145.41000000000003 14.276 C 147.25000000000003 16.320999999999998 148.18000000000004 19.134999999999998 148.18000000000004 22.713" stroke-linecap="round" />
</g>
<g transform="matrix(1 0 0 1 595.76 552.4)"  >
<path style="stroke: none; stroke-width: 1; stroke-dasharray: none; stroke-linecap: butt; stroke-dashoffset: 0; stroke-linejoin: miter; stroke-miterlimit: 4; fill: rgb(255,255,255); fill-rule: nonzero; opacity: 1;" vector-effect="non-scaling-stroke"  transform=" translate(-157.08, -17.26)" d="M 163.75 4.2584 C 163.06 3.874 162.28 3.6776999999999997 161.4 3.6776999999999997 C 158.93 3.6776999999999997 157.70000000000002 5.2357 157.70000000000002 8.356300000000001 L 157.70000000000002 11.759 L 162.88000000000002 11.759 L 162.88000000000002 14.752 L 157.70000000000002 14.752 L 157.70000000000002 33.835 L 154.17000000000002 33.835 L 154.17000000000002 14.752000000000002 L 150.41000000000003 14.752000000000002 L 150.41000000000003 11.759000000000002 L 154.17000000000002 11.759000000000002 L 154.17000000000002 8.180600000000002 C 154.17000000000002 5.751000000000001 154.91000000000003 3.8453000000000017 156.42000000000002 2.4711000000000016 C 157.72000000000003 1.2769000000000017 159.31 0.6841000000000017 161.19000000000003 0.6841000000000017 C 162.28000000000003 0.6840700000000017 163.13000000000002 0.8149900000000017 163.75000000000003 1.0686000000000018 L 163.75000000000003 4.258400000000002 z" stroke-linecap="round" />
</g>
<g transform="matrix(1 0 0 1 609.93 554.92)"  >
<path style="stroke: none; stroke-width: 1; stroke-dasharray: none; stroke-linecap: butt; stroke-dashoffset: 0; stroke-linejoin: miter; stroke-miterlimit: 4; fill: rgb(255,255,255); fill-rule: nonzero; opacity: 1;" vector-effect="non-scaling-stroke"  transform=" translate(-171.25, -19.78)" d="M 177.7 33.613 C 176.85999999999999 34.092 175.75 34.329 174.38 34.329 C 170.53 34.329 168.6 32.157000000000004 168.6 27.814 L 168.6 14.756 L 164.81 14.756 L 164.81 11.758 L 168.6 11.758 L 168.6 6.371999999999999 C 169.73 6.015999999999999 170.9 5.627599999999999 172.14 5.226899999999999 L 172.14 11.758 L 177.7 11.758 L 177.7 14.756 L 172.14 14.756 L 172.14 27.213 C 172.14 28.693 172.38 29.752000000000002 172.89 30.366 C 173.39999999999998 31 174.23 31.311 175.41 31.311 C 176.29 31.311 177.04999999999998 31.075 177.7 30.599 L 177.7 33.613 z" stroke-linecap="round" />
</g>
<g transform="matrix(1 0 0 1 420.4 655.14)"  >
<path style="stroke: none; stroke-width: 1; stroke-dasharray: none; stroke-linecap: butt; stroke-dashoffset: 0; stroke-linejoin: miter; stroke-miterlimit: 4; fill: rgb(255,255,255); fill-rule: nonzero; opacity: 1;" vector-effect="non-scaling-stroke"  transform=" translate(-7.11, -76.25)" d="M 13.414 76.248 C 13.414 77.977 12.797 79.474 11.549999999999999 80.738 C 10.306 81.998 8.796999999999999 82.632 7.026399999999999 82.632 C 5.296299999999999 82.632 3.823999999999999 81.998 2.6176999999999992 80.738 C 1.4110999999999994 79.474 0.8100999999999992 77.977 0.8100999999999992 76.248 C 0.8101299999999991 74.46900000000001 1.4110999999999991 72.968 2.6176999999999992 71.72500000000001 C 3.823999999999999 70.477 5.296299999999999 69.86000000000001 7.026399999999999 69.86000000000001 C 8.796999999999999 69.86000000000001 10.306 70.48600000000002 11.549999999999999 71.74900000000001 C 12.796999999999999 73.013 13.414 74.51400000000001 13.414 76.248" stroke-linecap="round" />
</g>
<g transform="matrix(1 0 0 1 471.83 619.7)"  >
<path style="stroke: none; stroke-width: 1; stroke-dasharray: none; stroke-linecap: butt; stroke-dashoffset: 0; stroke-linejoin: miter; stroke-miterlimit: 4; fill: rgb(255,255,255); fill-rule: nonzero; opacity: 1;" vector-effect="non-scaling-stroke"  transform=" translate(-59.89, -40.81)" d="M 92.531 81.332 L 81.007 81.332 L 39.17400000000001 16.727999999999994 C 38.196000000000005 15.173999999999994 37.354000000000006 13.484999999999994 36.638000000000005 11.639999999999993 L 36.294000000000004 11.639999999999993 C 36.592000000000006 13.369999999999994 36.745000000000005 17.08299999999999 36.745000000000005 22.77199999999999 L 36.745000000000005 81.332 L 27.244000000000007 81.332 L 27.244000000000007 0.27899999999999636 L 39.575 0.27924999999999633 L 80.156 63.865249999999996 C 81.772 66.38825 82.875 68.19624999999999 83.436 69.28425 L 83.662 69.28425 C 83.28500000000001 66.95225 83.08900000000001 62.97725 83.08900000000001 57.36625 L 83.08900000000001 0.27924999999999756 L 92.53200000000001 0.27949999999999753 L 92.53200000000001 81.3325 L 92.531 81.3325 z" stroke-linecap="round" />
</g>
<g transform="matrix(1 0 0 1 543.91 619.7)"  >
<path style="stroke: none; stroke-width: 1; stroke-dasharray: none; stroke-linecap: butt; stroke-dashoffset: 0; stroke-linejoin: miter; stroke-miterlimit: 4; fill: rgb(255,255,255); fill-rule: nonzero; opacity: 1;" vector-effect="non-scaling-stroke"  transform=" translate(-131.96, -40.81)" d="M 153.44 81.332 L 110.47999999999999 81.332 L 110.47999999999999 0.27899999999999636 L 151.57 0.27924999999999633 L 151.57 8.867449999999996 L 119.97 8.867549999999996 L 119.97 35.82955 L 149.25 35.82955 L 149.25 44.42255 L 119.97 44.42255 L 119.97 72.73855 L 153.44 72.73855 L 153.44 81.33155000000001 z" stroke-linecap="round" />
</g>
<g transform="matrix(1 0 0 1 602.42 619.7)"  >
<path style="stroke: none; stroke-width: 1; stroke-dasharray: none; stroke-linecap: butt; stroke-dashoffset: 0; stroke-linejoin: miter; stroke-miterlimit: 4; fill: rgb(255,255,255); fill-rule: nonzero; opacity: 1;" vector-effect="non-scaling-stroke"  transform=" translate(-190.48, -40.81)" d="M 218.59 8.8685 L 195.25 8.8685 L 195.25 81.3325 L 185.75 81.3335 L 185.75 8.869500000000002 L 162.36 8.869000000000002 L 162.36 0.2768000000000015 L 218.59 0.27683000000000146 L 218.59 8.869030000000002 z" stroke-linecap="round" />
</g>
<g transform="matrix(1 0 0 1 524.07 476.52)"  >
<linearGradient id="SVGID_60" gradientUnits="objectBoundingBox" gradientTransform="matrix(1 0 0 1 0 0)"  x1="0.49997" y1="-0.19516" x2="0.49997" y2="1.2963">
<stop offset="0%" style="stop-color:rgb(9,148,220);stop-opacity: 1"/>
<stop offset="35.001%" style="stop-color:rgb(102,206,245);stop-opacity: 1"/>
<stop offset="84.616%" style="stop-color:rgb(18,123,202);stop-opacity: 1"/>
<stop offset="100%" style="stop-color:rgb(18,123,202);stop-opacity: 1"/>
</linearGradient>
<path style="stroke: none; stroke-width: 1; stroke-dasharray: none; stroke-linecap: butt; stroke-dashoffset: 0; stroke-linejoin: miter; stroke-miterlimit: 4; fill: url(#SVGID_60); fill-rule: nonzero; opacity: 1;" vector-effect="non-scaling-stroke"  transform=" translate(-111.3, -58.04)" d="M 88.499 20.689 C 97.66399999999999 48.715 101.14 98.71100000000001 127.94 98.71100000000001 C 129.98 98.71100000000001 132.04 98.51100000000001 134.10999999999999 98.11700000000002 C 109.74999999999999 92.43700000000001 106.85999999999999 42.98500000000002 91.99199999999999 17.37600000000002 C 90.826 18.43500000000002 89.669 19.53900000000002 88.499 20.689000000000018" stroke-linecap="round" />
</g>
<g transform="matrix(1 0 0 1 528.68 474.89)"  >
<linearGradient id="SVGID_61" gradientUnits="objectBoundingBox" gradientTransform="matrix(1 0 0 1 0 0)"  x1="0.50001" y1="-0.19516" x2="0.50001" y2="1.2962">
<stop offset="0%" style="stop-color:rgb(14,118,188);stop-opacity: 1"/>
<stop offset="36%" style="stop-color:rgb(54,174,232);stop-opacity: 1"/>
<stop offset="84.616%" style="stop-color:rgb(0,173,239);stop-opacity: 1"/>
<stop offset="100%" style="stop-color:rgb(0,173,239);stop-opacity: 1"/>
</linearGradient>
<path style="stroke: none; stroke-width: 1; stroke-dasharray: none; stroke-linecap: butt; stroke-dashoffset: 0; stroke-linejoin: miter; stroke-miterlimit: 4; fill: url(#SVGID_61); fill-rule: nonzero; opacity: 1;" vector-effect="non-scaling-stroke"  transform=" translate(-115.93, -56.41)" d="M 91.992 17.376 C 106.86 42.985 109.75 92.43700000000001 134.11 98.117 C 136.02 97.766 137.94000000000003 97.23400000000001 139.86 96.563 C 117.99000000000001 85.849 111.95000000000002 37.828 95.06700000000001 14.709000000000003 C 94.045 15.560000000000002 93.019 16.452 91.992 17.376000000000005" stroke-linecap="round" />
</g>
<g transform="matrix(1 0 0 1 517.23 426.9)"  >
<path style="stroke: none; stroke-width: 1; stroke-dasharray: none; stroke-linecap: butt; stroke-dashoffset: 0; stroke-linejoin: miter; stroke-miterlimit: 4; fill: rgb(20,85,154); fill-rule: nonzero; opacity: 1;" vector-effect="non-scaling-stroke"  transform=" translate(-104.48, -8.43)" d="M 113.41 2.1455 C 111.36999999999999 2.1455 109.31 2.345 107.24 2.7386 C 101.81 3.761 96.304 6.096 90.75099999999999 9.6295 C 92.26799999999999 11.126 93.71099999999998 12.84 95.06899999999999 14.709 C 100.71999999999998 10.021999999999998 106.32999999999998 6.558299999999999 111.91999999999999 4.477 C 114.01999999999998 3.6995000000000005 116.10999999999999 3.1149000000000004 118.19999999999999 2.7305 C 116.68999999999998 2.3456 115.1 2.1455 113.40999999999998 2.1455" stroke-linecap="round" />
</g>
<g transform="matrix(1 0 0 1 553.69 462.92)"  >
<linearGradient id="SVGID_62" gradientUnits="objectBoundingBox" gradientTransform="matrix(1 0 0 1 0 0)"  x1="0.49999000000000005" y1="1.1092" x2="0.49999000000000005" y2="-0.06214000000000001">
<stop offset="0%" style="stop-color:rgb(28,99,183);stop-opacity: 1"/>
<stop offset="50%" style="stop-color:rgb(51,189,242);stop-opacity: 1"/>
<stop offset="100%" style="stop-color:rgb(51,189,242);stop-opacity: 0.41961"/>
</linearGradient>
<path style="stroke: none; stroke-width: 1; stroke-dasharray: none; stroke-linecap: butt; stroke-dashoffset: 0; stroke-linejoin: miter; stroke-miterlimit: 4; fill: url(#SVGID_62); fill-rule: nonzero; opacity: 1;" vector-effect="non-scaling-stroke"  transform=" translate(-140.93, -44.44)" d="M 156.93 86.687 C 159.17000000000002 84.908 161.41 82.941 163.65 80.794 C 154.34 52.897999999999996 151.01 2.1869999999999976 124.02000000000001 2.1869999999999976 C 122.09 2.1866999999999974 120.15 2.366599999999998 118.20000000000002 2.7264999999999975 C 142.79000000000002 8.840699999999998 145.93 62.32449999999999 156.93 86.6865" stroke-linecap="round" />
</g>
<g transform="matrix(1 0 0 1 531.47 420.91)"  >
<path style="stroke: none; stroke-width: 1; stroke-dasharray: none; stroke-linecap: butt; stroke-dashoffset: 0; stroke-linejoin: miter; stroke-miterlimit: 4; fill: rgb(48,146,196); fill-rule: nonzero; opacity: 1;" vector-effect="non-scaling-stroke"  transform=" translate(-118.72, -2.44)" d="M 118.2 2.7284 C 116.69 2.3440000000000003 115.10000000000001 2.1438 113.41 2.1438 L 124.02 2.1827 C 122.08999999999999 2.1827 120.14999999999999 2.3627000000000002 118.19999999999999 2.7268" stroke-linecap="round" />
</g>
<g transform="matrix(1 0 0 1 563.51 512.49)"  >
<path style="stroke: none; stroke-width: 1; stroke-dasharray: none; stroke-linecap: butt; stroke-dashoffset: 0; stroke-linejoin: miter; stroke-miterlimit: 4; fill: rgb(25,105,188); fill-rule: nonzero; opacity: 1;" vector-effect="non-scaling-stroke"  transform=" translate(-150.76, -94.02)" d="M 156.46 92.613 C 155.4 91.607 154.4 90.503 153.42000000000002 89.325 C 148.88000000000002 92.539 144.35000000000002 94.977 139.86 96.563 C 141.46 97.345 143.14000000000001 97.925 144.92000000000002 98.285 C 146.29000000000002 98.567 147.72000000000003 98.711 149.22000000000003 98.711 C 154.26000000000002 98.711 158.25000000000003 98.114 161.65000000000003 96.486 C 159.78000000000003 95.476 158.06000000000003 94.167 156.46000000000004 92.613" stroke-linecap="round" />
</g>
<g transform="matrix(1 0 0 1 547.18 464.51)"  >
<linearGradient id="SVGID_63" gradientUnits="objectBoundingBox" gradientTransform="matrix(1 0 0 1 0 0)"  x1="0.50001" y1="-0.19515000000000002" x2="0.50001" y2="1.2963">
<stop offset="0%" style="stop-color:rgb(22,106,184);stop-opacity: 1"/>
<stop offset="39.999%" style="stop-color:rgb(54,174,232);stop-opacity: 1"/>
<stop offset="84.616%" style="stop-color:rgb(7,152,221);stop-opacity: 1"/>
<stop offset="100%" style="stop-color:rgb(7,152,221);stop-opacity: 1"/>
</linearGradient>
<path style="stroke: none; stroke-width: 1; stroke-dasharray: none; stroke-linecap: butt; stroke-dashoffset: 0; stroke-linejoin: miter; stroke-miterlimit: 4; fill: url(#SVGID_63); fill-rule: nonzero; opacity: 1;" vector-effect="non-scaling-stroke"  transform=" translate(-134.43, -46.03)" d="M 111.92 4.4811 C 133.94 15.9971 135.85 68.1491 153.42000000000002 89.32509999999999 C 154.60000000000002 88.4951 155.76000000000002 87.6151 156.93 86.68709999999999 C 145.93 62.32509999999999 142.79000000000002 8.836099999999988 118.21000000000001 2.727099999999993 L 118.21000000000001 2.726599999999993 C 116.11000000000001 3.1191999999999926 114.01 3.700299999999993 111.92 4.481199999999992" stroke-linecap="round" />
</g>
<g transform="matrix(1 0 0 1 537.01 469)"  >
<linearGradient id="SVGID_64" gradientUnits="objectBoundingBox" gradientTransform="matrix(1 0 0 1 0 0)"  x1="0.49999000000000005" y1="-0.19521000000000002" x2="0.49999000000000005" y2="1.2963">
<stop offset="0%" style="stop-color:rgb(18,67,121);stop-opacity: 1"/>
<stop offset="39%" style="stop-color:rgb(20,135,203);stop-opacity: 1"/>
<stop offset="78.023%" style="stop-color:rgb(22,81,151);stop-opacity: 1"/>
<stop offset="100%" style="stop-color:rgb(22,81,151);stop-opacity: 1"/>
</linearGradient>
<path style="stroke: none; stroke-width: 1; stroke-dasharray: none; stroke-linecap: butt; stroke-dashoffset: 0; stroke-linejoin: miter; stroke-miterlimit: 4; fill: url(#SVGID_64); fill-rule: nonzero; opacity: 1;" vector-effect="non-scaling-stroke"  transform=" translate(-124.24, -50.52)" d="M 95.067 14.709 C 111.94999999999999 37.828 117.99 85.849 139.85999999999999 96.563 C 144.35999999999999 94.977 148.88 92.539 153.42 89.325 C 135.85 68.149 133.94 15.997 111.91999999999999 4.481000000000009 L 111.91999999999999 4.4811000000000085 C 106.32999999999998 6.558600000000009 100.71999999999998 10.02200000000001 95.06699999999998 14.709100000000008" stroke-linecap="round" />
</g>
<g transform="matrix(1 0 0 1 491.55 447.14)"  >
<linearGradient id="SVGID_65" gradientUnits="objectBoundingBox" gradientTransform="matrix(1 0 0 1 0 0)"  x1="0.0000030465" y1="0.50001" x2="1" y2="0.50001">
<stop offset="0%" style="stop-color:rgb(51,189,242);stop-opacity: 0.69804"/>
<stop offset="100%" style="stop-color:rgb(29,172,216);stop-opacity: 1"/>
</linearGradient>
<path style="stroke: none; stroke-width: 1; stroke-dasharray: none; stroke-linecap: butt; stroke-dashoffset: 0; stroke-linejoin: miter; stroke-miterlimit: 4; fill: url(#SVGID_65); fill-rule: nonzero; opacity: 1;" vector-effect="non-scaling-stroke"  transform=" translate(-78.79, -28.66)" d="M 77.698 20.014 C 75.05199999999999 25.997 72.34899999999999 33.861 69.08099999999999 44.126 C 75.57999999999998 34.968999999999994 82.05799999999999 27.08 88.499 20.688999999999997 C 87.612 17.960999999999995 86.65899999999999 15.445999999999996 85.63199999999999 13.203999999999997 C 82.99799999999999 15.219999999999997 80.344 17.489999999999995 77.698 20.013999999999996" stroke-linecap="round" />
</g>
<g transform="matrix(1 0 0 1 501.58 434.56)"  >
<path style="stroke: none; stroke-width: 1; stroke-dasharray: none; stroke-linecap: butt; stroke-dashoffset: 0; stroke-linejoin: miter; stroke-miterlimit: 4; fill: rgb(43,116,177); fill-rule: nonzero; opacity: 1;" vector-effect="non-scaling-stroke"  transform=" translate(-88.81, -16.08)" d="M 87.979 11.479 C 87.202 12.035 86.42099999999999 12.604 85.635 13.204999999999998 C 86.662 15.445999999999998 87.61 17.961 88.498 20.689 C 89.667 19.544 90.82900000000001 18.436 91.99000000000001 17.376 C 90.74300000000001 15.233 89.418 13.254000000000001 87.97900000000001 11.479000000000001" stroke-linecap="round" />
</g>
<g transform="matrix(1 0 0 1 504.29 431.98)"  >
<path style="stroke: none; stroke-width: 1; stroke-dasharray: none; stroke-linecap: butt; stroke-dashoffset: 0; stroke-linejoin: miter; stroke-miterlimit: 4; fill: rgb(18,90,158); fill-rule: nonzero; opacity: 1;" vector-effect="non-scaling-stroke"  transform=" translate(-91.52, -13.5)" d="M 90.751 9.6295 C 89.82600000000001 10.214 88.906 10.832 87.97800000000001 11.478 C 89.417 13.253 90.742 15.232 91.99400000000001 17.378999999999998 C 93.02100000000002 16.450999999999997 94.04700000000001 15.554999999999998 95.06900000000002 14.708999999999998 C 93.71200000000002 12.839999999999998 92.26800000000001 11.125999999999998 90.75100000000002 9.629499999999997" stroke-linecap="round" />
</g>
<g transform="matrix(1 0 0 1 627.67 467.82)"  >
<linearGradient id="SVGID_66" gradientUnits="objectBoundingBox" gradientTransform="matrix(1 0 0 1 0 0)"  x1="0.5001" y1="0.94686" x2="0.5001" y2="-0.030246">
<stop offset="0%" style="stop-color:rgb(19,106,180);stop-opacity: 1"/>
<stop offset="60%" style="stop-color:rgb(89,202,245);stop-opacity: 0.54902"/>
<stop offset="100%" style="stop-color:rgb(89,202,245);stop-opacity: 0.23529"/>
</linearGradient>
<path style="stroke: none; stroke-width: 1; stroke-dasharray: none; stroke-linecap: butt; stroke-dashoffset: 0; stroke-linejoin: miter; stroke-miterlimit: 4; fill: url(#SVGID_66); fill-rule: nonzero; opacity: 1;" vector-effect="non-scaling-stroke"  transform=" translate(-214.91, -49.34)" d="M 240.94 0.011261 C 228.48 48.036260999999996 202.47 86.609261 180.67 96.334261 L 180.63 96.334261 C 180.23 96.514261 179.84 96.67826099999999 179.45 96.837261 C 179.39999999999998 96.870261 179.35 96.874261 179.31 96.893261 C 179.19 96.939261 179.08 96.97526099999999 178.97 97.021261 C 178.92 97.05326099999999 178.87 97.064261 178.82 97.083261 C 178.63 97.149261 178.45 97.20426099999999 178.26999999999998 97.27626099999999 C 178.2 97.30926099999999 178.11999999999998 97.32926099999999 178.04999999999998 97.35526099999998 C 177.96999999999997 97.38726099999998 177.86999999999998 97.41726099999998 177.77999999999997 97.44326099999998 C 177.69999999999996 97.47526099999997 177.60999999999999 97.49926099999998 177.51999999999998 97.53526099999998 C 177.43999999999997 97.56726099999997 177.35999999999999 97.58126099999998 177.29 97.61326099999998 C 177.13 97.65926099999999 176.98 97.69826099999997 176.82 97.75426099999999 C 176.75 97.75426099999999 176.69 97.78926099999998 176.62 97.80726099999998 C 176.52 97.83926099999998 176.41 97.86226099999999 176.31 97.89226099999998 C 176.23 97.92426099999997 176.17000000000002 97.93526099999998 176.09 97.95126099999997 C 175.98 97.98326099999997 175.86 98.01326099999997 175.75 98.03926099999997 C 175.6 98.07126099999996 175.47 98.10126099999997 175.33 98.13126099999997 C 176.32000000000002 98.49526099999997 177.35000000000002 98.67926099999997 178.45000000000002 98.67926099999997 C 199.13000000000002 98.67926099999997 219.98000000000002 61.62326099999997 254.48000000000002 0.00026099999996631595 L 240.93 0.000261000000151056 L 240.94 0.011522000000151056 z" stroke-linecap="round" />
</g>
<g transform="matrix(1 0 0 1 448.95 470.18)"  >
<linearGradient id="SVGID_67" gradientUnits="objectBoundingBox" gradientTransform="matrix(1 0 0 1 0 0)"  x1="-0.0000076086" y1="0.5" x2="0.9999899999999999" y2="0.5">
<stop offset="0%" style="stop-color:rgb(5,161,230);stop-opacity: 0.24706"/>
<stop offset="100%" style="stop-color:rgb(5,161,230);stop-opacity: 1"/>
</linearGradient>
<path style="stroke: none; stroke-width: 1; stroke-dasharray: none; stroke-linecap: butt; stroke-dashoffset: 0; stroke-linejoin: miter; stroke-miterlimit: 4; fill: url(#SVGID_67); fill-rule: nonzero; opacity: 1;" vector-effect="non-scaling-stroke"  transform=" translate(-36.19, -51.71)" d="M 64.591 4.0944 C 64.604 4.0944 64.61999999999999 4.062 64.628 4.062 C 64.645 4.062 64.67 4.062 64.678 4.0296 L 64.704 4.0296 C 64.818 3.9907000000000004 64.92399999999999 3.9445 65.03899999999999 3.902 C 65.06799999999998 3.902 65.08399999999999 3.902 65.10499999999999 3.8696 C 65.13399999999999 3.8696 65.16199999999999 3.8372 65.19099999999999 3.8331 C 65.31299999999999 3.7942 65.43599999999999 3.7481 65.55099999999999 3.7055 L 65.57 3.7055 C 65.844 3.6237999999999997 66.098 3.5223 66.363 3.4274999999999998 C 66.401 3.4274999999999998 66.437 3.3951 66.482 3.3951 C 66.592 3.3594 66.707 3.3196999999999997 66.821 3.2937 C 66.875 3.2611999999999997 66.928 3.2611999999999997 66.977 3.2441999999999998 C 67.095 3.2085999999999997 67.21000000000001 3.1689 67.32000000000001 3.1428 C 67.37 3.1428 67.414 3.1104 67.45100000000001 3.1071999999999997 C 67.831 3.0025 68.20800000000001 2.9042999999999997 68.58800000000001 2.8126999999999995 C 68.641 2.8126999999999995 68.686 2.7802999999999995 68.74300000000001 2.7769999999999997 C 68.85400000000001 2.7445999999999997 68.956 2.7276 69.075 2.7114 C 69.12400000000001 2.679 69.181 2.679 69.238 2.662 C 69.349 2.6296 69.455 2.6263 69.574 2.5996 L 69.651 2.5996 C 69.88 2.5534000000000003 70.11399999999999 2.5146 70.34299999999999 2.472 L 70.48199999999999 2.472 C 70.59199999999998 2.4396 70.68999999999998 2.4364 70.80099999999999 2.4161 C 70.86099999999999 2.4161 70.92299999999999 2.3837 70.981 2.3837 C 71.083 2.3837 71.18499999999999 2.3513 71.28699999999999 2.3375000000000004 C 71.341 2.3375000000000004 71.39299999999999 2.3375000000000004 71.455 2.3051000000000004 C 71.696 2.2727000000000004 71.946 2.2598000000000003 72.199 2.2395000000000005 C 71.484 2.1707000000000005 70.747 2.1250000000000004 69.999 2.1250000000000004 C 46.712999999999994 2.1250000000000004 14.628999999999998 45.332 0.1769999999999925 101.29 L 2.9615999999999927 101.29 C 7.586999999999993 93.03800000000001 11.741999999999994 85.23500000000001 15.540599999999994 77.91000000000001 C 25.662599999999994 38.27700000000001 46.2786 11.24900000000001 64.5916 4.088000000000008" stroke-linecap="round" />
</g>
<g transform="matrix(1 0 0 1 494.43 433.26)"  >
<path style="stroke: none; stroke-width: 1; stroke-dasharray: none; stroke-linecap: butt; stroke-dashoffset: 0; stroke-linejoin: miter; stroke-miterlimit: 4; fill: rgb(13,130,202); fill-rule: nonzero; opacity: 1;" vector-effect="non-scaling-stroke"  transform=" translate(-81.67, -14.78)" d="M 77.699 20.014 C 80.345 17.49 82.999 15.219999999999999 85.632 13.204 C 85.031 11.888 84.41000000000001 10.669 83.74300000000001 9.5523 C 81.61200000000001 12.137 79.66600000000001 15.548000000000002 77.69900000000001 20.0143" stroke-linecap="round" />
</g>
<g transform="matrix(1 0 0 1 494.89 425.39)"  >
<path style="stroke: none; stroke-width: 1; stroke-dasharray: none; stroke-linecap: butt; stroke-dashoffset: 0; stroke-linejoin: miter; stroke-miterlimit: 4; fill: rgb(13,130,202); fill-rule: nonzero; opacity: 1;" vector-effect="non-scaling-stroke"  transform=" translate(-82.13, -6.91)" d="M 79.612 4.4219 C 81.133 5.6979 82.49499999999999 7.4524 83.74199999999999 9.5546 C 84.13499999999999 9.072000000000001 84.53099999999999 8.626100000000001 84.94399999999999 8.2089 C 83.21499999999999 6.5936 81.34599999999999 5.268599999999999 79.317 4.2707 C 79.39899999999999 4.3161 79.481 4.3526 79.56599999999999 4.3885 C 79.56599999999999 4.3885 79.59799999999998 4.4209 79.612 4.4209" stroke-linecap="round" />
</g>
<g transform="matrix(1 0 0 1 452.83 459.48)"  >
<linearGradient id="SVGID_68" gradientUnits="objectBoundingBox" gradientTransform="matrix(1 0 0 1 0 0)"  x1="0.49998" y1="1.2431" x2="0.49998" y2="-0.094214">
<stop offset="0%" style="stop-color:rgb(49,142,213);stop-opacity: 1"/>
<stop offset="100%" style="stop-color:rgb(56,167,228);stop-opacity: 1"/>
</linearGradient>
<path style="stroke: none; stroke-width: 1; stroke-dasharray: none; stroke-linecap: butt; stroke-dashoffset: 0; stroke-linejoin: miter; stroke-miterlimit: 4; fill: url(#SVGID_68); fill-rule: nonzero; opacity: 1;" vector-effect="non-scaling-stroke"  transform=" translate(-40.07, -41)" d="M 15.54 77.915 C 36.774 36.998000000000005 46.834 11.102000000000004 64.59100000000001 4.092000000000013 L 64.59100000000001 4.092400000000013 C 46.28200000000001 11.258000000000013 25.662000000000006 38.286400000000015 15.540000000000006 77.9154" stroke-linecap="round" />
</g>
<g transform="matrix(1 0 0 1 498.62 429.19)"  >
<path style="stroke: none; stroke-width: 1; stroke-dasharray: none; stroke-linecap: butt; stroke-dashoffset: 0; stroke-linejoin: miter; stroke-miterlimit: 4; fill: rgb(18,123,202); fill-rule: nonzero; opacity: 1;" vector-effect="non-scaling-stroke"  transform=" translate(-85.86, -10.71)" d="M 84.943 8.2079 C 84.53 8.6293 84.13799999999999 9.071 83.741 9.5536 C 84.407 10.67 85.029 11.885 85.634 13.205 C 86.42 12.604 87.201 12.036 87.978 11.48 C 87.017 10.294 86.002 9.1936 84.943 8.2079" stroke-linecap="round" />
</g>
<g transform="matrix(1 0 0 1 459.04 491.15)"  >
<linearGradient id="SVGID_69" gradientUnits="objectBoundingBox" gradientTransform="matrix(1 0 0 1 0 0)"  x1="0.49999000000000005" y1="0.912" x2="0.49999000000000005" y2="-0.76785">
<stop offset="0%" style="stop-color:rgb(5,161,230);stop-opacity: 1"/>
<stop offset="100%" style="stop-color:rgb(5,161,230);stop-opacity: 0.54902"/>
</linearGradient>
<path style="stroke: none; stroke-width: 1; stroke-dasharray: none; stroke-linecap: butt; stroke-dashoffset: 0; stroke-linejoin: miter; stroke-miterlimit: 4; fill: url(#SVGID_69); fill-rule: nonzero; opacity: 1;" vector-effect="non-scaling-stroke"  transform=" translate(-46.28, -72.68)" d="M 25.18 101.11 C 25.049 101.14 24.918 101.14 24.794999999999998 101.15 L 24.721999999999998 101.15 C 24.610999999999997 101.15 24.496 101.19000000000001 24.394 101.19000000000001 L 24.340999999999998 101.19000000000001 C 24.074999999999996 101.22000000000001 23.813 101.22000000000001 23.56 101.24000000000001 L 23.477999999999998 101.24000000000001 C 44.968999999999994 100.64000000000001 54.792 89.87700000000001 59.667 74.27100000000002 C 63.373000000000005 62.44000000000001 66.415 52.47300000000001 69.082 44.110000000000014 C 60.07999999999999 56.780000000000015 51.038 71.88300000000001 41.94699999999999 88.80200000000002 C 37.56299999999999 96.95600000000002 30.896999999999988 100.36000000000001 25.178999999999988 101.09000000000002" stroke-linecap="round" />
</g>
<g transform="matrix(1 0 0 1 464.2 479.03)"  >
<linearGradient id="SVGID_70" gradientUnits="objectBoundingBox" gradientTransform="matrix(1 0 0 1 0 0)"  x1="0.5" y1="1.0001" x2="0.5" y2="0.0001019">
<stop offset="0%" style="stop-color:rgb(25,89,166);stop-opacity: 1"/>
<stop offset="50%" style="stop-color:rgb(5,161,230);stop-opacity: 1"/>
<stop offset="91.759%" style="stop-color:rgb(126,197,234);stop-opacity: 1"/>
<stop offset="100%" style="stop-color:rgb(126,197,234);stop-opacity: 1"/>
</linearGradient>
<path style="stroke: none; stroke-width: 1; stroke-dasharray: none; stroke-linecap: butt; stroke-dashoffset: 0; stroke-linejoin: miter; stroke-miterlimit: 4; fill: url(#SVGID_70); fill-rule: nonzero; opacity: 1;" vector-effect="non-scaling-stroke"  transform=" translate(-51.44, -60.55)" d="M 25.18 101.1 C 30.897 100.36999999999999 37.563 96.96799999999999 41.947 88.809 C 51.038000000000004 71.895 60.08500000000001 56.788 69.078 44.117999999999995 C 72.349 33.849 75.049 25.988999999999994 77.699 20.004999999999995 C 59.774 37.06699999999999 41.778999999999996 65.437 25.18 101.08999999999999" stroke-linecap="round" />
</g>
<g transform="matrix(1 0 0 1 422.01 508.08)"  >
<path style="stroke: none; stroke-width: 1; stroke-dasharray: none; stroke-linecap: butt; stroke-dashoffset: 0; stroke-linejoin: miter; stroke-miterlimit: 4; fill: rgb(5,161,230); fill-rule: nonzero; opacity: 1;" vector-effect="non-scaling-stroke"  transform=" translate(-9.25, -89.6)" d="M 15.539 77.916 C 11.74 85.24 7.5851 93.04299999999999 2.959999999999999 101.28999999999999 L 11.061 101.28999999999999 C 12.133 93.1 13.654 85.28899999999999 15.539 77.91999999999999" stroke-linecap="round" />
</g>
<g transform="matrix(1 0 0 1 460.18 470.28)"  >
<linearGradient id="SVGID_71" gradientUnits="objectBoundingBox" gradientTransform="matrix(1 0 0 1 0 0)"  x1="0.59804" y1="0.94568" x2="0.38471" y2="0.057551">
<stop offset="0%" style="stop-color:rgb(22,80,150);stop-opacity: 1"/>
<stop offset="100%" style="stop-color:rgb(13,130,202);stop-opacity: 1"/>
</linearGradient>
<path style="stroke: none; stroke-width: 1; stroke-dasharray: none; stroke-linecap: butt; stroke-dashoffset: 0; stroke-linejoin: miter; stroke-miterlimit: 4; fill: url(#SVGID_71); fill-rule: nonzero; opacity: 1;" vector-effect="non-scaling-stroke"  transform=" translate(-47.42, -51.81)" d="M 71.454 2.326 C 71.38799999999999 2.326 71.339 2.3584 71.282 2.3584 C 71.184 2.3908 71.082 2.3908 70.979 2.4014 C 70.919 2.4014 70.861 2.4014 70.8 2.4338 C 70.689 2.4662 70.587 2.4694000000000003 70.48 2.4897 C 70.431 2.4897 70.382 2.4897 70.34100000000001 2.5221 C 70.108 2.561 69.879 2.6039 69.65 2.6431 L 69.57300000000001 2.6431 C 69.45400000000001 2.6755 69.34700000000001 2.6925 69.23700000000001 2.7087 C 69.18 2.7411 69.123 2.7411 69.069 2.7540999999999998 C 68.959 2.7864999999999998 68.848 2.8002999999999996 68.742 2.8196999999999997 C 68.685 2.8520999999999996 68.64 2.8520999999999996 68.587 2.8553999999999995 C 68.206 2.9469999999999996 67.83 3.0451999999999995 67.45 3.1498999999999997 C 67.409 3.1498999999999997 67.36800000000001 3.1822999999999997 67.319 3.1887 C 67.205 3.2211 67.09400000000001 3.2544 66.97500000000001 3.2902 C 66.926 3.3226 66.86900000000001 3.3226 66.82000000000001 3.3355 C 66.706 3.3679 66.59100000000001 3.4012000000000002 66.48100000000001 3.4370000000000003 C 66.436 3.4370000000000003 66.39900000000002 3.4694000000000003 66.358 3.4694000000000003 C 66.096 3.5675000000000003 65.839 3.6657 65.569 3.7475000000000005 C 65.45400000000001 3.7831000000000006 65.331 3.8292000000000006 65.209 3.8718000000000004 C 65.159 3.9042000000000003 65.11500000000001 3.9115 65.058 3.9341000000000004 C 64.94300000000001 3.9698 64.82900000000001 4.016 64.72200000000001 4.0585 C 64.682 4.0909 64.64000000000001 4.0941 64.61200000000001 4.1111 C 46.855000000000004 11.121 36.79400000000001 37.0161 15.561000000000007 77.9331 C 13.676000000000007 85.3031 12.150000000000007 93.1141 11.083000000000007 101.31009999999999 L 12.220000000000008 101.31009999999999 C 15.422000000000008 101.31009999999999 16.326000000000008 101.27009999999999 20.01000000000001 101.27009999999999 L 20.19900000000001 101.27009999999999 L 20.747000000000007 101.27009999999999 L 20.935000000000006 101.27009999999999 L 20.988000000000007 101.27009999999999 L 21.176000000000005 101.27009999999999 L 21.282000000000007 101.27009999999999 L 21.35600000000001 101.27009999999999 L 21.503000000000007 101.27009999999999 L 21.961000000000006 101.27009999999999 L 22.419000000000004 101.27009999999999 L 22.804000000000006 101.27009999999999 L 22.906000000000006 101.27009999999999 L 23.581000000000007 101.27009999999999 C 23.834000000000007 101.24009999999998 24.096000000000007 101.24009999999998 24.362000000000005 101.22009999999999 L 24.411000000000005 101.22009999999999 C 24.521000000000004 101.22009999999999 24.632000000000005 101.19009999999999 24.738000000000007 101.19009999999999 L 24.816000000000006 101.19009999999999 C 24.934000000000005 101.19009999999999 25.069000000000006 101.16009999999999 25.200000000000006 101.14009999999999 C 41.80000000000001 65.48809999999999 59.79400000000001 37.118099999999984 77.71900000000001 20.056099999999986 C 79.69000000000001 15.591099999999987 81.63300000000001 12.180099999999985 83.76 9.599099999999986 L 83.76 9.599499999999987 C 82.516 7.497499999999986 81.15400000000001 5.738999999999987 79.63300000000001 4.462699999999987 C 79.63300000000001 4.462699999999987 79.59200000000001 4.462699999999987 79.58900000000001 4.430299999999987 C 79.50200000000001 4.394599999999986 79.421 4.351699999999987 79.33500000000001 4.309199999999986 C 79.24900000000001 4.263099999999986 79.17500000000001 4.227399999999986 79.08600000000001 4.181599999999986 C 79.00800000000001 4.149199999999986 78.918 4.106299999999986 78.84000000000002 4.063899999999986 C 78.73400000000002 4.031499999999986 78.64800000000002 3.9852999999999863 78.55400000000002 3.942699999999986 C 78.47600000000001 3.910299999999986 78.40700000000001 3.8770999999999862 78.32900000000002 3.844599999999986 C 78.16900000000003 3.782299999999986 78.01000000000002 3.716999999999986 77.85900000000002 3.648299999999986 C 77.78900000000003 3.615899999999986 77.72400000000002 3.598899999999986 77.65800000000003 3.572999999999986 C 77.54800000000003 3.5332999999999863 77.42100000000003 3.481399999999986 77.30600000000003 3.4322999999999864 C 77.24900000000002 3.3998999999999864 77.18400000000003 3.3933999999999864 77.11800000000002 3.3698999999999866 C 76.95100000000002 3.3139999999999867 76.78700000000002 3.2553999999999865 76.63200000000002 3.2029999999999865 L 76.59100000000002 3.2029999999999865 C 76.40300000000002 3.1405999999999867 76.21900000000002 3.0950999999999866 76.02700000000003 3.0426999999999866 C 75.98200000000003 3.0102999999999867 75.94500000000004 3.0102999999999867 75.90000000000003 3.0037999999999867 C 75.73200000000003 2.957599999999987 75.58500000000004 2.9121999999999866 75.42600000000003 2.869599999999987 C 75.38500000000003 2.869599999999987 75.34800000000003 2.837199999999987 75.31500000000003 2.837199999999987 C 74.93100000000003 2.735799999999987 74.53400000000002 2.654099999999987 74.13300000000002 2.578799999999987 C 74.09200000000003 2.578799999999987 74.05200000000002 2.546399999999987 74.01100000000002 2.546399999999987 C 73.83900000000003 2.513999999999987 73.67100000000002 2.483999999999987 73.50000000000003 2.464599999999987 C 73.45800000000003 2.432199999999987 73.43400000000003 2.432199999999987 73.39800000000002 2.432199999999987 C 73.19300000000003 2.399799999999987 72.99300000000002 2.376299999999987 72.79200000000003 2.353599999999987 L 72.68600000000004 2.353599999999987 C 72.52200000000003 2.321199999999987 72.37100000000004 2.3179999999999867 72.22000000000004 2.3008999999999866 C 71.96200000000005 2.3332999999999866 71.71700000000004 2.3470999999999864 71.47500000000004 2.369799999999987" stroke-linecap="round" />
</g>
<g transform="matrix(1 0 0 1 611.16 449.23)"  >
<linearGradient id="SVGID_72" gradientUnits="objectBoundingBox" gradientTransform="matrix(1 0 0 1 0 0)"  x1="0.49995" y1="0.7699800000000001" x2="0.49995" y2="-0.032989000000000004">
<stop offset="0%" style="stop-color:rgb(5,161,230);stop-opacity: 1"/>
<stop offset="87.363%" style="stop-color:rgb(4,149,214);stop-opacity: 1"/>
<stop offset="100%" style="stop-color:rgb(4,149,214);stop-opacity: 1"/>
</linearGradient>
<path style="stroke: none; stroke-width: 1; stroke-dasharray: none; stroke-linecap: butt; stroke-dashoffset: 0; stroke-linejoin: miter; stroke-miterlimit: 4; fill: url(#SVGID_72); fill-rule: nonzero; opacity: 1;" vector-effect="non-scaling-stroke"  transform=" translate(-198.4, -30.75)" d="M 192.29 26.598 C 188.20999999999998 39.685 184.9 50.480999999999995 182.01999999999998 59.364 C 193.23 43.937999999999995 204.26999999999998 24.531999999999996 214.79 2.137999999999998 L 214.79 2.137899999999998 C 202.51999999999998 5.989999999999998 195.98 14.807899999999998 192.29 26.5979" stroke-linecap="round" />
</g>
<g transform="matrix(1 0 0 1 623.56 466.65)"  >
<linearGradient id="SVGID_73" gradientUnits="objectBoundingBox" gradientTransform="matrix(1 0 0 1 0 0)"  x1="0.65263" y1="-0.041614000000000005" x2="0.34263" y2="1.0584">
<stop offset="0%" style="stop-color:rgb(56,167,228);stop-opacity: 0.32941"/>
<stop offset="96.153%" style="stop-color:rgb(14,136,211);stop-opacity: 1"/>
<stop offset="100%" style="stop-color:rgb(14,136,211);stop-opacity: 1"/>
</linearGradient>
<path style="stroke: none; stroke-width: 1; stroke-dasharray: none; stroke-linecap: butt; stroke-dashoffset: 0; stroke-linejoin: miter; stroke-miterlimit: 4; fill: url(#SVGID_73); fill-rule: nonzero; opacity: 1;" vector-effect="non-scaling-stroke"  transform=" translate(-210.81, -48.17)" d="M 182.38 95.516 C 181.79999999999998 95.808 181.23 96.08500000000001 180.67 96.334 C 202.47 86.60900000000001 228.48 48.036 240.94 0.01100000000000989 L 238.41 0.011261000000009892 C 209.8 51.11926100000001 200.6 85.33326100000001 182.38 95.516261" stroke-linecap="round" />
</g>
<g transform="matrix(1 0 0 1 585.6 493.77)"  >
<path style="stroke: none; stroke-width: 1; stroke-dasharray: none; stroke-linecap: butt; stroke-dashoffset: 0; stroke-linejoin: miter; stroke-miterlimit: 4; fill: rgb(7,154,225); fill-rule: nonzero; opacity: 1;" vector-effect="non-scaling-stroke"  transform=" translate(-172.83, -75.29)" d="M 168.14 91.223 C 172.88 85.432 176.75 75.588 182.01999999999998 59.364 C 175.93999999999997 67.72399999999999 169.80999999999997 74.90899999999999 163.67999999999998 80.77 C 163.67999999999998 80.80199999999999 163.67999999999998 80.80199999999999 163.64999999999998 80.822 C 164.98999999999998 84.83 166.45 88.367 168.12999999999997 91.22200000000001" stroke-linecap="round" />
</g>
<g transform="matrix(1 0 0 1 581.24 513.44)"  >
<path style="stroke: none; stroke-width: 1; stroke-dasharray: none; stroke-linecap: butt; stroke-dashoffset: 0; stroke-linejoin: miter; stroke-miterlimit: 4; fill: rgb(25,105,188); fill-rule: nonzero; opacity: 1;" vector-effect="non-scaling-stroke"  transform=" translate(-168.48, -94.97)" d="M 168.14 91.223 C 166.51999999999998 93.194 164.80999999999997 94.695 162.91 95.807 C 162.49 96.049 162.07 96.277 161.64 96.486 C 163.64999999999998 97.57000000000001 165.83999999999997 98.29400000000001 168.29999999999998 98.584 C 168.66 98.62 169.01 98.653 169.39 98.679 L 169.45 98.679 C 169.61999999999998 98.679 169.79 98.679 169.97 98.711 L 170.05 98.711 L 170.58 98.711 L 171.16000000000003 98.711 L 171.34000000000003 98.711 L 171.75000000000003 98.711 C 171.81000000000003 98.711 171.88000000000002 98.711 171.95000000000002 98.679 C 172.08 98.679 172.21 98.679 172.34 98.646 L 172.39000000000001 98.646 L 172.53 98.646 C 172.67 98.646 172.82 98.614 172.96 98.6 L 172.99 98.6 C 173.03 98.6 173.08 98.568 173.12 98.568 C 173.27 98.535 173.43 98.52199999999999 173.58 98.499 L 173.71 98.499 C 173.88 98.467 174.05 98.446 174.22 98.414 L 174.25 98.414 L 174.3 98.414 C 174.65 98.348 174.98000000000002 98.283 175.32000000000002 98.19800000000001 C 172.51000000000002 97.167 170.15000000000003 94.73800000000001 168.12000000000003 91.278" stroke-linecap="round" />
</g>
<g transform="matrix(1 0 0 1 551.34 516.11)"  >
<path style="stroke: none; stroke-width: 1; stroke-dasharray: none; stroke-linecap: butt; stroke-dashoffset: 0; stroke-linejoin: miter; stroke-miterlimit: 4; fill: rgb(30,92,179); fill-rule: nonzero; opacity: 1;" vector-effect="non-scaling-stroke"  transform=" translate(-138.58, -97.64)" d="M 127.94 98.711 C 129.98 98.711 132.04 98.512 134.10999999999999 98.114 C 136.01999999999998 97.76700000000001 137.94 97.235 139.85999999999999 96.56400000000001 C 141.45999999999998 97.34500000000001 143.14 97.926 144.91 98.286 C 146.29 98.56700000000001 147.72 98.711 149.22 98.711 L 127.94 98.711 z" stroke-linecap="round" />
</g>
<g transform="matrix(1 0 0 1 572.66 516.07)"  >
<path style="stroke: none; stroke-width: 1; stroke-dasharray: none; stroke-linecap: butt; stroke-dashoffset: 0; stroke-linejoin: miter; stroke-miterlimit: 4; fill: rgb(30,92,179); fill-rule: nonzero; opacity: 1;" vector-effect="non-scaling-stroke"  transform=" translate(-159.9, -97.6)" d="M 149.22 98.711 C 154.26 98.711 158.25 98.114 161.64 96.486 C 163.64999999999998 97.57000000000001 165.83999999999997 98.29400000000001 168.29999999999998 98.58500000000001 C 168.66 98.62 169.01 98.653 169.39 98.679 L 169.45 98.679 C 169.61999999999998 98.679 169.79 98.679 169.97 98.712 L 170.05 98.712 L 170.59 98.712 L 149.21 98.712 L 149.22 98.711 z" stroke-linecap="round" />
</g>
<g transform="matrix(1 0 0 1 587.29 516.94)"  >
<path style="stroke: none; stroke-width: 1; stroke-dasharray: none; stroke-linecap: butt; stroke-dashoffset: 0; stroke-linejoin: miter; stroke-miterlimit: 4; fill: rgb(29,96,181); fill-rule: nonzero; opacity: 1;" vector-effect="non-scaling-stroke"  transform=" translate(-174.53, -98.46)" d="M 170.6 98.711 L 171.18 98.711 L 171.36 98.711 L 171.76000000000002 98.711 C 171.83 98.711 171.9 98.711 171.96 98.679 C 172.09 98.679 172.23000000000002 98.679 172.36 98.646 L 172.4 98.646 L 172.55 98.646 C 172.69 98.646 172.84 98.614 172.98000000000002 98.601 L 173.01000000000002 98.601 C 173.05 98.601 173.10000000000002 98.569 173.14000000000001 98.569 C 173.29000000000002 98.536 173.45000000000002 98.523 173.59 98.5 C 173.64000000000001 98.5 173.68 98.5 173.73 98.467 C 173.89999999999998 98.435 174.07 98.41799999999999 174.23999999999998 98.386 L 174.27999999999997 98.386 L 174.32999999999998 98.386 C 174.67 98.32 175.01 98.255 175.33999999999997 98.17 C 176.32999999999998 98.534 177.35999999999999 98.718 178.45999999999998 98.718 L 170.59999999999997 98.75 L 170.59999999999997 98.711 z" stroke-linecap="round" />
</g>
<g transform="matrix(1 0 0 1 573.54 507.12)"  >
<path style="stroke: none; stroke-width: 1; stroke-dasharray: none; stroke-linecap: butt; stroke-dashoffset: 0; stroke-linejoin: miter; stroke-miterlimit: 4; fill: rgb(23,95,171); fill-rule: nonzero; opacity: 1;" vector-effect="non-scaling-stroke"  transform=" translate(-160.78, -88.64)" d="M 163.66 80.823 L 163.66 80.78999999999999 C 161.42 82.937 159.17 84.90499999999999 156.94 86.68299999999999 C 155.77 87.612 154.6 88.491 153.42 89.321 C 154.41 90.499 155.41 91.603 156.47 92.61 C 158.07 94.163 159.78 95.472 161.65 96.482 C 162.08 96.273 162.5 96.044 162.92000000000002 95.803 C 164.82000000000002 94.691 166.53000000000003 93.19 168.15 91.219 C 166.47 88.36399999999999 165.01000000000002 84.827 163.67000000000002 80.81899999999999" stroke-linecap="round" />
</g>
<g transform="matrix(1 0 0 1 616.02 467.55)"  >
<linearGradient id="SVGID_74" gradientUnits="objectBoundingBox" gradientTransform="matrix(1 0 0 1 0 0)"  x1="0.50017" y1="-0.0029578" x2="0.50017" y2="1.0188">
<stop offset="0%" style="stop-color:rgb(22,140,212);stop-opacity: 1"/>
<stop offset="50%" style="stop-color:rgb(28,135,204);stop-opacity: 1"/>
<stop offset="100%" style="stop-color:rgb(21,75,141);stop-opacity: 1"/>
</linearGradient>
<path style="stroke: none; stroke-width: 1; stroke-dasharray: none; stroke-linecap: butt; stroke-dashoffset: 0; stroke-linejoin: miter; stroke-miterlimit: 4; fill: url(#SVGID_74); fill-rule: nonzero; opacity: 1;" vector-effect="non-scaling-stroke"  transform=" translate(-203.26, -49.07)" d="M 230.42 0.011261 L 219.81 0.011261 L 218.76 0.011261 L 217.76 0.011261 L 217.72 0.011261 C 217.03 0.043666 216.37 0.067159 215.71 0.10944999999999999 C 215.4 0.77626 215.08 1.44305 214.77 2.11365 L 214.77 2.11375 C 204.26000000000002 24.507749999999998 193.22 43.91375 182.01000000000002 59.33975 C 176.74 75.56275 172.87 85.40675 168.12 91.19775 C 170.15 94.65775 172.51 97.09075 175.32 98.12175 C 175.4 98.08875 175.45999999999998 98.08875 175.54 98.07175000000001 L 175.57999999999998 98.07175000000001 C 175.63 98.07175000000001 175.67999999999998 98.03975000000001 175.73999999999998 98.03975000000001 C 175.85 98.00675000000001 175.98 97.98675000000001 176.08999999999997 97.95175000000002 C 176.15999999999997 97.91875000000002 176.21999999999997 97.91575000000002 176.29999999999998 97.89175000000002 C 176.39999999999998 97.85975000000002 176.51 97.83675000000001 176.60999999999999 97.81075000000001 C 176.67999999999998 97.77775000000001 176.73999999999998 97.76775 176.80999999999997 97.75475000000002 C 176.96999999999997 97.70175000000002 177.11999999999998 97.66275000000002 177.27999999999997 97.61375000000001 C 177.34999999999997 97.58175000000001 177.42999999999998 97.55475000000001 177.50999999999996 97.53475000000002 C 177.59999999999997 97.50275000000002 177.68999999999997 97.47975000000001 177.76999999999995 97.44075000000002 C 177.85999999999996 97.40775000000002 177.95999999999995 97.39075000000003 178.03999999999996 97.35575000000003 C 178.10999999999996 97.32275000000003 178.18999999999997 97.30275000000003 178.25999999999996 97.27375000000004 C 178.44999999999996 97.20775000000003 178.62999999999997 97.15275000000004 178.80999999999997 97.08075000000004 C 178.85999999999999 97.08075000000004 178.90999999999997 97.03475000000003 178.95999999999998 97.02475000000004 C 179.07 96.97875000000003 179.18999999999997 96.94275000000005 179.29999999999998 96.89375000000004 C 179.33999999999997 96.86075000000004 179.39 96.85775000000004 179.43999999999997 96.84075000000004 C 179.81999999999996 96.68075000000005 180.21999999999997 96.51675000000004 180.61999999999998 96.33775000000004 L 180.65999999999997 96.33775000000004 C 181.21999999999997 96.08975000000004 181.79999999999995 95.81075000000004 182.35999999999996 95.51975000000004 C 200.58999999999995 85.33675000000005 209.78999999999996 51.122750000000046 238.39999999999995 0.014750000000049113 L 238.39999999999995 0.014980000000049112 L 230.40999999999994 0.014980000000049112 L 230.41999999999993 0.011011000000049112 z" stroke-linecap="round" />
</g>
<g transform="matrix(1 0 0 1 492.33 423.72)"  >
<path style="stroke: none; stroke-width: 1; stroke-dasharray: none; stroke-linecap: butt; stroke-dashoffset: 0; stroke-linejoin: miter; stroke-miterlimit: 4; fill: rgb(125,203,236); fill-rule: nonzero; opacity: 1;" vector-effect="non-scaling-stroke"  transform=" translate(-79.57, -5.24)" d="M 72.199 2.257 C 72.244 2.257 72.285 2.257 72.33 2.2894 C 72.44 2.2894 72.551 2.2894 72.661 2.3251 L 72.772 2.3251 C 72.97200000000001 2.3575 73.17200000000001 2.3745 73.37700000000001 2.4036 C 73.41400000000002 2.4036 73.447 2.4036 73.47900000000001 2.4361 C 73.64700000000002 2.4685 73.81800000000001 2.4952 73.99000000000001 2.5211 C 74.02700000000002 2.5211 74.07600000000001 2.5535 74.117 2.5535 C 74.51 2.6321000000000003 74.911 2.7138 75.295 2.8153 C 75.331 2.8153 75.369 2.8477 75.401 2.8477 C 75.565 2.8866 75.712 2.936 75.87599999999999 2.9818000000000002 C 75.925 2.9818000000000002 75.96099999999998 3.0142 76.00699999999999 3.0214000000000003 C 76.19899999999998 3.0709000000000004 76.37899999999999 3.1196 76.567 3.1818000000000004 C 76.57499999999999 3.1818000000000004 76.586 3.1818000000000004 76.60799999999999 3.2142000000000004 C 76.767 3.2628000000000004 76.93099999999998 3.3254000000000006 77.09899999999999 3.3810000000000002 C 77.16499999999999 3.4134 77.22599999999998 3.4272 77.28699999999999 3.4434 C 77.40199999999999 3.4928 77.529 3.5415 77.639 3.5873 C 77.704 3.5873 77.77 3.6327 77.839 3.6562 C 77.99 3.725 78.15 3.787 78.30499999999999 3.8525 C 78.38699999999999 3.8849 78.45599999999999 3.9213 78.53399999999999 3.9506 C 78.624 3.9968 78.71799999999999 4.039 78.81599999999999 4.0717 C 78.89799999999998 4.1106 78.98799999999999 4.1533999999999995 79.06599999999999 4.1894 C 79.15199999999999 4.2356 79.23299999999999 4.2712 79.31499999999998 4.317 C 81.34399999999998 5.3149 83.21299999999998 6.6442 84.94299999999998 8.2555 C 85.58099999999999 7.5847999999999995 86.24699999999999 6.983499999999999 86.93799999999999 6.4437 C 83.15499999999999 3.7609 78.86899999999999 2.2313 73.92499999999998 2.2313 C 73.35199999999999 2.2313 72.77999999999999 2.2637 72.19899999999998 2.3067" stroke-linecap="round" />
</g>
<g transform="matrix(1 0 0 1 500.6 427.41)"  >
<path style="stroke: none; stroke-width: 1; stroke-dasharray: none; stroke-linecap: butt; stroke-dashoffset: 0; stroke-linejoin: miter; stroke-miterlimit: 4; fill: rgb(94,197,237); fill-rule: nonzero; opacity: 1;" vector-effect="non-scaling-stroke"  transform=" translate(-87.85, -8.94)" d="M 84.943 8.2079 C 86.002 9.1933 87.017 10.294 87.978 11.48 C 88.90599999999999 10.833 89.826 10.212 90.75 9.6311 C 89.54 8.4205 88.264 7.3327 86.935 6.396 C 86.244 6.9319 85.581 7.5372 84.943 8.2079" stroke-linecap="round" />
</g>
<g transform="matrix(1 0 0 -1 498.99 422.74)"  >
<linearGradient id="SVGID_75" gradientUnits="objectBoundingBox" gradientTransform="matrix(1 0 0 1 0 0)"  x1="0.16674" y1="2.0556" x2="0.8781300000000001" y2="-0.19835999999999998">
<stop offset="0%" style="stop-color:rgb(151,214,238);stop-opacity: 1"/>
<stop offset="70.329%" style="stop-color:rgb(85,193,234);stop-opacity: 1"/>
<stop offset="100%" style="stop-color:rgb(85,193,234);stop-opacity: 1"/>
</linearGradient>
<path style="stroke: none; stroke-width: 1; stroke-dasharray: none; stroke-linecap: butt; stroke-dashoffset: 0; stroke-linejoin: miter; stroke-miterlimit: 4; fill: url(#SVGID_75); fill-rule: nonzero; opacity: 1;" vector-effect="non-scaling-stroke"  transform=" translate(-86.23, -4.27)" d="M 72.198 6.2846 C 72.779 6.3337 73.351 6.3542000000000005 73.92399999999999 6.3542000000000005 C 78.868 6.3542000000000005 83.154 4.8246 86.937 2.1459 C 90.929 5.2949 95.75399999999999 6.3951 102.46 6.3951 L 69.99799999999999 6.3951 C 70.746 6.3951 71.478 6.3501 72.198 6.2846" stroke-linecap="round" />
</g>
<g transform="matrix(1 0 0 -1 512.94 424.36)"  >
<linearGradient id="SVGID_76" gradientUnits="objectBoundingBox" gradientTransform="matrix(1 0 0 1 0 0)"  x1="0.068902" y1="0.063004" x2="0.75783" y2="1.1677">
<stop offset="0%" style="stop-color:rgb(122,204,236);stop-opacity: 1"/>
<stop offset="100%" style="stop-color:rgb(63,183,237);stop-opacity: 1"/>
</linearGradient>
<path style="stroke: none; stroke-width: 1; stroke-dasharray: none; stroke-linecap: butt; stroke-dashoffset: 0; stroke-linejoin: miter; stroke-miterlimit: 4; fill: url(#SVGID_76); fill-rule: nonzero; opacity: 1;" vector-effect="non-scaling-stroke"  transform=" translate(-100.17, -5.89)" d="M 102.46 9.63 C 95.75399999999999 9.63 90.92899999999999 8.529800000000002 86.937 5.380800000000001 C 88.262 4.444300000000001 89.538 3.3565000000000005 90.749 2.1459000000000006 C 96.306 5.679400000000001 101.81 8.018600000000001 107.24 9.041 C 109.30999999999999 9.4296 111.36999999999999 9.63 113.41 9.63 L 102.46 9.63 z" stroke-linecap="round" />
</g>
<g transform="matrix(1 0 0 1 602.47 458.93)"  >
<linearGradient id="SVGID_77" gradientUnits="objectBoundingBox" gradientTransform="matrix(1 0 0 1 0 0)"  x1="0.49997" y1="0.063628" x2="0.49997" y2="1.2796">
<stop offset="0%" style="stop-color:rgb(29,167,231);stop-opacity: 1"/>
<stop offset="100%" style="stop-color:rgb(55,171,231);stop-opacity: 0"/>
</linearGradient>
<path style="stroke: none; stroke-width: 1; stroke-dasharray: none; stroke-linecap: butt; stroke-dashoffset: 0; stroke-linejoin: miter; stroke-miterlimit: 4; fill: url(#SVGID_77); fill-rule: nonzero; opacity: 1;" vector-effect="non-scaling-stroke"  transform=" translate(-189.7, -40.45)" d="M 182.02 59.372 C 184.9 50.481 188.20000000000002 39.689 192.3 26.598 C 195.99 14.802999999999999 202.52 5.986000000000001 214.78 2.137999999999998 C 215.11 1.479299999999998 215.41 0.8003999999999982 215.73 0.13369999999999793 C 195.73 1.3320999999999978 186.39 11.502699999999997 181.69 26.5647 C 173.46 52.860699999999994 168.48 69.9067 163.68 80.7687 C 169.81 74.9127 175.94 67.7227 182.02 59.3717" stroke-linecap="round" />
</g>
<g transform="matrix(1 0 0 1 620.04 513.29)"  >
<path style="stroke: none; stroke-width: 1; stroke-dasharray: none; stroke-linecap: butt; stroke-dashoffset: 0; stroke-linejoin: miter; stroke-miterlimit: 4; fill: rgb(255,255,255); fill-rule: nonzero; opacity: 1;" vector-effect="non-scaling-stroke"  transform=" translate(-208.62, -94.81)" d="M 211.35 91.706 L 209.09 91.706 L 209.09 98.74900000000001 L 208.16 98.74900000000001 L 208.16 91.706 L 205.89 91.706 L 205.89 90.86800000000001 L 211.35 90.86800000000001 L 211.35 91.706 z" stroke-linecap="round" />
</g>
</svg>