<?xml version="1.0" encoding="UTF-8" standalone="no"?>
<svg xmlns="http://www.w3.org/2000/svg" height="244px" width="256px" version="1.1" preserveAspectRatio="xMidYMid" xmlns:xlink="http://www.w3.org/1999/xlink" viewBox="0 0 256 244">
 <defs>
  <linearGradient id="linearGradient-1" y1="-19.516%" x2="49.997%" x1="49.997%" y2="129.63%">
   <stop stop-color="#0994DC" offset="0"/>
   <stop stop-color="#66CEF5" offset=".35001"/>
   <stop stop-color="#127BCA" offset=".84616"/>
   <stop stop-color="#127BCA" offset="1"/>
  </linearGradient>
  <linearGradient id="linearGradient-2" y1="-19.516%" x2="50.001%" x1="50.001%" y2="129.62%">
   <stop stop-color="#0E76BC" offset="0"/>
   <stop stop-color="#36AEE8" offset="0.36"/>
   <stop stop-color="#00ADEF" offset=".84616"/>
   <stop stop-color="#00ADEF" offset="1"/>
  </linearGradient>
  <linearGradient id="linearGradient-3" y1="110.92%" x2="49.999%" x1="49.999%" y2="-6.214%">
   <stop stop-color="#1C63B7" offset="0"/>
   <stop stop-color="#33BDF2" offset=".5"/>
   <stop stop-color="#33BDF2" stop-opacity=".41961" offset="1"/>
  </linearGradient>
  <linearGradient id="linearGradient-4" y1="-19.515%" x2="50.001%" x1="50.001%" y2="129.63%">
   <stop stop-color="#166AB8" offset="0"/>
   <stop stop-color="#36AEE8" offset=".39999"/>
   <stop stop-color="#0798DD" offset=".84616"/>
   <stop stop-color="#0798DD" offset="1"/>
  </linearGradient>
  <linearGradient id="linearGradient-5" y1="-19.521%" x2="49.999%" x1="49.999%" y2="129.63%">
   <stop stop-color="#124379" offset="0"/>
   <stop stop-color="#1487CB" offset="0.39"/>
   <stop stop-color="#165197" offset=".78023"/>
   <stop stop-color="#165197" offset="1"/>
  </linearGradient>
  <linearGradient id="linearGradient-6" y1="50.001%" x1=".00030465%" y2="50.001%">
   <stop stop-color="#33BDF2" stop-opacity=".69804" offset="0"/>
   <stop stop-color="#1DACD8" offset="1"/>
  </linearGradient>
  <linearGradient id="linearGradient-7" y1="94.686%" x2="50.01%" x1="50.01%" y2="-3.0246%">
   <stop stop-color="#136AB4" offset="0"/>
   <stop stop-color="#59CAF5" stop-opacity=".54902" offset="0.6"/>
   <stop stop-color="#59CAF5" stop-opacity=".23529" offset="1"/>
  </linearGradient>
  <linearGradient id="linearGradient-8" y1="50%" x2="99.999%" x1="-.00076086%" y2="50%">
   <stop stop-color="#05A1E6" stop-opacity=".24706" offset="0"/>
   <stop stop-color="#05A1E6" offset="1"/>
  </linearGradient>
  <linearGradient id="linearGradient-9" y1="124.31%" x2="49.998%" x1="49.998%" y2="-9.4214%">
   <stop stop-color="#318ED5" offset="0"/>
   <stop stop-color="#38A7E4" offset="1"/>
  </linearGradient>
  <linearGradient id="linearGradient-10" y1="91.2%" x2="49.999%" x1="49.999%" y2="-76.785%">
   <stop stop-color="#05A1E6" offset="0"/>
   <stop stop-color="#05A1E6" stop-opacity=".54902" offset="1"/>
  </linearGradient>
  <linearGradient id="linearGradient-11" y1="100.01%" x2="50%" x1="50%" y2=".010190%">
   <stop stop-color="#1959A6" offset="0"/>
   <stop stop-color="#05A1E6" offset=".5"/>
   <stop stop-color="#7EC5EA" offset=".91759"/>
   <stop stop-color="#7EC5EA" offset="1"/>
  </linearGradient>
  <linearGradient id="linearGradient-12" y1="94.568%" x2="38.471%" x1="59.804%" y2="5.7551%">
   <stop stop-color="#165096" offset="0"/>
   <stop stop-color="#0D82CA" offset="1"/>
  </linearGradient>
  <linearGradient id="linearGradient-13" y1="76.998%" x2="49.995%" x1="49.995%" y2="-3.2989%">
   <stop stop-color="#05A1E6" offset="0"/>
   <stop stop-color="#0495D6" offset=".87363"/>
   <stop stop-color="#0495D6" offset="1"/>
  </linearGradient>
  <linearGradient id="linearGradient-14" y1="-4.1614%" x2="34.263%" x1="65.263%" y2="105.84%">
   <stop stop-color="#38A7E4" stop-opacity=".32941" offset="0"/>
   <stop stop-color="#0E88D3" offset=".96153"/>
   <stop stop-color="#0E88D3" offset="1"/>
  </linearGradient>
  <linearGradient id="linearGradient-15" y1="-.29578%" x2="50.017%" x1="50.017%" y2="101.88%">
   <stop stop-color="#168CD4" offset="0"/>
   <stop stop-color="#1C87CC" offset=".5"/>
   <stop stop-color="#154B8D" offset="1"/>
  </linearGradient>
  <linearGradient id="linearGradient-16" y1="205.56%" x2="87.813%" x1="16.674%" y2="-19.836%">
   <stop stop-color="#97D6EE" offset="0"/>
   <stop stop-color="#55C1EA" offset=".70329"/>
   <stop stop-color="#55C1EA" offset="1"/>
  </linearGradient>
  <linearGradient id="linearGradient-17" y1="6.3004%" x2="75.783%" x1="6.8902%" y2="116.77%">
   <stop stop-color="#7ACCEC" offset="0"/>
   <stop stop-color="#3FB7ED" offset="1"/>
  </linearGradient>
  <linearGradient id="linearGradient-18" y1="6.3628%" x2="49.997%" x1="49.997%" y2="127.96%">
   <stop stop-color="#1DA7E7" offset="0"/>
   <stop stop-color="#37ABE7" stop-opacity="0" offset="1"/>
  </linearGradient>
 </defs>
 <g transform="translate(26.734 116.66)">
  <path d="m187.53 11.347c0-0.429-0.11-0.736-0.35-0.936-0.27-0.216-0.74-0.331-1.38-0.331h-0.93v2.551h1.12c1.03 0 1.54-0.429 1.54-1.284zm1.45 5.321h-1.27l-0.82-1.795c-0.41-0.9-0.85-1.35-1.33-1.35h-0.69v3.145h-1.05v-7.4843h2.1c0.94 0 1.64 0.2028 2.13 0.6259 0.41 0.3634 0.61 0.8304 0.61 1.4114 0 0.515-0.17 0.948-0.5 1.308-0.33 0.364-0.8 0.61-1.4 0.736v0.033c0.42 0.098 0.83 0.556 1.24 1.382l0.98 1.992v-0.004zm2.33-3.669c0-1.472-0.5-2.715-1.5-3.7008-1.01-0.9854-2.23-1.4802-3.68-1.4802-1.49 0-2.74 0.4948-3.72 1.4887-0.99 0.9983-1.48 2.2323-1.48 3.6923 0 1.493 0.51 2.741 1.53 3.734 1 0.994 2.22 1.485 3.67 1.485 1.43 0 2.66-0.495 3.67-1.501 1.01-0.99 1.51-2.233 1.51-3.718zm0.71-0.032c0 1.653-0.57 3.039-1.71 4.155-1.14 1.125-2.54 1.685-4.21 1.685-1.69 0-3.08-0.552-4.2-1.636-1.11-1.1-1.66-2.482-1.66-4.159 0-1.64 0.56-3.018 1.69-4.1506 1.13-1.1287 2.54-1.6931 4.22-1.6931 1.65 0 3.03 0.5398 4.15 1.6153 1.15 1.1042 1.72 2.4944 1.72 4.1834z"/>
  <path d="m32.065 33.836h-3.627v-20.759c0-1.639 0.108-3.6352 0.301-5.9908h-0.082c-0.34 1.378-0.651 2.3759-0.924 2.9938l-10.543 23.756h-1.767l-10.564-23.584c-0.2976-0.659-0.6091-1.7184-0.9241-3.1658h-0.0785c0.1112 1.239 0.1734 3.2468 0.1734 6.0318v20.718h-3.4968l-0.00002-30.913 4.7849-0.0001 9.4841 21.556c0.715 1.624 1.178 2.859 1.402 3.701h0.151c0.617-1.689 1.108-2.956 1.48-3.791l9.689-21.466 4.539-0.0001v30.913h0.002z"/>
  <path d="m43.223 33.835h-3.525v-22.076h3.525v22.076zm0.61-29.989c0 0.6504-0.229 1.1941-0.683 1.6401-0.446 0.4456-0.998 0.6707-1.644 0.6707-0.63 0-1.178-0.216-1.628-0.6461-0.45-0.4335-0.671-0.9858-0.671-1.6647 0-0.638 0.223-1.1817 0.671-1.6234 0.45-0.4417 0.998-0.6543 1.628-0.6543 0.646 0 1.198 0.2126 1.644 0.6543 0.454 0.4417 0.683 0.9854 0.683 1.6234z"/>
  <path d="m65.254 32.814c-1.694 1.039-3.714 1.554-6.049 1.554-3.165 0-5.713-1.051-7.66-3.149-1.889-2.037-2.842-4.666-2.842-7.889 0-3.615 1.035-6.543 3.12-8.768 2.074-2.229 4.863-3.341 8.372-3.341 1.918 0 3.619 0.376 5.108 1.12v3.628c-1.648-1.158-3.39-1.73-5.26-1.73-2.249 0-4.077 0.785-5.496 2.352-1.477 1.603-2.225 3.746-2.225 6.42 0 2.569 0.683 4.601 2.041 6.102 1.362 1.493 3.174 2.241 5.46 2.241 1.93 0 3.737-0.634 5.431-1.897v3.357z"/>
  <path d="m82.115 15.341c-0.621-0.478-1.517-0.712-2.699-0.712-1.435 0-2.642 0.643-3.619 1.939-1.108 1.448-1.66 3.452-1.66 6.012v11.254h-3.534v-22.075h3.534v4.551h0.085c0.519-1.611 1.321-2.85 2.392-3.729 1.002-0.802 2.135-1.207 3.382-1.207 0.941 0 1.64 0.102 2.119 0.301v3.664 0.002z"/>
  <path d="m101.81 22.837c0-2.825-0.64-4.985-1.915-6.465-1.239-1.423-2.969-2.135-5.198-2.135-2.196 0-3.959 0.72-5.276 2.159-1.394 1.538-2.09 3.71-2.09 6.528 0 2.641 0.663 4.715 2 6.195 1.329 1.489 3.121 2.233 5.366 2.233 2.323 0 4.102-0.756 5.323-2.261 1.19-1.473 1.79-3.554 1.79-6.254m3.62-0.124c0 3.517-0.99 6.343-2.97 8.462-1.99 2.126-4.663 3.19-8.025 3.19-3.312 0-5.95-1.064-7.885-3.19-1.893-2.049-2.846-4.757-2.846-8.122 0-3.841 1.075-6.801 3.235-8.903 1.996-1.951 4.666-2.933 8.012-2.933 3.292 0 5.869 1.027 7.719 3.059 1.83 2.045 2.76 4.859 2.76 8.437"/>
  <path d="m122.96 27.929c0 1.808-0.68 3.305-2.03 4.499-1.48 1.292-3.51 1.938-6.06 1.938-2.09 0-3.92-0.437-5.48-1.329v-3.799c1.73 1.407 3.64 2.114 5.74 2.114 2.8 0 4.2-1.03 4.2-3.083 0-0.863-0.31-1.579-0.93-2.131-0.62-0.564-1.82-1.239-3.62-2.028-1.85-0.81-3.16-1.64-3.94-2.503-0.93-1.023-1.4-2.352-1.4-3.988 0-1.832 0.73-3.357 2.18-4.572 1.45-1.219 3.31-1.828 5.6-1.828 1.76 0 3.33 0.344 4.72 1.035v3.558c-1.45-1.051-3.12-1.575-5.01-1.575-1.17 0-2.11 0.291-2.81 0.859-0.71 0.581-1.06 1.321-1.06 2.225 0 0.977 0.3 1.738 0.89 2.282 0.52 0.503 1.63 1.116 3.31 1.832 1.88 0.789 3.25 1.607 4.08 2.446 1.07 1.059 1.62 2.408 1.62 4.048"/>
  <path d="m144.55 22.837c0-2.825-0.64-4.985-1.92-6.465-1.23-1.423-2.97-2.135-5.19-2.135-2.2 0-3.96 0.72-5.29 2.159-1.39 1.538-2.08 3.71-2.08 6.528 0 2.641 0.67 4.715 1.99 6.195 1.35 1.489 3.14 2.233 5.38 2.233 2.33 0 4.1-0.756 5.32-2.261 1.19-1.473 1.79-3.554 1.79-6.254m3.63-0.124c0 3.517-1 6.343-2.98 8.462-1.98 2.126-4.66 3.19-8.02 3.19-3.32 0-5.95-1.064-7.89-3.19-1.89-2.049-2.84-4.757-2.84-8.122 0-3.841 1.08-6.801 3.23-8.903 1.99-1.951 4.67-2.933 8.02-2.933 3.29 0 5.86 1.027 7.71 3.059 1.84 2.045 2.77 4.859 2.77 8.437"/>
  <path d="m163.75 4.2584c-0.69-0.3844-1.47-0.5807-2.35-0.5807-2.47 0-3.7 1.558-3.7 4.6786v3.4027h5.18v2.993h-5.18v19.083h-3.53v-19.083h-3.76v-2.993h3.76v-3.5784c0-2.4296 0.74-4.3353 2.25-5.7095 1.3-1.1942 2.89-1.787 4.77-1.787 1.09-0.00003 1.94 0.13089 2.56 0.3845v3.1898z"/>
  <path d="m177.7 33.613c-0.84 0.479-1.95 0.716-3.32 0.716-3.85 0-5.78-2.172-5.78-6.515v-13.058h-3.79v-2.998h3.79v-5.386c1.13-0.356 2.3-0.7444 3.54-1.1451v6.5311h5.56v2.998h-5.56v12.457c0 1.48 0.24 2.539 0.75 3.153 0.51 0.634 1.34 0.945 2.52 0.945 0.88 0 1.64-0.236 2.29-0.712v3.014z"/>
 </g>
 <g transform="translate(0 160.41)">
  <path d="m13.414 76.248c0 1.729-0.617 3.226-1.864 4.49-1.244 1.26-2.753 1.894-4.5236 1.894-1.7301 0-3.2024-0.634-4.4087-1.894-1.2066-1.264-1.8076-2.761-1.8076-4.49 0.00003-1.779 0.601-3.28 1.8076-4.523 1.2063-1.248 2.6786-1.865 4.4087-1.865 1.7706 0 3.2796 0.626 4.5236 1.889 1.247 1.264 1.864 2.765 1.864 4.499"/>
  <path d="m92.531 81.332h-11.524l-41.833-64.604c-0.978-1.554-1.82-3.243-2.536-5.088h-0.344c0.298 1.73 0.451 5.443 0.451 11.132v58.56h-9.501v-81.053l12.331 0.00025 40.581 63.586c1.616 2.523 2.719 4.331 3.28 5.419h0.226c-0.377-2.332-0.573-6.307-0.573-11.918v-57.087l9.443 0.00025v81.053h-0.001z"/>
  <path d="m153.44 81.332h-42.96v-81.053l41.09 0.00025v8.5882l-31.6 0.0001v26.962h29.28v8.593h-29.28v28.316h33.47v8.593z"/>
  <path d="m218.59 8.8685h-23.34v72.464l-9.5 0.001v-72.464l-23.39-0.0005v-8.5922l56.23 0.00003v8.5922z"/>
 </g>
 <g transform="translate(.81013)">
  <path d="m88.499 20.689c9.165 28.026 12.641 78.022 39.441 78.022 2.04 0 4.1-0.2 6.17-0.594-24.36-5.68-27.25-55.132-42.118-80.741-1.166 1.059-2.323 2.163-3.493 3.313" fill="url(#linearGradient-1)"/>
  <path d="m91.992 17.376c14.868 25.609 17.758 75.061 42.118 80.741 1.91-0.351 3.83-0.883 5.75-1.554-21.87-10.714-27.91-58.735-44.793-81.854-1.022 0.851-2.048 1.743-3.075 2.667" fill="url(#linearGradient-2)"/>
  <path d="m113.41 2.1455c-2.04 0-4.1 0.1995-6.17 0.5931-5.43 1.0224-10.936 3.3574-16.489 6.8909 1.517 1.4965 2.96 3.2105 4.318 5.0795 5.651-4.687 11.261-8.1507 16.851-10.232 2.1-0.7775 4.19-1.3621 6.28-1.7465-1.51-0.3849-3.1-0.585-4.79-0.585" fill="#14559A"/>
  <path d="m156.93 86.687c2.24-1.779 4.48-3.746 6.72-5.893-9.31-27.896-12.64-78.607-39.63-78.607-1.93-0.0003-3.87 0.1796-5.82 0.5395 24.59 6.1142 27.73 59.598 38.73 83.96" fill="url(#linearGradient-3)"/>
  <path d="m118.2 2.7284c-1.51-0.3844-3.1-0.5846-4.79-0.5846l10.61 0.0389c-1.93 0-3.87 0.18-5.82 0.5441" fill="#3092C4"/>
  <path d="m156.46 92.613c-1.06-1.006-2.06-2.11-3.04-3.288-4.54 3.214-9.07 5.652-13.56 7.238 1.6 0.782 3.28 1.362 5.06 1.722 1.37 0.282 2.8 0.426 4.3 0.426 5.04 0 9.03-0.597 12.43-2.225-1.87-1.01-3.59-2.319-5.19-3.873" fill="#1969BC"/>
  <path d="m111.92 4.4811c22.02 11.516 23.93 63.668 41.5 84.844 1.18-0.83 2.34-1.71 3.51-2.638-11-24.362-14.14-77.851-38.72-83.96v-0.0005c-2.1 0.3926-4.2 0.9737-6.29 1.7546" fill="url(#linearGradient-4)"/>
  <path d="m95.067 14.709c16.883 23.119 22.923 71.14 44.793 81.854 4.5-1.586 9.02-4.024 13.56-7.238-17.57-21.176-19.48-73.328-41.5-84.844v0.0001c-5.59 2.0775-11.2 5.5409-16.853 10.228" fill="url(#linearGradient-5)"/>
  <path d="m77.698 20.014c-2.646 5.983-5.349 13.847-8.617 24.112 6.499-9.157 12.977-17.046 19.418-23.437-0.887-2.728-1.84-5.243-2.867-7.485-2.634 2.016-5.288 4.286-7.934 6.81" fill="url(#linearGradient-6)"/>
  <path d="m87.979 11.479c-0.777 0.556-1.558 1.125-2.344 1.726 1.027 2.241 1.975 4.756 2.863 7.484 1.169-1.145 2.331-2.253 3.492-3.313-1.247-2.143-2.572-4.122-4.011-5.897" fill="#2B74B1"/>
  <path d="m90.751 9.6295c-0.925 0.5845-1.845 1.2025-2.773 1.8485 1.439 1.775 2.764 3.754 4.016 5.901 1.027-0.928 2.053-1.824 3.075-2.67-1.357-1.869-2.801-3.583-4.318-5.0795" fill="#125A9E"/>
  <path d="m240.94 0.011261c-12.46 48.025-38.47 86.598-60.27 96.323h-0.04c-0.4 0.18-0.79 0.344-1.18 0.503-0.05 0.033-0.1 0.037-0.14 0.056-0.12 0.046-0.23 0.082-0.34 0.128-0.05 0.032-0.1 0.043-0.15 0.062-0.19 0.066-0.37 0.121-0.55 0.193-0.07 0.033-0.15 0.053-0.22 0.079-0.08 0.032-0.18 0.062-0.27 0.088-0.08 0.032-0.17 0.056-0.26 0.092-0.08 0.032-0.16 0.046-0.23 0.078-0.16 0.046-0.31 0.085-0.47 0.141-0.07 0-0.13 0.035-0.2 0.053-0.1 0.032-0.21 0.055-0.31 0.085-0.08 0.032-0.14 0.043-0.22 0.059-0.11 0.032-0.23 0.062-0.34 0.088-0.15 0.032-0.28 0.062-0.42 0.092 0.99 0.364 2.02 0.548 3.12 0.548 20.68 0 41.53-37.056 76.03-98.679l-13.55 1.8474e-13 0.01 0.011261z" fill="url(#linearGradient-7)"/>
  <path d="m64.591 4.0944c0.013 0 0.029-0.0324 0.037-0.0324 0.017 0 0.042 0 0.05-0.0324h0.026c0.114-0.0389 0.22-0.0851 0.335-0.1276 0.029 0 0.045 0 0.066-0.0324 0.029 0 0.057-0.0324 0.086-0.0365 0.122-0.0389 0.245-0.085 0.36-0.1276h0.019c0.274-0.0817 0.528-0.1832 0.793-0.278 0.038 0 0.074-0.0324 0.119-0.0324 0.11-0.0357 0.225-0.0754 0.339-0.1014 0.054-0.0325 0.107-0.0325 0.156-0.0495 0.118-0.0356 0.233-0.0753 0.343-0.1014 0.05 0 0.094-0.0324 0.131-0.0356 0.38-0.1047 0.757-0.2029 1.137-0.2945 0.053 0 0.098-0.0324 0.155-0.0357 0.111-0.0324 0.213-0.0494 0.332-0.0656 0.049-0.0324 0.106-0.0324 0.163-0.0494 0.111-0.0324 0.217-0.0357 0.336-0.0624h0.077c0.229-0.0462 0.463-0.085 0.692-0.1276h0.139c0.11-0.0324 0.208-0.0356 0.319-0.0559 0.06 0 0.122-0.0324 0.18-0.0324 0.102 0 0.204-0.0324 0.306-0.0462 0.054 0 0.106 0 0.168-0.0324 0.241-0.0324 0.491-0.0453 0.744-0.0656-0.715-0.0688-1.452-0.1145-2.2-0.1145-23.286 0-55.37 43.207-69.822 99.165h2.7846c4.6254-8.252 8.7804-16.055 12.579-23.38 10.122-39.633 30.738-66.661 49.051-73.822" fill="url(#linearGradient-8)"/>
  <path d="m77.699 20.014c2.646-2.524 5.3-4.794 7.933-6.81-0.601-1.316-1.222-2.535-1.889-3.6517-2.131 2.5847-4.077 5.9957-6.044 10.462" fill="#0D82CA"/>
  <path d="m79.612 4.4219c1.521 1.276 2.883 3.0305 4.13 5.1327 0.393-0.4826 0.789-0.9285 1.202-1.3457-1.729-1.6153-3.598-2.9403-5.627-3.9382 0.082 0.0454 0.164 0.0819 0.249 0.1178 0 0 0.032 0.0324 0.046 0.0324" fill="#0D82CA"/>
  <path d="m15.54 77.915c21.234-40.917 31.294-66.813 49.051-73.823v0.0004c-18.309 7.1656-38.929 34.194-49.051 73.823" fill="url(#linearGradient-9)"/>
  <path d="m84.943 8.2079c-0.413 0.4214-0.805 0.8631-1.202 1.3457 0.666 1.1164 1.288 2.3314 1.893 3.6514 0.786-0.601 1.567-1.169 2.344-1.725-0.961-1.186-1.976-2.2864-3.035-3.2721" fill="#127BCA"/>
  <path d="m25.18 101.11c-0.131 0.03-0.262 0.03-0.385 0.04h-0.073c-0.111 0-0.226 0.04-0.328 0.04h-0.053c-0.266 0.03-0.528 0.03-0.781 0.05h-0.082c21.491-0.6 31.314-11.363 36.189-26.969 3.706-11.831 6.748-21.798 9.415-30.161-9.002 12.67-18.044 27.773-27.135 44.692-4.384 8.154-11.05 11.558-16.768 12.288" fill="url(#linearGradient-10)"/>
  <path d="m25.18 101.1c5.717-0.73 12.383-4.132 16.767-12.291 9.091-16.914 18.138-32.021 27.131-44.691 3.271-10.269 5.971-18.129 8.621-24.113-17.925 17.062-35.92 45.432-52.519 81.085" fill="url(#linearGradient-11)"/>
  <path d="m15.539 77.916c-3.799 7.324-7.9539 15.127-12.579 23.374h8.101c1.072-8.19 2.593-16.001 4.478-23.37" fill="#05A1E6"/>
  <path d="m71.454 2.326c-0.066 0-0.115 0.0324-0.172 0.0324-0.098 0.0324-0.2 0.0324-0.303 0.043-0.06 0-0.118 0-0.179 0.0324-0.111 0.0324-0.213 0.0356-0.32 0.0559-0.049 0-0.098 0-0.139 0.0324-0.233 0.0389-0.462 0.0818-0.691 0.121h-0.077c-0.119 0.0324-0.226 0.0494-0.336 0.0656-0.057 0.0324-0.114 0.0324-0.168 0.0454-0.11 0.0324-0.221 0.0462-0.327 0.0656-0.057 0.0324-0.102 0.0324-0.155 0.0357-0.381 0.0916-0.757 0.1898-1.137 0.2945-0.041 0-0.082 0.0324-0.131 0.0388-0.114 0.0324-0.225 0.0657-0.344 0.1015-0.049 0.0324-0.106 0.0324-0.155 0.0453-0.114 0.0324-0.229 0.0657-0.339 0.1015-0.045 0-0.082 0.0324-0.123 0.0324-0.262 0.0981-0.519 0.1963-0.789 0.2781-0.115 0.0356-0.238 0.0817-0.36 0.1243-0.05 0.0324-0.094 0.0397-0.151 0.0623-0.115 0.0357-0.229 0.0819-0.336 0.1244-0.04 0.0324-0.082 0.0356-0.11 0.0526-17.757 7.0099-27.818 32.905-49.051 73.822-1.885 7.37-3.411 15.181-4.478 23.377h1.137c3.202 0 4.106-0.04 7.79-0.04h0.189 0.548 0.188 0.053 0.188 0.106 0.074 0.147 0.458 0.458 0.385 0.102 0.675c0.253-0.03 0.515-0.03 0.781-0.05h0.049c0.11 0 0.221-0.03 0.327-0.03h0.078c0.118 0 0.253-0.03 0.384-0.05 16.6-35.652 34.594-64.022 52.519-81.084 1.971-4.465 3.914-7.876 6.041-10.457v0.0004c-1.244-2.102-2.606-3.8605-4.127-5.1368 0 0-0.041 0-0.044-0.0324-0.087-0.0357-0.168-0.0786-0.254-0.1211-0.086-0.0461-0.16-0.0818-0.249-0.1276-0.078-0.0324-0.168-0.0753-0.246-0.1177-0.106-0.0324-0.192-0.0786-0.286-0.1212-0.078-0.0324-0.147-0.0656-0.225-0.0981-0.16-0.0623-0.319-0.1276-0.47-0.1963-0.07-0.0324-0.135-0.0494-0.201-0.0753-0.11-0.0397-0.237-0.0916-0.352-0.1407-0.057-0.0324-0.122-0.0389-0.188-0.0624-0.167-0.0559-0.331-0.1145-0.486-0.1669h-0.041c-0.188-0.0624-0.372-0.1079-0.564-0.1603-0.045-0.0324-0.082-0.0324-0.127-0.0389-0.168-0.0462-0.315-0.0916-0.474-0.1342-0.041 0-0.078-0.0324-0.111-0.0324-0.384-0.1014-0.781-0.1831-1.182-0.2584-0.041 0-0.081-0.0324-0.122-0.0324-0.172-0.0324-0.34-0.0624-0.511-0.0818-0.042-0.0324-0.066-0.0324-0.102-0.0324-0.205-0.0324-0.405-0.0559-0.606-0.0786h-0.106c-0.164-0.0324-0.315-0.0356-0.466-0.0527-0.258 0.0324-0.503 0.0462-0.745 0.0689" fill="url(#linearGradient-12)"/>
  <path d="m192.29 26.598c-4.08 13.087-7.39 23.883-10.27 32.766 11.21-15.426 22.25-34.832 32.77-57.226v-0.0001c-12.27 3.8521-18.81 12.67-22.5 24.46" fill="url(#linearGradient-13)"/>
  <path d="m182.38 95.516c-0.58 0.292-1.15 0.569-1.71 0.818 21.8-9.725 47.81-48.298 60.27-96.323l-2.53 0.000261c-28.61 51.108-37.81 85.322-56.03 95.505" fill="url(#linearGradient-14)"/>
  <path d="m168.14 91.223c4.74-5.791 8.61-15.635 13.88-31.859-6.08 8.36-12.21 15.545-18.34 21.406 0 0.032 0 0.032-0.03 0.052 1.34 4.008 2.8 7.545 4.48 10.4" fill="#079AE1"/>
  <path d="m168.14 91.223c-1.62 1.971-3.33 3.472-5.23 4.584-0.42 0.242-0.84 0.47-1.27 0.679 2.01 1.084 4.2 1.808 6.66 2.098 0.36 0.036 0.71 0.069 1.09 0.095h0.06c0.17 0 0.34 0 0.52 0.032h0.08 0.53 0.58 0.18 0.41c0.06 0 0.13 0 0.2-0.032 0.13 0 0.26 0 0.39-0.033h0.05 0.14c0.14 0 0.29-0.032 0.43-0.046h0.03c0.04 0 0.09-0.032 0.13-0.032 0.15-0.033 0.31-0.046 0.46-0.069h0.13c0.17-0.032 0.34-0.053 0.51-0.085h0.03 0.05c0.35-0.066 0.68-0.131 1.02-0.216-2.81-1.031-5.17-3.46-7.2-6.92" fill="#1969BC"/>
  <path d="m127.94 98.711c2.04 0 4.1-0.199 6.17-0.597 1.91-0.347 3.83-0.879 5.75-1.55 1.6 0.781 3.28 1.362 5.05 1.722 1.38 0.281 2.81 0.425 4.31 0.425h-21.28z" fill="#1E5CB3"/>
  <path d="m149.22 98.711c5.04 0 9.03-0.597 12.42-2.225 2.01 1.084 4.2 1.808 6.66 2.099 0.36 0.035 0.71 0.068 1.09 0.094h0.06c0.17 0 0.34 0 0.52 0.033h0.08 0.54-21.38l0.01-0.001z" fill="#1E5CB3"/>
  <path d="m170.6 98.711h0.58 0.18 0.4c0.07 0 0.14 0 0.2-0.032 0.13 0 0.27 0 0.4-0.033h0.04 0.15c0.14 0 0.29-0.032 0.43-0.045h0.03c0.04 0 0.09-0.032 0.13-0.032 0.15-0.033 0.31-0.046 0.45-0.069 0.05 0 0.09 0 0.14-0.033 0.17-0.032 0.34-0.049 0.51-0.081h0.04 0.05c0.34-0.066 0.68-0.131 1.01-0.216 0.99 0.364 2.02 0.548 3.12 0.548l-7.86 0.032v-0.039z" fill="#1D60B5"/>
  <path d="m163.66 80.823v-0.033c-2.24 2.147-4.49 4.115-6.72 5.893-1.17 0.929-2.34 1.808-3.52 2.638 0.99 1.178 1.99 2.282 3.05 3.289 1.6 1.553 3.31 2.862 5.18 3.872 0.43-0.209 0.85-0.438 1.27-0.679 1.9-1.112 3.61-2.613 5.23-4.584-1.68-2.855-3.14-6.392-4.48-10.4" fill="#175FAB"/>
  <path d="m230.42 0.011261h-10.61-1.05-1-0.04c-0.69 0.032405-1.35 0.055898-2.01 0.098189-0.31 0.66681-0.63 1.3336-0.94 2.0042v0.0001c-10.51 22.394-21.55 41.8-32.76 57.226-5.27 16.223-9.14 26.067-13.89 31.858 2.03 3.46 4.39 5.893 7.2 6.924 0.08-0.033 0.14-0.033 0.22-0.05h0.04c0.05 0 0.1-0.032 0.16-0.032 0.11-0.033 0.24-0.053 0.35-0.088 0.07-0.033 0.13-0.036 0.21-0.06 0.1-0.032 0.21-0.055 0.31-0.081 0.07-0.033 0.13-0.043 0.2-0.056 0.16-0.053 0.31-0.092 0.47-0.141 0.07-0.032 0.15-0.059 0.23-0.079 0.09-0.032 0.18-0.055 0.26-0.094 0.09-0.033 0.19-0.05 0.27-0.085 0.07-0.033 0.15-0.053 0.22-0.082 0.19-0.066 0.37-0.121 0.55-0.193 0.05 0 0.1-0.046 0.15-0.056 0.11-0.046 0.23-0.082 0.34-0.131 0.04-0.033 0.09-0.036 0.14-0.053 0.38-0.16 0.78-0.324 1.18-0.503h0.04c0.56-0.248 1.14-0.527 1.7-0.818 18.23-10.183 27.43-44.397 56.04-95.505v0.00023h-7.99l0.01-0.003969z" fill="url(#linearGradient-15)"/>
  <path d="m72.199 2.257c0.045 0 0.086 0 0.131 0.0324 0.11 0 0.221 0 0.331 0.0357h0.111c0.2 0.0324 0.4 0.0494 0.605 0.0785 0.037 0 0.07 0 0.102 0.0325 0.168 0.0324 0.339 0.0591 0.511 0.085 0.037 0 0.086 0.0324 0.127 0.0324 0.393 0.0786 0.794 0.1603 1.178 0.2618 0.036 0 0.074 0.0324 0.106 0.0324 0.164 0.0389 0.311 0.0883 0.475 0.1341 0.049 0 0.085 0.0324 0.131 0.0396 0.192 0.0495 0.372 0.0982 0.56 0.1604 0.008 0 0.019 0 0.041 0.0324 0.159 0.0486 0.323 0.1112 0.491 0.1668 0.066 0.0324 0.127 0.0462 0.188 0.0624 0.115 0.0494 0.242 0.0981 0.352 0.1439 0.065 0 0.131 0.0454 0.2 0.0689 0.151 0.0688 0.311 0.1308 0.466 0.1963 0.082 0.0324 0.151 0.0688 0.229 0.0981 0.09 0.0462 0.184 0.0884 0.282 0.1211 0.082 0.0389 0.172 0.0817 0.25 0.1177 0.086 0.0462 0.167 0.0818 0.249 0.1276 2.029 0.9979 3.898 2.3272 5.628 3.9385 0.638-0.6707 1.304-1.272 1.995-1.8118-3.783-2.6828-8.069-4.2124-13.013-4.2124-0.573 0-1.145 0.0324-1.726 0.0754" fill="#7DCBEC"/>
  <path d="m84.943 8.2079c1.059 0.9854 2.074 2.0861 3.035 3.2721 0.928-0.647 1.848-1.268 2.772-1.8489-1.21-1.2106-2.486-2.2984-3.815-3.2351-0.691 0.5359-1.354 1.1412-1.992 1.8119" fill="#5EC5ED"/>
  <path transform="translate(86.228 4.2705) scale(1 -1) translate(-86.228 -4.2705)" d="m72.198 6.2846c0.581 0.0491 1.153 0.0696 1.726 0.0696 4.944 0 9.23-1.5296 13.013-4.2083 3.992 3.149 8.817 4.2492 15.523 4.2492h-32.462c0.748 0 1.48-0.045 2.2-0.1105" fill="url(#linearGradient-16)"/>
  <path transform="translate(100.17 5.8879) scale(1 -1) translate(-100.17 -5.8879)" d="m102.46 9.63c-6.706 0-11.531-1.1002-15.523-4.2492 1.325-0.9365 2.601-2.0243 3.812-3.2349 5.557 3.5335 11.061 5.8727 16.491 6.8951 2.07 0.3886 4.13 0.589 6.17 0.589h-10.95z" fill="url(#linearGradient-17)"/>
  <path d="m182.02 59.372c2.88-8.891 6.18-19.683 10.28-32.774 3.69-11.795 10.22-20.612 22.48-24.46 0.33-0.6587 0.63-1.3376 0.95-2.0043-20 1.1984-29.34 11.369-34.04 26.431-8.23 26.296-13.21 43.342-18.01 54.204 6.13-5.856 12.26-13.046 18.34-21.397" fill="url(#linearGradient-18)"/>
  <path d="m211.35 91.706h-2.26v7.043h-0.93v-7.043h-2.27v-0.838h5.46v0.838z"/>
  <path d="m220.63 98.747h-0.92v-5.292c0-0.417 0.03-0.928 0.08-1.529-0.1 0.36-0.18 0.609-0.25 0.769l-2.68 6.052h-0.45l-2.69-6.007c-0.08-0.167-0.16-0.438-0.24-0.814h-0.04c0.04 0.317 0.05 0.83 0.05 1.542v5.279h-0.89v-7.88h1.22l2.42 5.5c0.18 0.413 0.3 0.732 0.35 0.945h0.04c0.16-0.434 0.29-0.757 0.38-0.969l2.47-5.476h1.16v7.88h-0.01z"/>
 </g>
</svg>
