<?xml version="1.0"?>
<svg width="120" height="60" xmlns="http://www.w3.org/2000/svg" xmlns:svg="http://www.w3.org/2000/svg" version="1.1">

 <metadata id="metadata3481">image/svg+xml</metadata>
 <g class="layer">
  <title>Layer 1</title>
  <g id="layer1">
   <g id="g29">
    <path d="m52.72,18.2l17.29,0l0,7.23l-10.06,0l0,7.23l10.06,0l0,7.23l-17.29,0l0,-21.69z" fill="#ffffff" id="path2999" stroke-width="0.31"/>
    <path d="m73.46,18.2l17.29,0l0,6.28l-10.06,0l0,1.26l10.06,0l0,14.46l-17.29,0l0,-6.6l10.06,0l0,-1.26l-10.06,0l0,-14.14z" fill="#ffffff" id="path3001" stroke-width="0.31"/>
    <path d="m94.21,18.2l17.29,0l0,6.28l-10.06,0l0,1.26l10.06,0l0,14.46l-17.29,0l0,-6.6l10.06,0l0,-1.26l-10.06,0l0,-14.14z" fill="#ffffff" id="path3003" stroke-width="0.31"/>
   </g>
   <g id="g37" transform="matrix(0.604006 0 0 0.604006 83.2357 307.268)">
    <polygon fill="#264de4" id="polygon2989" points="-1419.4293328179253,-6424.6476664225265 -1567.9723473442925,-6383.466666666667 -1716.1063500298394,-6424.589652506511 -1749.117343987359,-6794.846663920085 -1386.383342827691,-6794.846663920085 " transform="matrix(0.175781 0 0 0.175781 180.514 698.362)"/>
    <polygon fill="#2965f1" id="polygon2991" points="-1567.7503472222222,-6414.943656412761 -1447.7203484429253,-6448.2206644694015 -1419.4803582085503,-6764.572669474284 -1567.7503472222222,-6764.572669474284 " transform="matrix(0.175781 0 0 0.175781 180.514 698.362)"/>
    <polygon fill="#ebebeb" id="polygon2993" points="-1567.7503472222222,-6627.24965616862 -1673.4403496636285,-6627.24965616862 -1669.3703423394097,-6581.839652506511 -1567.7503472222222,-6581.839652506511 " transform="matrix(0.175781 0 0 0.175781 180.514 698.362)"/>
    <polygon fill="#ebebeb" id="polygon2995" points="-1567.9073449028863,-6719.161673990886 -1681.6183434380425,-6719.161673990886 -1677.4903527153863,-6673.750663248698 -1567.7503472222222,-6673.750663248698 -1567.7503472222222,-6719.161673990886 " transform="matrix(0.175781 0 0 0.175781 180.514 698.362)"/>
    <polygon fill="#ebebeb" id="polygon2997" points="-1567.9493523491753,-6509.260673014323 -1618.5233422173394,-6522.916678873698 -1621.7563439263238,-6559.133658854167 -1646.331340874566,-6559.133658854167 -1667.341350640191,-6559.133658854167 -1660.9793511284722,-6487.83266398112 -1567.9593468560113,-6462.009665934245 -1567.7503472222222,-6462.067679850261 -1567.7503472222222,-6509.313651529948 " transform="matrix(0.175781 0 0 0.175781 180.514 698.362)"/>
    <polygon fill="#ffffff" id="polygon3005" points="-1503.9193535698785,-6673.750663248698 -1508.051342095269,-6627.24965616862 -1567.9073449028863,-6627.24965616862 -1567.9073449028863,-6581.839652506511 -1511.9893608940972,-6581.839652506511 -1517.2603569878472,-6522.945670572917 -1567.9073449028863,-6509.275657145183 -1567.9073449028863,-6462.031669108073 -1474.8133355034722,-6487.83266398112 -1474.1303521050347,-6495.504661051433 -1463.4593621148003,-6615.05565592448 -1462.351360405816,-6627.24965616862 -1454.153362358941,-6719.161673990886 -1567.9073449028863,-6719.161673990886 -1567.9073449028863,-6673.750663248698 " transform="matrix(0.175781 0 0 0.175781 180.514 698.362)"/>
   </g>
  </g>
 </g>
</svg>