<?xml version="1.0"?>
<svg width="120" height="60" xmlns="http://www.w3.org/2000/svg" xmlns:svg="http://www.w3.org/2000/svg" xmlns:xlink="http://www.w3.org/1999/xlink">
 <defs>
  <clipPath id="A">
   <path d="m0,216l216,0l0,-216l-216,0l0,216z" id="svg_1"/>
  </clipPath>
  <clipPath id="B">
   <path d="m121.72,55.66c0.35,1.11 0.4,2.83 -3.03,2.05c0,0 -9.4,-1.34 -9.85,-12.3l-0.21,-21l-2.26,0l-0.21,21c-0.45,10.96 -9.84,12.3 -9.84,12.3c-3.43,0.78 -3.39,-0.93 -3.04,-2.05c-3.37,5.74 -12.4,5 -12.4,5c-3.13,-1.12 -0.22,-3.13 -0.22,-3.13c4.92,-1.79 5.37,-7.16 5.37,-7.16l0,-15.17l0.52,-11.73c1.12,-5.22 3.87,-8.31 6.58,-10.13l28.8,0.04c3.48,2.36 7.05,6.84 7.05,15.3l0,21.69s0.44,5.37 5.37,7.16c0,0 2.9,2.01 -0.23,3.13c0,0 -0.38,0.03 -1.02,0.03c-2.45,0 -8.7,-0.47 -11.37,-5.03m-27.2,-21.62l0,16.55c0,1.62 -0.28,2.98 -0.77,4.12c3.24,-2.52 3.45,-8.85 3.45,-8.85l0,-20.66c-3.22,2.28 -2.68,8.84 -2.68,8.84m23.27,11.82s0.22,6.33 3.46,8.86c-0.49,-1.15 -0.78,-2.51 -0.78,-4.12l0,-16.56s0.54,-6.1 -2.68,-8.61l0,20.43z" id="svg_2"/>
  </clipPath>
  <clipPath id="C">
   <path d="m0,216l216,0l0,-216l-216,0l0,216z" id="svg_3"/>
  </clipPath>
  <path d="m158.54,55c0,-9.73 -22.54,-17.62 -50.34,-17.62s-50.34,7.89 -50.34,17.62s22.54,17.62 50.34,17.62s50.34,-7.9 50.34,-17.62" id="D"/>
  <path d="m75.28,93.68c0,-0.56 -0.65,-1.01 -1.45,-1.01s-1.46,0.45 -1.46,1.01s0.65,1 1.46,1s1.45,-0.45 1.45,-1" id="E"/>
 </defs>
 <g class="layer">
  <title>Layer 1</title>
  <g id="svg_4" transform="matrix(.198578 0 0 -.198578 -.187848 52.8501)">
   <g clip-path="url(#C)" id="svg_5">
    <use fill="#a0dcf2" id="svg_6" xlink:href="#D"/>
   </g>
   <g clip-path="url(#B)" id="svg_7">
    <use fill="#82bde7" id="svg_8" xlink:href="#D"/>
   </g>
   <g clip-path="url(#A)" id="svg_9">
    <path d="m50.7,106.8l-1.45,-5.06s-0.38,-1.83 1.34,-2.16c1.8,0.04 1.66,1.72 1.53,2.27l-1.42,4.95z" fill="#a0dcf2" id="svg_10"/>
    <path d="m197.04,128.03l0.14,0.65c-14.77,2.96 -29.93,2.99 -39.1,2.61c1.5,5.42 1.96,11.67 1.96,18.63c0,9.99 -3.76,17.97 -9.85,24.05c1.07,3.44 2.49,11.07 -1.42,20.84c0,0 -6.9,2.18 -22.47,-8.25c-6.11,1.53 -12.61,2.28 -19.12,2.28c-7.16,0 -14.39,-0.91 -21.14,-2.76c-16.08,10.98 -23.18,8.73 -23.18,8.73c-4.64,-11.6 -1.77,-20.17 -0.9,-22.3c-5.45,-5.88 -8.78,-13.39 -8.78,-22.59c0,-6.95 0.79,-13.18 2.73,-18.59c-9.25,0.33 -23.85,0.2 -38.1,-2.64l0.13,-0.66c14.32,2.86 29.02,2.96 38.2,2.62c0.42,-1.12 0.9,-2.2 1.43,-3.26c-9.09,-0.3 -24.61,-1.45 -39.48,-5.65l0.18,-0.64c14.99,4.22 30.64,5.35 39.64,5.63c5.43,-10.12 16.14,-16.66 35.18,-18.7c-2.7,-1.82 -5.46,-4.91 -6.58,-10.13c-3.68,-1.76 -15.34,-6.07 -22.34,5.97c0,0 -3.91,7.16 -11.41,7.72c0,0 -7.27,0.1 -0.5,-4.53c0,0 4.87,-2.3 8.22,-10.9c0,0 4.38,-14.7 25.51,-9.99l0,-15.17s-0.44,-5.37 -5.37,-7.16c0,0 -2.9,-2.02 0.23,-3.13c0,0 13.64,-1.12 13.64,10.06l0,16.55s-0.54,6.57 2.69,8.85l0,-27.21s-0.23,-6.48 -3.58,-8.95c0,0 -2.24,-4.02 2.68,-2.9c0,0 9.4,1.34 9.84,12.3l0.22,27.51l2.26,0l0.21,-27.51c0.45,-10.96 9.84,-12.3 9.84,-12.3c4.92,-1.12 2.69,2.91 2.69,2.91c-3.36,2.46 -3.58,8.94 -3.58,8.94l0,26.96c3.22,-2.5 2.68,-8.62 2.68,-8.62l0,-16.55c0,-11.18 13.65,-10.06 13.65,-10.06c3.13,1.11 0.22,3.13 0.22,3.13c-4.92,1.8 -5.37,7.15 -5.37,7.15l0,21.7c0,8.46 -3.56,12.94 -7.05,15.31c20.3,2.01 30.06,8.57 34.55,18.76c8.9,-0.24 24.91,-1.33 40.22,-5.65l0.18,0.65c-15.22,4.29 -31.13,5.4 -40.11,5.66c0.42,1.03 0.79,2.1 1.12,3.2c9.11,0.4 24.33,0.39 39.16,-2.58" fill="#292929" id="svg_11"/>
    <path d="m140.18,150.4c4.37,-3.96 6.93,-8.75 6.93,-13.9c0,-24.08 -17.95,-24.73 -40.08,-24.73s-40.09,3.32 -40.09,24.72c0,5.12 2.52,9.87 6.84,13.82c7.21,6.58 19.41,3.1 33.25,3.1c13.78,0 25.93,3.51 33.15,-3.02" fill="#f5cdb5" id="svg_12"/>
    <path d="m93.7,135.26c0,-6.63 -3.74,-12.01 -8.34,-12.01s-8.34,5.38 -8.34,12.01s3.73,12 8.34,12s8.34,-5.37 8.34,-12" fill="#fff" id="svg_13"/>
    <path d="m91.02,135.11c0,-4.42 -2.5,-8 -5.56,-8s-5.56,3.58 -5.56,8s2.49,8 5.56,8s5.56,-3.58 5.56,-8" fill="#b1645a" id="svg_14"/>
    <path d="m138.44,135.26c0,-6.63 -3.73,-12.01 -8.34,-12.01s-8.34,5.38 -8.34,12.01s3.74,12 8.34,12s8.34,-5.37 8.34,-12" fill="#fff" id="svg_15"/>
    <path d="m135.77,135.11c0,-4.42 -2.5,-8 -5.56,-8s-5.56,3.58 -5.56,8s2.5,8 5.56,8s5.56,-3.58 5.56,-8m-26.54,-10.5c0,-1.16 -0.93,-2.09 -2.09,-2.09s-2.08,0.93 -2.08,2.09s0.93,2.08 2.08,2.08s2.09,-0.93 2.09,-2.08m-6.95,-5.28a0.67,0.67 0 1 0 1.27,0.45c0.54,-1.52 1.97,-2.53 3.58,-2.53s3.04,1.01 3.57,2.53a0.67,0.67 0 1 0 1.27,-0.45a5.15,5.15 0 0 0 -9.69,0" fill="#b1645a" id="svg_16"/>
    <g fill="#c5e6da" id="svg_17">
     <path d="m56.04,109.78c0,-0.55 -0.65,-1 -1.45,-1s-1.46,0.45 -1.46,1s0.65,1.01 1.46,1.01s1.45,-0.45 1.45,-1.01m4.03,-2.23c0,-0.56 -0.65,-1.01 -1.46,-1.01s-1.45,0.45 -1.45,1.01s0.65,1.01 1.45,1.01s1.46,-0.45 1.46,-1.01m2.46,-2.9c0,-0.56 -0.65,-1.01 -1.45,-1.01s-1.46,0.45 -1.46,1.01s0.65,1.01 1.46,1.01s1.45,-0.45 1.45,-1.01m2.24,-3.36c0,-0.55 -0.66,-1.01 -1.46,-1.01s-1.45,0.45 -1.45,1.01s0.65,1.01 1.45,1.01s1.46,-0.45 1.46,-1.01m2.46,-3.14c0,-0.56 -0.65,-1.01 -1.46,-1.01s-1.45,0.45 -1.45,1.01s0.65,1.01 1.45,1.01s1.46,-0.45 1.46,-1.01m3.35,-2.68c0,-0.56 -0.65,-1.01 -1.45,-1.01s-1.45,0.45 -1.45,1.01s0.65,1 1.45,1s1.45,-0.45 1.45,-1" id="svg_18"/>
     <use id="svg_19" xlink:href="#E"/>
     <use id="svg_20" x="4.68" xlink:href="#E"/>
     <path d="m84.7,94.45c0,-0.55 -0.65,-1 -1.45,-1s-1.45,0.45 -1.45,1s0.65,1.01 1.45,1.01s1.45,-0.45 1.45,-1.01" id="svg_21"/>
    </g>
   </g>
  </g>
  <path d="m50.67,21.14c1.1,0 2.35,-0.27 3.78,-0.82l0,3.52c-0.32,0.11 -0.77,0.24 -1.36,0.37c0.18,0.53 0.27,1.02 0.27,1.47c0,1.45 -0.44,2.73 -1.33,3.82a5.13,5.13 0 0 1 -3.38,1.9c-0.9,0.14 -1.36,0.62 -1.36,1.47c0,0.29 0.15,0.6 0.44,0.88c0.39,0.43 0.96,0.71 1.71,0.82c3.25,0.5 4.88,1.85 4.88,4.06c0,3.52 -2.11,5.28 -6.3,5.28c-1.73,0 -3.15,-0.3 -4.27,-0.92c-1.4,-0.77 -2.11,-2 -2.11,-3.65c0,-1.9 1.06,-3.21 3.17,-3.92l0,-0.07c-0.77,-0.47 -1.16,-1.2 -1.16,-2.18c0,-1.27 0.36,-2.07 1.1,-2.38l0,-0.07c-0.73,-0.25 -1.38,-0.82 -1.95,-1.71c-0.63,-0.95 -0.95,-1.98 -0.95,-3.07c0,-1.64 0.58,-3 1.74,-4.09a5.7,5.7 0 0 1 4,-1.53a6.15,6.15 0 0 1 3.1,0.81m-5.11,4.85c0,1.57 0.71,2.35 2.15,2.35c1.38,0 2.08,-0.8 2.08,-2.39c0,-0.66 -0.16,-1.23 -0.48,-1.7c-0.39,-0.53 -0.92,-0.79 -1.6,-0.79c-1.44,0 -2.15,0.84 -2.15,2.53m5.25,13.09c0,-1.16 -0.96,-1.74 -2.87,-1.74c-1.84,0 -2.76,0.6 -2.76,1.81c0,1.18 1,1.77 3,1.77c1.75,0 2.63,-0.61 2.63,-1.84m7.47,-21.23c-0.66,0 -1.23,-0.25 -1.71,-0.75a2.55,2.55 0 0 1 -0.68,-1.78c0,-0.7 0.23,-1.3 0.68,-1.8c0.48,-0.5 1.05,-0.75 1.71,-0.75c0.64,0 1.18,0.25 1.64,0.75c0.47,0.5 0.71,1.1 0.71,1.8a2.48,2.48 0 0 1 -0.71,1.78c-0.46,0.5 -1,0.75 -1.64,0.75m-1.94,17.8c0.04,-0.46 0.06,-1.23 0.06,-2.32l0,-10.61l-0.06,-2.21l3.84,0c-0.04,0.43 -0.07,1.14 -0.07,2.14l0,10.47l0.07,2.53l-3.85,0m11,-15.14l2.96,0l0,3.3a9.98,9.98 0 0 1 -0.64,-0.03l-0.86,-0.03l-1.46,0l0,6.34c0,1.52 0.5,2.28 1.5,2.28a3.32,3.32 0 0 0 1.91,-0.58l0,3.4c-0.84,0.46 -1.86,0.69 -3.04,0.69c-1.66,0 -2.81,-0.6 -3.44,-1.78c-0.48,-0.89 -0.72,-2.28 -0.72,-4.19l0,-6.11l0.04,0l0,-0.06l-0.52,-0.04a8.61,8.61 0 0 0 -1.16,0.1l0,-3.3l1.67,0l0,-1.33c0,-0.64 -0.03,-1.15 -0.1,-1.54l3.96,0c-0.07,0.43 -0.1,0.92 -0.1,1.47l0,1.39m12.1,-0.09c-0.98,0 -2,0.34 -3.07,1.03l0,-5.97l0.06,-2.56l-3.88,0c0.06,0.36 0.1,1.22 0.1,2.56l0,18.04l-0.1,2.15l3.95,0c0,-0.07 -0.02,-0.34 -0.07,-0.82l-0.06,-1.33l0,-8.39c0.79,-0.75 1.57,-1.12 2.32,-1.12c0.86,0 1.52,0.43 1.97,1.29c0.34,0.68 0.52,1.54 0.52,2.56l-0.04,4.6c0,0.78 -0.06,1.84 -0.17,3.21l4.13,0c-0.1,-0.57 -0.14,-1.61 -0.14,-3.14l0,-4.67c0,-1.98 -0.44,-3.66 -1.33,-5.05c-1,-1.6 -2.4,-2.38 -4.19,-2.38m13.1,15.37c-1.8,0 -3.13,-0.79 -4,-2.38c-0.68,-1.3 -1.02,-3 -1.02,-5.08l0,-4.68l-0.14,-3.13l4.09,0c-0.06,0.5 -0.11,1.57 -0.13,3.2l-0.04,4.61c0,1.29 0.15,2.23 0.45,2.79c0.34,0.71 0.96,1.06 1.87,1.06c0.64,0 1.35,-0.37 2.15,-1.12l0,-8.4a14.89,14.89 0 0 0 -0.07,-1.33l-0.07,-0.82l3.96,0c-0.05,0.38 -0.07,1.1 -0.07,2.15l0,10.44l0.07,2.56l-3.7,0l0,-1.24c-1.05,0.9 -2.16,1.36 -3.34,1.36m16.77,-0.03a4,4 0 0 1 -3.07,-1.33l0,1.23l-3.62,0c0.07,-0.39 0.11,-1.11 0.11,-2.15l0,-18.03l-0.11,-2.56l3.89,0c-0.04,0.4 -0.07,1.26 -0.07,2.56l0,5.93c1.05,-0.66 2.07,-1 3.07,-1c1.8,0 3.21,0.8 4.23,2.39c0.87,1.39 1.3,3.07 1.3,5.05c0,2.02 -0.45,3.78 -1.36,5.28c-1.1,1.75 -2.55,2.63 -4.37,2.63m-0.51,-11.77c-0.75,0 -1.54,0.38 -2.35,1.13l0,5.91c0.72,0.7 1.44,1.06 2.14,1.06c0.89,0 1.56,-0.5 2.02,-1.47c0.36,-0.77 0.54,-1.69 0.54,-2.76c0,-2.57 -0.78,-3.85 -2.35,-3.85" fill="#ffffff" id="svg_22"/>
 </g>
</svg>