<?xml version="1.0"?>
<svg width="240" height="60" xmlns="http://www.w3.org/2000/svg" xmlns:svg="http://www.w3.org/2000/svg">
 <g class="layer">
  <title>Layer 1</title>
  <path d="m17.17,38.37c0,-1.8 -0.62,-3.1 -1.85,-3.86c-1.21,-0.77 -2.99,-1.15 -5.32,-1.15l0,-6.7c1.16,0 2.18,-0.08 3.08,-0.25c0.91,-0.19 1.68,-0.48 2.3,-0.87c0.61,-0.4 1.07,-0.93 1.37,-1.57c0.31,-0.63 0.45,-1.4 0.42,-2.29l0,-8.91c0,-1.38 0.17,-2.55 0.53,-3.52c0.35,-1 1,-1.8 1.9,-2.41c0.94,-0.64 2.2,-1.1 3.78,-1.4s3.6,-0.44 6.05,-0.44l0,6.3a13.85,13.85 0 0 0 -2.04,0.2c-0.6,0.11 -1.1,0.31 -1.54,0.61c-0.4,0.28 -0.73,0.67 -0.96,1.18s-0.33,1.16 -0.33,1.96l0,8.37c-0.11,3.5 -2.3,5.56 -6.55,6.21l0,0.34c2.14,0.32 3.8,1 4.92,2.02s1.68,2.41 1.63,4.17l0,8.37c0,0.8 0.11,1.45 0.33,1.96s0.54,0.89 0.96,1.17c0.43,0.3 0.94,0.51 1.54,0.62c0.61,0.11 1.29,0.17 2.04,0.19l0,6.33c-2.44,0 -4.46,-0.15 -6.05,-0.45s-2.84,-0.76 -3.78,-1.4c-0.91,-0.61 -1.55,-1.42 -1.9,-2.41s-0.53,-2.17 -0.53,-3.55l0,-8.82m209.04,8.82c0,1.38 -0.18,2.57 -0.53,3.55s-1,1.8 -1.94,2.41c-0.91,0.64 -2.16,1.1 -3.75,1.4s-3.59,0.45 -6.05,0.45l0,-6.33c0.75,-0.02 1.42,-0.08 2.02,-0.19s1.1,-0.32 1.51,-0.62c0.43,-0.28 0.76,-0.67 0.98,-1.17c0.25,-0.51 0.37,-1.16 0.37,-1.96l0,-8.37c-0.06,-1.76 0.48,-3.15 1.62,-4.17s2.77,-1.7 4.9,-2.02l0,-0.34c-4.24,-0.65 -6.4,-2.72 -6.52,-6.21l0,-8.37c0,-0.8 -0.12,-1.46 -0.37,-1.96a2.65,2.65 0 0 0 -0.98,-1.18c-0.4,-0.3 -0.91,-0.5 -1.51,-0.61a12.77,12.77 0 0 0 -2.01,-0.2l0,-6.3c2.44,0 4.46,0.15 6.04,0.45s2.84,0.76 3.75,1.4c0.94,0.61 1.58,1.42 1.93,2.41c0.36,0.97 0.54,2.14 0.54,3.52l0,8.91c-0.02,0.89 0.12,1.66 0.42,2.29s0.75,1.16 1.37,1.57c0.61,0.39 1.37,0.68 2.27,0.87c0.91,0.17 1.95,0.25 3.1,0.25l0,6.7c-2.33,0 -4.11,0.38 -5.34,1.15c-1.22,0.76 -1.82,2.05 -1.82,3.86l0,8.82" fill="#558" id="svg_1"/>
  <g id="svg_2" stroke="#000" stroke-width="2.13">
   <path d="m41.41,48.92c-0.64,0 -1.21,-0.04 -1.67,-0.13c-0.47,-0.07 -0.89,-0.18 -1.24,-0.32l0,-2.99a10.45,10.45 0 0 0 1.37,0.26a10.33,10.33 0 0 0 1.57,0.11a5.25,5.25 0 0 0 1.39,-0.18a3.07,3.07 0 0 0 1.27,-0.64c0.39,-0.31 0.7,-0.74 0.94,-1.3s0.35,-1.25 0.35,-2.09l0,-27.36l3.5,0l0,26.99c0,1.3 -0.18,2.45 -0.56,3.41c-0.36,0.96 -0.87,1.75 -1.53,2.37c-0.65,0.64 -1.44,1.11 -2.36,1.41c-0.9,0.31 -2.15,0.47 -3.27,0.47m25.12,-10.13l-0.15,0c-0.42,0.56 -0.83,1.05 -1.24,1.46a6.05,6.05 0 0 1 -1.35,0.99c-0.48,0.26 -1.03,0.46 -1.62,0.58s-1.3,0.19 -2.08,0.19c-0.86,0 -1.65,-0.13 -2.38,-0.38a5.04,5.04 0 0 1 -1.89,-1.1c-0.52,-0.5 -0.93,-1.15 -1.23,-1.9c-0.3,-0.77 -0.45,-1.68 -0.45,-2.73c0,-2.05 0.71,-3.62 2.15,-4.72c1.45,-1.1 3.64,-1.69 6.59,-1.79l3.44,-0.14l0,-1.3c0,-0.83 -0.09,-1.53 -0.28,-2.09c-0.17,-0.56 -0.44,-1 -0.79,-1.35c-0.33,-0.35 -0.76,-0.6 -1.27,-0.75c-0.5,-0.15 -1.07,-0.22 -1.72,-0.22a9.1,9.1 0 0 0 -2.9,0.45c-0.89,0.3 -1.74,0.66 -2.57,1.08l-1.19,-2.56c0.92,-0.5 1.95,-0.93 3.08,-1.28a12.09,12.09 0 0 1 3.58,-0.52c1.27,0 2.37,0.13 3.29,0.39c0.94,0.25 1.71,0.66 2.3,1.22c0.6,0.55 1.07,1.25 1.37,2.11s0.45,1.91 0.45,3.13l0,14.07l-2.46,0l-0.68,-2.84zm-5.56,0.46c0.76,0 1.47,-0.12 2.11,-0.36s1.2,-0.59 1.69,-1.07c0.47,-0.48 0.84,-1.09 1.1,-1.81c0.28,-0.74 0.41,-1.6 0.41,-2.58l0,-1.86l-2.67,0.14c-1.12,0.05 -2.07,0.17 -2.83,0.37s-1.37,0.48 -1.83,0.84a2.99,2.99 0 0 0 -0.97,1.29c-0.2,0.5 -0.3,1.07 -0.3,1.71c0,1.14 0.3,2 0.89,2.52c0.6,0.54 1.4,0.81 2.4,0.81m11.56,-18.16l3.52,0l3.72,11.43l0.49,1.6l0.56,1.98l0.5,1.9l0.32,1.37l0.13,0l0.32,-1.37l0.5,-1.9l0.56,-1.98l0.49,-1.6l3.72,-11.43l3.52,0l-7.02,20.54l-4.32,0l-7.01,-20.54zm32.27,17.7l-0.15,0c-0.41,0.56 -0.82,1.05 -1.24,1.46a6.05,6.05 0 0 1 -1.34,0.99c-0.49,0.26 -1.03,0.46 -1.63,0.58s-1.3,0.19 -2.08,0.19c-0.86,0 -1.65,-0.13 -2.37,-0.38a5.04,5.04 0 0 1 -1.89,-1.1c-0.53,-0.5 -0.94,-1.15 -1.24,-1.9c-0.3,-0.77 -0.45,-1.68 -0.45,-2.73c0,-2.05 0.72,-3.62 2.15,-4.72c1.45,-1.1 3.65,-1.69 6.59,-1.79l3.44,-0.14l0,-1.3c0,-0.83 -0.09,-1.53 -0.28,-2.09c-0.17,-0.56 -0.43,-1 -0.78,-1.35c-0.34,-0.35 -0.76,-0.6 -1.28,-0.75c-0.5,-0.15 -1.07,-0.22 -1.72,-0.22a9.1,9.1 0 0 0 -2.9,0.45c-0.88,0.3 -1.74,0.66 -2.56,1.08l-1.2,-2.56c0.92,-0.5 1.95,-0.93 3.09,-1.28a12.09,12.09 0 0 1 3.57,-0.52c1.27,0 2.37,0.13 3.3,0.39c0.93,0.25 1.7,0.66 2.3,1.22c0.6,0.55 1.06,1.25 1.36,2.11s0.45,1.91 0.45,3.13l0,14.07l-2.45,0l-0.69,-2.84zm-5.56,0.47c0.76,0 1.47,-0.12 2.12,-0.36s1.2,-0.59 1.68,-1.07c0.48,-0.48 0.84,-1.09 1.11,-1.81c0.27,-0.74 0.41,-1.6 0.41,-2.58l0,-1.86l-2.68,0.13c-1.12,0.05 -2.06,0.18 -2.82,0.38s-1.38,0.48 -1.84,0.84a2.99,2.99 0 0 0 -0.97,1.29c-0.2,0.5 -0.3,1.07 -0.3,1.7c0,1.15 0.3,2 0.9,2.53c0.6,0.54 1.4,0.81 2.39,0.81m29.69,-4.94c0,1.2 -0.21,2.29 -0.65,3.25c-0.42,0.95 -1.04,1.76 -1.83,2.42s-1.78,1.16 -2.92,1.51c-1.15,0.34 -2.44,0.51 -3.88,0.51c-1.38,0 -2.68,-0.12 -3.89,-0.34c-1.2,-0.21 -2.2,-0.53 -3.01,-0.95l0,-3.33l1.44,0.6l1.72,0.5l1.85,0.37a13.97,13.97 0 0 0 1.9,0.14c2,0 3.47,-0.38 4.42,-1.13c0.96,-0.75 1.44,-1.82 1.44,-3.22c0,-0.67 -0.1,-1.26 -0.28,-1.76c-0.18,-0.5 -0.5,-0.95 -0.96,-1.36c-0.45,-0.43 -1.05,-0.83 -1.81,-1.22c-0.76,-0.4 -1.72,-0.83 -2.88,-1.3c-1.1,-0.44 -2.08,-0.9 -2.9,-1.42c-0.8,-0.52 -1.49,-1.1 -2.02,-1.76a6.76,6.76 0 0 1 -1.18,-2.21c-0.25,-0.82 -0.38,-1.76 -0.38,-2.81c0,-1.09 0.2,-2.07 0.6,-2.93s0.96,-1.59 1.69,-2.17c0.72,-0.6 1.58,-1.06 2.58,-1.37s2.12,-0.47 3.33,-0.47c1.48,0 2.82,0.15 4,0.43c1.19,0.28 2.24,0.63 3.17,1.07l-1.26,2.92c-0.8,-0.36 -1.73,-0.67 -2.77,-0.94a12.24,12.24 0 0 0 -3.18,-0.41c-1.52,0 -2.7,0.36 -3.53,1.07c-0.84,0.7 -1.26,1.65 -1.26,2.84c0,0.7 0.1,1.33 0.28,1.86c0.19,0.51 0.5,0.98 0.94,1.4c0.43,0.41 1,0.8 1.72,1.18a31.19,31.19 0 0 0 2.66,1.16c1.13,0.45 2.12,0.9 2.97,1.38c0.86,0.48 1.58,1 2.15,1.6a5.89,5.89 0 0 1 1.29,2.08c0.3,0.79 0.46,1.75 0.46,2.83m12.67,7.65c-1.26,0 -2.44,-0.2 -3.54,-0.58a7.42,7.42 0 0 1 -2.86,-1.87c-0.8,-0.86 -1.45,-1.96 -1.9,-3.28c-0.47,-1.33 -0.7,-2.94 -0.7,-4.8c0,-1.96 0.24,-3.62 0.7,-4.98c0.48,-1.37 1.13,-2.48 1.95,-3.33c0.84,-0.86 1.8,-1.48 2.92,-1.87s2.3,-0.58 3.57,-0.58a12.69,12.69 0 0 1 2.85,0.32c0.93,0.21 1.71,0.48 2.34,0.79l-1,2.88a10.06,10.06 0 0 0 -0.96,-0.36a9.21,9.21 0 0 0 -1.08,-0.31a9.1,9.1 0 0 0 -1.11,-0.23c-0.36,-0.06 -0.7,-0.09 -1.03,-0.09c-1.96,0 -3.38,0.63 -4.28,1.9c-0.9,1.24 -1.35,3.19 -1.35,5.83c0,2.64 0.45,4.56 1.35,5.79c0.9,1.2 2.3,1.81 4.14,1.81c1,0 1.92,-0.11 2.73,-0.33c0.82,-0.24 1.57,-0.5 2.24,-0.83l0,3.03a9.08,9.08 0 0 1 -2.17,0.83c-0.76,0.18 -1.74,0.28 -2.85,0.28m18.59,-21.3l1.22,0.06a8.67,8.67 0 0 1 1.16,0.13l-0.45,3.14l-1.09,-0.15c-0.36,-0.05 -0.7,-0.07 -1.03,-0.07c-0.78,0 -1.5,0.16 -2.15,0.48c-0.65,0.32 -1.2,0.77 -1.68,1.37c-0.46,0.59 -0.83,1.3 -1.09,2.13c-0.25,0.83 -0.37,1.74 -0.37,2.75l0,11.08l-3.41,0l0,-20.54l2.77,0l0.41,3.76l0.15,0l1,-1.56a7.06,7.06 0 0 1 1.19,-1.3a5.43,5.43 0 0 1 1.5,-0.91c0.55,-0.24 1.23,-0.36 1.93,-0.36" fill="#ffffff" id="svg_3" stroke-width="0"/>
   <path d="m169.51,41.64l-3.41,0l0,-20.54l3.41,0l0,20.54m-3.11,-27.74c0.39,-0.34 0.86,-0.51 1.42,-0.51c0.28,0 0.53,0.05 0.77,0.14a1.49,1.49 0 0 1 0.63,0.37c0.19,0.18 0.34,0.4 0.44,0.67c0.11,0.27 0.16,0.58 0.16,0.96c0,0.72 -0.2,1.26 -0.6,1.63c-0.38,0.35 -0.85,0.52 -1.4,0.52c-0.56,0 -1.05,-0.26 -1.44,-0.61c-0.37,-0.35 -0.55,-0.89 -0.55,-1.59c0,-0.7 0.19,-1.24 0.57,-1.58z" fill="#ffffff" id="svg_4" stroke-linecap="square" stroke-width="0"/>
   <path d="m185.13,42.02c-0.74,0 -1.41,-0.08 -2.01,-0.25s-1.14,-0.37 -1.62,-0.63c-0.48,-0.28 -0.9,-0.59 -1.28,-0.96a9.24,9.24 0 0 1 -0.97,-1.14l-0.23,0l0.12,1.22l0.07,1l0.04,0.8l0,8.78l-3.41,0l0,-29.74l2.77,0l0.49,2.77l0.15,0a8.32,8.32 0 0 1 0.97,-1.22a5.43,5.43 0 0 1 1.26,-0.99c0.48,-0.29 1.03,-0.51 1.62,-0.68c0.6,-0.17 1.28,-0.26 2.02,-0.26c1.18,0 2.24,0.23 3.2,0.68a6.46,6.46 0 0 1 2.46,2.02c0.68,0.88 1.21,2 1.6,3.31s0.56,2.86 0.56,4.6c0,1.76 -0.19,3.31 -0.56,4.64c-0.38,1.33 -0.91,2.44 -1.6,3.33c-0.68,0.9 -1.5,1.58 -2.45,2.04c-0.96,0.45 -2.27,0.68 -3.44,0.68m-0.42,-18.47c-0.95,0 -1.75,0.14 -2.41,0.43a3.78,3.78 0 0 0 -1.6,1.31c-0.4,0.58 -0.7,1.31 -0.89,2.2c-0.19,0.87 -0.3,1.9 -0.32,3.08l0,0.77c0,1.26 0.08,2.38 0.24,3.37c0.18,0.97 0.46,1.8 0.86,2.47a4.13,4.13 0 0 0 1.63,1.52c0.67,0.33 1.52,0.5 2.53,0.5c1.68,0 2.92,-0.68 3.7,-2.04c0.8,-1.36 1.2,-3.31 1.2,-5.86c0,-2.59 -0.4,-4.53 -1.2,-5.82c-0.79,-1.28 -2.03,-1.92 -3.74,-1.92m19.83,15.67c0.23,0 0.47,-0.02 0.75,-0.04l0.82,-0.09l0.7,-0.13l0.51,-0.14l0,2.59c-0.16,0.07 -0.37,0.15 -0.62,0.22s-0.52,0.14 -0.82,0.19a7.59,7.59 0 0 1 -0.94,0.13a8.12,8.12 0 0 1 -0.95,0.06a7.42,7.42 0 0 1 -2.16,-0.3a4.06,4.06 0 0 1 -1.72,-1.03c-0.47,-0.49 -0.85,-1.14 -1.12,-1.97c-0.27,-0.83 -0.41,-1.88 -0.41,-3.14l0,-11.92l-2.9,0l0,-1.52l2.9,-1.46l1.46,-4.3l1.96,0l0,4.71l5.17,0l0,2.57l-5.17,0l0,11.92c0,1.2 0.2,2.12 0.58,2.73c0.4,0.6 1.05,0.92 1.95,0.92" fill="#ffffff" id="svg_5" stroke-width="0"/>
  </g>
 </g>
</svg>