<?xml version="1.0"?>
<svg width="120" height="60" xmlns="http://www.w3.org/2000/svg" xmlns:svg="http://www.w3.org/2000/svg">
 <g class="layer">
  <title>Layer 1</title>
  <path d="m16.15,5.15l1.09,2.05a6.15,6.15 0 0 0 0.82,1.03c0.91,0.91 1.78,1.87 2.56,2.89c1.85,2.43 3.1,5.12 3.99,8.04c0.53,1.78 0.82,3.61 0.84,5.46c0.09,5.52 -1.8,10.26 -5.63,14.21a16.3,16.3 0 0 1 -2.01,1.71c-0.38,0 -0.55,-0.3 -0.71,-0.56c-0.3,-0.5 -0.47,-1.04 -0.56,-1.6c-0.13,-0.67 -0.22,-1.33 -0.17,-2.03l0,-0.31c-0.03,-0.06 -0.36,-30.73 -0.23,-30.89l0.01,0z" fill="#599636" id="svg_1"/>
  <path d="m16.15,5.09c-0.05,-0.09 -0.09,-0.02 -0.14,0.02c0.02,0.45 -0.13,0.85 -0.38,1.23c-0.26,0.38 -0.62,0.66 -0.98,0.98c-1.98,1.71 -3.54,3.78 -4.79,6.1c-1.64,3.12 -2.51,6.46 -2.76,9.97c-0.11,1.27 0.4,5.75 0.81,7.04c1.09,3.43 3.05,6.3 5.6,8.8c0.62,0.6 1.29,1.16 1.98,1.69c0.2,0 0.22,-0.18 0.27,-0.31a6.11,6.11 0 0 0 0.2,-0.87c0.2,-1.11 0.31,-2.23 0.44,-3.34l-0.24,-31.31l-0.01,0z" fill="#6cac48" id="svg_2"/>
  <path d="m17.24,41.9c0.05,-0.51 0.3,-0.94 0.56,-1.36c-0.27,-0.11 -0.47,-0.33 -0.63,-0.58c-0.13,-0.22 -0.24,-0.5 -0.33,-0.73c-0.31,-0.94 -0.38,-1.92 -0.47,-2.88l0,-0.58c-0.11,0.09 -0.13,0.85 -0.13,0.96c-0.07,1.03 -0.2,2.03 -0.4,3.01c-0.07,0.4 -0.11,0.8 -0.36,1.16c0,0.04 0,0.09 0.02,0.15c0.4,1.18 0.51,2.39 0.58,3.61l0,0.45c0,0.53 -0.02,0.42 0.43,0.6c0.17,0.06 0.38,0.09 0.55,0.22c0.14,0 0.16,-0.11 0.16,-0.2l-0.07,-0.74l0,-2.05c-0.02,-0.35 0.05,-0.71 0.09,-1.04z" fill="#c2bfbf" id="svg_3"/>
  <g id="svg_4" transform="matrix(1.02112 0 0 1.02112 -4.37627 -1.84595)">
   <path d="m37.73,33.72l0,2.08a1.45,1.45 0 0 0 0.01,0.24c0.03,0.25 0.18,0.4 0.4,0.47a4.97,4.97 0 0 0 0.63,0.12c0.13,0.02 0.17,0.07 0.18,0.2c0.02,0.47 -0.03,0.52 -0.48,0.49c-1.05,-0.05 -2.1,-0.06 -3.15,0l-0.1,0c-0.33,0.02 -0.36,-0.01 -0.36,-0.34c0,-0.05 0.02,-0.12 0.02,-0.18c0,-0.1 0.06,-0.15 0.16,-0.15c0.22,-0.02 0.42,-0.08 0.63,-0.12c0.29,-0.07 0.45,-0.25 0.48,-0.53c0.04,-0.32 0.04,-0.64 0.04,-0.96l0.01,-3.66a0.56,0.56 0 0 0 -0.3,-0.52a3.89,3.89 0 0 0 -0.78,-0.33c-0.08,-0.03 -0.16,-0.04 -0.23,-0.08c-0.2,-0.1 -0.2,-0.27 -0.01,-0.38c0.06,-0.04 0.15,-0.07 0.23,-0.09a12.42,12.42 0 0 0 2.43,-0.61c0.16,-0.06 0.21,-0.04 0.22,0.12c0.01,0.1 0,0.22 -0.01,0.32c-0.03,0.17 -0.03,0.35 -0.03,0.52c0,0.06 0.01,0.13 0.08,0.17s0.14,0 0.2,-0.04c0.29,-0.22 0.58,-0.42 0.89,-0.6c0.45,-0.24 0.93,-0.46 1.45,-0.53c0.63,-0.08 1.17,0.08 1.65,0.49a3.1,3.1 0 0 1 0.52,0.6c0.14,0.2 0.15,0.21 0.33,0.07c0.52,-0.38 1.07,-0.72 1.65,-0.97c0.62,-0.26 1.25,-0.3 1.88,-0.08c0.64,0.23 1.08,0.68 1.34,1.3c0.22,0.49 0.31,1 0.31,1.53l0,3.66c0,0.25 0.1,0.4 0.34,0.52c0.26,0.1 0.55,0.15 0.82,0.2c0.18,0.04 0.18,0.04 0.18,0.22c-0.03,0.45 -0.07,0.48 -0.51,0.45a29.42,29.42 0 0 0 -3.29,0c-0.22,0.02 -0.22,0.02 -0.23,-0.2l0,-0.07c-0.01,-0.37 -0.01,-0.37 0.34,-0.45l0.36,-0.09a0.55,0.55 0 0 0 0.42,-0.54l0.04,-1.02l-0.03,-2.68a2.13,2.13 0 0 0 -0.15,-0.7c-0.34,-0.83 -1.09,-1.13 -1.81,-1.05c-0.55,0.06 -1.03,0.27 -1.48,0.59c-0.1,0.07 -0.16,0.15 -0.15,0.29c0.12,0.87 0.04,1.75 0.05,2.62l0,1.9c0,0.34 0.14,0.51 0.47,0.59l0.63,0.13c0.1,0.02 0.15,0.06 0.15,0.17l0,0.1c-0.01,0.38 -0.04,0.4 -0.42,0.39c-1.1,-0.05 -2.19,-0.04 -3.27,0c-0.37,0.02 -0.4,-0.02 -0.38,-0.4c0.01,-0.22 0.04,-0.23 0.24,-0.27l0.45,-0.08c0.4,-0.08 0.55,-0.23 0.58,-0.66l0.04,-0.91l-0.03,-2.75c-0.03,-0.34 -0.1,-0.67 -0.29,-0.98c-0.27,-0.51 -0.7,-0.77 -1.28,-0.8c-0.59,-0.04 -1.11,0.18 -1.6,0.45c-0.34,0.2 -0.49,0.44 -0.47,0.84l0,1.99l-0.01,-0.01zm25.75,0.08l0,1.93a4.13,4.13 0 0 0 0.02,0.41a0.42,0.42 0 0 0 0.33,0.38a3.19,3.19 0 0 0 0.73,0.13c0.13,0.01 0.16,0.06 0.17,0.17l0,0.1c-0.01,0.48 -0.06,0.53 -0.53,0.51c-1.04,-0.07 -2.08,-0.06 -3.12,0l-0.4,0.01c-0.08,0 -0.1,-0.04 -0.12,-0.1a1.39,1.39 0 0 1 0,-0.57c0.02,-0.08 0.07,-0.1 0.15,-0.12c0.2,-0.03 0.37,-0.07 0.56,-0.1c0.34,-0.09 0.47,-0.22 0.48,-0.58l0.04,-1.15l0,-3.36c0,-0.24 -0.1,-0.39 -0.31,-0.5c-0.25,-0.14 -0.51,-0.24 -0.78,-0.33c-0.09,-0.03 -0.17,-0.06 -0.24,-0.1c-0.17,-0.12 -0.2,-0.3 -0.02,-0.43a0.49,0.49 0 0 1 0.27,-0.11c0.88,-0.14 1.72,-0.33 2.54,-0.66c0.1,-0.04 0.14,-0.01 0.18,0.07s0.05,0.18 0.04,0.27l-0.04,0.64c0,0.08 -0.04,0.2 0.03,0.23c0.08,0.06 0.13,-0.06 0.2,-0.1a6.09,6.09 0 0 1 1.33,-0.84c0.42,-0.2 0.86,-0.33 1.35,-0.3c0.92,0.05 1.57,0.52 2,1.32c0.22,0.43 0.31,0.89 0.35,1.37l0.04,1l0.02,3.02c0.01,0.23 0.09,0.38 0.32,0.47a4.47,4.47 0 0 0 0.74,0.17c0.22,0.03 0.23,0.07 0.25,0.28l0,0.06c-0.03,0.47 -0.06,0.48 -0.52,0.46a28.59,28.59 0 0 0 -3.06,0c-0.14,0.01 -0.28,0 -0.4,0.01c-0.09,0 -0.14,-0.01 -0.15,-0.1c-0.03,-0.17 -0.06,-0.35 -0.02,-0.54c0.02,-0.09 0.06,-0.13 0.15,-0.14l0.63,-0.1c0.22,-0.06 0.34,-0.2 0.37,-0.4l0.03,-0.38l-0.01,-2.86c0,-0.33 -0.02,-0.66 -0.09,-0.98c-0.16,-0.7 -0.69,-1.2 -1.42,-1.27c-0.63,-0.07 -1.2,0.09 -1.72,0.43c-0.26,0.17 -0.37,0.4 -0.37,0.69l0,2.06c0,-0.04 0,-0.04 0.02,-0.04l-0.02,-0.03z" fill="#ffffff" id="svg_5"/>
   <path d="m103.5,29.93c-0.15,-0.99 -0.52,-1.88 -1.16,-2.66a5.27,5.27 0 0 0 -2.1,-1.56c-0.86,-0.35 -1.78,-0.46 -2.71,-0.49c-0.38,-0.01 -5.6,0.07 -5.99,0c-0.09,-0.01 -0.16,0.01 -0.22,0.1c-0.06,0.1 -0.13,0.2 -0.17,0.31c-0.17,0.37 -0.17,0.34 0.23,0.4c0.33,0.05 0.64,0.08 0.95,0.17c0.29,0.1 0.5,0.26 0.56,0.58c0.03,0.15 0.06,4.96 0.06,7.2l-0.06,1.6c-0.01,0.12 -0.02,0.25 -0.06,0.36c-0.06,0.16 -0.15,0.29 -0.32,0.36a1.62,1.62 0 0 1 -0.57,0.15c-0.37,0.04 -0.43,0.06 -0.55,0.47l-0.04,0.15c-0.03,0.18 -0.01,0.2 0.17,0.2l4.08,0.04l1.6,-0.02l1.11,-0.14c1.26,-0.23 2.38,-0.75 3.33,-1.58a5.55,5.55 0 0 0 1.31,-1.73c0.39,-0.76 0.55,-1.6 0.59,-2.44c0.07,-0.48 0.04,-0.97 -0.04,-1.46l0,-0.01zm-1.98,1.95c-0.05,0.87 -0.23,1.72 -0.68,2.48c-0.58,1 -1.4,1.7 -2.53,1.94c-0.49,0.1 -0.98,0.15 -1.5,0.08c-0.37,-0.04 -0.72,-0.08 -1.07,-0.2c-0.61,-0.22 -0.83,-0.6 -0.84,-1.2l-0.02,-8.24c0,-0.49 0.22,-0.6 0.58,-0.62c0.53,-0.04 1.08,-0.02 1.61,0.03a6.06,6.06 0 0 1 1.65,0.4a3.98,3.98 0 0 1 1.08,0.67c0.74,0.63 1.23,1.42 1.5,2.35c0.22,0.75 0.26,1.52 0.22,2.28l0,0.03zm13.34,1.34c0,-0.09 0,-0.15 -0.01,-0.24c-0.13,-0.75 -0.52,-1.32 -1.14,-1.76c-0.39,-0.29 -0.84,-0.48 -1.31,-0.61c-0.08,-0.03 -0.15,-0.06 -0.23,-0.07c0.01,-0.07 0.05,-0.08 0.1,-0.1c0.27,-0.14 0.53,-0.29 0.76,-0.49c0.42,-0.36 0.7,-0.79 0.85,-1.33c0.08,-0.28 0.08,-0.57 0.05,-0.87a2.35,2.35 0 0 0 -1,-1.78c-0.63,-0.46 -1.36,-0.65 -2.13,-0.67c-1.47,-0.03 -2.96,0 -4.44,0c-0.42,0 -0.84,0.03 -1.28,-0.04c-0.08,-0.01 -0.2,-0.04 -0.26,0.06c-0.1,0.17 -0.22,0.35 -0.26,0.56c-0.02,0.09 0.01,0.15 0.12,0.16l0.94,0.14c0.37,0.05 0.63,0.26 0.66,0.59a5.78,5.78 0 0 1 0.04,0.68l-0.03,2.55l-0.01,5.06c0,0.3 -0.04,0.59 -0.1,0.89a0.5,0.5 0 0 1 -0.35,0.41c-0.28,0.08 -0.54,0.16 -0.82,0.16a0.34,0.34 0 0 0 -0.36,0.23c-0.05,0.13 -0.1,0.26 -0.12,0.39c-0.03,0.16 0.01,0.22 0.18,0.2c0.12,-0.02 4.63,0.09 5.48,0.01c0.5,-0.05 1,-0.12 1.5,-0.27c0.86,-0.28 1.65,-0.67 2.28,-1.34c0.52,-0.55 0.82,-1.21 0.85,-1.97c0.04,-0.18 0.04,-0.36 0.04,-0.55zm-6.63,-5.6l0.04,-1.1c0,-0.2 0.09,-0.3 0.29,-0.34c0.33,-0.07 0.66,-0.04 0.98,-0.03c0.33,0.03 0.65,0.07 0.97,0.17c0.6,0.18 1.07,0.52 1.34,1.09a1.96,1.96 0 0 1 0.2,0.83c0.01,0.39 -0.02,0.76 -0.17,1.12c-0.23,0.51 -0.6,0.84 -1.13,0.93s-2.05,0.06 -2.28,0.06c-0.21,0 -0.22,-0.03 -0.22,-0.23l0,-1.29a8.79,8.79 0 0 1 -0.02,-1.2l0,-0.01zm4.44,7.35c-0.23,0.61 -0.65,1.04 -1.25,1.27c-0.33,0.12 -0.66,0.2 -1,0.17c-0.43,-0.01 -0.85,0 -1.27,-0.08c-0.58,-0.12 -0.84,-0.67 -0.88,-1.06c-0.07,-0.7 -0.03,-1.41 -0.04,-1.93l0,-1.8c0,-0.22 0.03,-0.29 0.26,-0.29l1.29,0.01l0.87,0.1c0.62,0.14 1.18,0.37 1.61,0.85c0.36,0.38 0.55,0.85 0.59,1.35c0.04,0.48 0.02,0.95 -0.16,1.4l-0.02,0.01z" fill="#ffffff" id="svg_6"/>
   <path d="m77.95,30.85l0.36,0.06c0.38,0.01 0.83,-0.13 0.97,-0.66a1.38,1.38 0 0 0 0,-0.78c-0.09,0 -0.13,0.07 -0.17,0.1c-0.2,0.16 -0.44,0.26 -0.68,0.28c-0.49,0.06 -0.99,0.03 -1.46,-0.15l-0.67,-0.23a3.95,3.95 0 0 0 -1.45,-0.19c-0.7,0.06 -1.36,0.29 -1.97,0.61c-0.66,0.36 -1.12,0.89 -1.34,1.62c-0.13,0.42 -0.14,0.86 -0.08,1.3c0.13,0.99 0.65,1.69 1.58,2.06c0.06,0.01 0.1,0.04 0.15,0.05c0.12,0.07 0.14,0.14 0.03,0.24l-0.34,0.23l-0.82,0.5c-0.21,0.13 -0.24,0.22 -0.17,0.44a1.43,1.43 0 0 0 0.44,0.66a2.28,2.28 0 0 0 0.63,0.38c0.15,0.07 0.15,0.1 0.01,0.22l-0.78,0.56c-0.26,0.2 -0.52,0.4 -0.74,0.66a1.35,1.35 0 0 0 -0.32,1.23a2.31,2.31 0 0 0 0.71,1.23a2.9,2.9 0 0 0 1.25,0.68c0.77,0.22 1.56,0.23 2.34,0.08c1.12,-0.2 2.1,-0.7 2.87,-1.54c0.53,-0.56 0.85,-1.22 0.87,-2a1.92,1.92 0 0 0 -1.47,-2l-0.74,-0.13l-2.25,-0.2c-0.25,-0.02 -0.5,-0.06 -0.7,-0.18c-0.26,-0.17 -0.33,-0.48 -0.17,-0.69c0.13,-0.15 0.28,-0.24 0.47,-0.26l0.44,-0.04a3.96,3.96 0 0 0 2.31,-1.05a2.42,2.42 0 0 0 0.69,-1.16c0.17,-0.59 0.17,-1.2 0.03,-1.8c-0.04,-0.15 -0.03,-0.16 0.16,-0.14l0.01,0.01zm-3.35,6.81c0.08,0.01 0.16,0 0.25,0c0.57,0.02 1.16,0.07 1.72,0.22a3.58,3.58 0 0 1 0.53,0.2c0.55,0.3 0.75,0.82 0.68,1.38c-0.08,0.62 -0.42,1.05 -0.95,1.34c-0.36,0.2 -0.75,0.29 -1.16,0.33c-0.15,0.01 -0.29,0 -0.44,0c-0.48,0.01 -0.94,-0.04 -1.4,-0.23c-0.31,-0.12 -0.57,-0.3 -0.8,-0.55c-0.48,-0.48 -0.7,-1.35 0.01,-2.06c0.44,-0.4 0.93,-0.69 1.56,-0.63zm1.56,-4.27c-0.29,0.73 -0.92,0.95 -1.55,0.85c-0.57,-0.08 -0.99,-0.4 -1.27,-0.92c-0.35,-0.69 -0.45,-1.42 -0.24,-2.17c0.15,-0.56 0.49,-0.98 1.09,-1.08c0.77,-0.14 1.5,0.14 1.89,0.9c0.2,0.37 0.28,0.82 0.28,1.47c-0.01,0.26 -0.06,0.61 -0.2,0.95zm-17.22,-0.93c-0.12,-0.73 -0.4,-1.41 -0.9,-1.96c-0.75,-0.84 -1.71,-1.2 -2.79,-1.21c-0.94,-0.01 -1.83,0.26 -2.62,0.75a3.56,3.56 0 0 0 -1.6,2.09c-0.23,0.8 -0.22,1.6 -0.04,2.41c0.48,2.16 2.14,3.09 4.14,2.95c0.59,-0.04 1.15,-0.23 1.68,-0.49c0.79,-0.37 1.36,-0.96 1.76,-1.74c0.31,-0.64 0.45,-1.32 0.44,-2.1l-0.07,-0.7zm-1.94,3.04a1.66,1.66 0 0 1 -1.41,1.15c-0.6,0.08 -1.16,-0.07 -1.67,-0.43a2.84,2.84 0 0 1 -0.86,-1.02c-0.56,-1.15 -0.65,-2.35 -0.37,-3.58a2.05,2.05 0 0 1 0.58,-1c0.5,-0.47 1.09,-0.58 1.75,-0.44c0.63,0.14 1.11,0.48 1.5,1s0.57,1.12 0.68,1.75c0.06,0.31 0.06,0.64 0.07,0.85c0,0.65 -0.06,1.2 -0.26,1.72l-0.01,0zm31.8,-2.93c-0.1,-0.79 -0.4,-1.51 -0.96,-2.11c-0.73,-0.81 -1.69,-1.15 -2.76,-1.17c-0.91,-0.01 -1.76,0.25 -2.54,0.7c-0.87,0.52 -1.48,1.26 -1.71,2.26a4.77,4.77 0 0 0 0.33,3.25c0.45,0.95 1.22,1.57 2.23,1.84c1.12,0.3 2.19,0.17 3.22,-0.34c0.91,-0.44 1.55,-1.12 1.92,-2.05c0.22,-0.55 0.3,-1.13 0.31,-1.82c0.01,-0.12 -0.01,-0.34 -0.04,-0.56zm-1.89,2.75c-0.22,0.74 -0.68,1.22 -1.46,1.33c-0.57,0.08 -1.12,-0.06 -1.61,-0.39c-0.43,-0.28 -0.73,-0.67 -0.94,-1.12c-0.25,-0.48 -0.39,-0.98 -0.44,-1.5c-0.08,-0.64 -0.08,-1.27 0.07,-1.91a1.95,1.95 0 0 1 0.12,-0.37c0.38,-0.96 1.23,-1.4 2.23,-1.18c0.67,0.15 1.17,0.52 1.56,1.08c0.37,0.55 0.54,1.15 0.63,1.8c0.04,0.26 0.05,0.54 0.04,0.77c0,0.53 -0.04,1.02 -0.2,1.5l0,-0.01z" fill="#ffffff" id="svg_7"/>
  </g>
 </g>
</svg>