<?xml version="1.0" encoding="UTF-8" standalone="no" ?>
<!DOCTYPE svg PUBLIC "-//W3C//DTD SVG 1.1//EN" "http://www.w3.org/Graphics/SVG/1.1/DTD/svg11.dtd">
<svg xmlns="http://www.w3.org/2000/svg" xmlns:xlink="http://www.w3.org/1999/xlink" version="1.1" width="1080" height="1080" viewBox="0 0 1080 1080" xml:space="preserve">
<desc>Created with Fabric.js 5.2.4</desc>
<defs>
</defs>
<rect x="0" y="0" width="100%" height="100%" fill="transparent"></rect>
<g transform="matrix(1 0 0 1 540 540)" id="ea23ecf5-f8f9-45da-a465-58a53cc27798"  >
<rect style="stroke: none; stroke-width: 1; stroke-dasharray: none; stroke-linecap: butt; stroke-dashoffset: 0; stroke-linejoin: miter; stroke-miterlimit: 4; fill: rgb(255,255,255); fill-rule: nonzero; opacity: 1; visibility: hidden;" vector-effect="non-scaling-stroke"  x="-540" y="-540" rx="0" ry="0" width="1080" height="1080" />
</g>
<g transform="matrix(1 0 0 1 540 540)" id="11757736-6291-4a75-ba2d-c6b79b7fc0e3"  >
</g>
<g transform="matrix(2.07 0 0 1.87 542.47 543.08)" id="559b4f65-4a35-43ba-9422-1f1c92fc266c"  >
<path style="stroke: rgb(0,0,0); stroke-width: 0; stroke-dasharray: none; stroke-linecap: butt; stroke-dashoffset: 0; stroke-linejoin: miter; stroke-miterlimit: 4; fill: rgb(255,255,255); fill-rule: nonzero; opacity: 1;" vector-effect="non-scaling-stroke"  transform=" translate(-256, -154.44)" d="M 120.81043 80.5613102 L 217.378325 80.5613102 L 217.378325 88.2366589 L 129.662487 88.2366589 L 129.662487 146.003758 L 212.147564 146.003758 L 212.147564 153.679106 L 129.662487 153.679106 L 129.662487 217.101725 L 218.384241 217.101725 L 218.384241 224.777073 L 120.81043 224.777073 L 120.81043 80.5613102 Z M 226.0292 80.5613102 L 236.289538 80.5613102 L 281.756922 143.983929 L 328.230222 80.5613102 L 391.441486 0 L 287.591232 150.649363 L 341.105941 224.777073 L 330.443237 224.777073 L 281.756922 157.314798 L 232.869425 224.777073 L 222.407904 224.777073 L 276.324978 150.649363 L 226.0292 80.5613102 Z M 344.928421 88.2366588 L 344.928421 80.5613102 L 454.975585 80.5613102 L 454.975585 88.2366589 L 404.27744 88.2366589 L 404.27744 224.777073 L 395.425382 224.777073 L 395.425382 88.2366589 L 344.928421 88.2366588 Z M 1.42108547e-14 80.5613102 L 11.0650714 80.5613102 L 163.64593 308.884007 L 100.591558 224.777073 L 9.25442331 91.4683847 L 8.85205708 224.777073 L 1.42108547e-14 224.777073 L 1.42108547e-14 80.5613102 Z M 454.083705 214.785469 C 452.275167 214.785469 450.918762 213.38418 450.918762 211.573285 C 450.918762 209.762388 452.275167 208.361099 454.083705 208.361099 C 455.913774 208.361099 457.248648 209.762388 457.248648 211.573285 C 457.248648 213.38418 455.913774 214.785469 454.083705 214.785469 Z M 462.781915 206.334618 L 467.518563 206.334618 C 467.583153 208.900055 469.456284 210.624719 472.212151 210.624719 C 475.290972 210.624719 477.03492 208.770705 477.03492 205.29982 L 477.03492 183.310363 L 481.85769 183.310363 L 481.85769 205.321379 C 481.85769 211.573285 478.240613 215.173518 472.255212 215.173518 C 466.635824 215.173518 462.781915 211.681076 462.781915 206.334618 Z M 488.166045 206.054362 L 492.945754 206.054362 C 493.354828 209.007848 496.239878 210.883419 500.395211 210.883419 C 504.270652 210.883419 507.11264 208.878498 507.11264 206.119036 C 507.11264 203.747625 505.304102 202.324777 501.191828 201.354653 L 497.187209 200.384531 C 491.56782 199.069474 489.005723 196.353129 489.005723 191.782772 C 489.005723 186.24229 493.527071 182.555823 500.30909 182.555823 C 506.617445 182.555823 511.224912 186.24229 511.504805 191.480955 L 506.811217 191.480955 C 506.359083 188.613703 503.861576 186.824365 500.244499 186.824365 C 496.43365 186.824365 493.893085 188.656819 493.893085 191.459398 C 493.893085 193.679901 495.52938 194.95184 499.577063 195.900406 L 503.000368 196.741178 C 509.373314 198.228702 512 200.815695 512 205.493846 C 512 211.443935 507.392533 215.173518 500.029197 215.173518 C 493.139526 215.173518 488.51053 211.6164 488.166045 206.054362 Z" stroke-linecap="round" />
</g>
</svg>