<?xml version="1.0"?>
<svg width="120" height="60" xmlns="http://www.w3.org/2000/svg" xmlns:svg="http://www.w3.org/2000/svg" preserveAspectRatio="xMidYMid">
 <g class="layer">
  <title>Layer 1</title>
  <g id="svg_1" transform="matrix(0.217946 0 0 0.217946 4.12054 14.0855)">
   <path d="m471.05,51.6c-1.24,0 -2.45,0.26 -3.53,0.86l-33.88,19.57c-2.2,1.27 -3.53,3.65 -3.53,6.19l0,39.07c0,2.54 1.33,4.92 3.53,6.19l8.85,5.1c4.3,2.12 5.88,2.08 7.84,2.08c6.37,0 10,-3.86 10,-10.57l0,-38.55c0,-0.54 -0.47,-0.93 -1.01,-0.93l-4.24,0c-0.55,0 -1.01,0.4 -1.01,0.93l0,38.57c0,2.97 -3.1,5.97 -8.13,3.45l-9.2,-5.4c-0.32,-0.17 -0.58,-0.5 -0.58,-0.86l0,-39.07c0,-0.37 0.25,-0.75 0.58,-0.93l33.82,-19.5c0.31,-0.19 0.69,-0.19 1,0l33.82,19.5c0.32,0.19 0.58,0.55 0.58,0.93l0,39.07c0,0.37 -0.19,0.76 -0.51,0.94l-33.88,19.5c-0.3,0.17 -0.7,0.17 -1.01,0l-8.71,-5.18c-0.26,-0.15 -0.61,-0.14 -0.86,0c-2.4,1.36 -2.86,1.52 -5.11,2.3c-0.55,0.19 -1.4,0.49 0.29,1.44l11.37,6.7c1.08,0.62 2.29,0.93 3.52,0.93c1.26,0 2.45,-0.3 3.53,-0.93l33.89,-19.5c2.19,-1.28 3.52,-3.65 3.52,-6.19l0,-39.07c0,-2.54 -1.33,-4.92 -3.52,-6.19l-33.89,-19.57c-1.06,-0.6 -2.28,-0.86 -3.53,-0.86l-0.01,-0.02zm9.07,27.92c-9.65,0 -15.4,4.11 -15.4,10.93c0,7.4 5.7,9.45 14.97,10.36c11.07,1.09 11.94,2.72 11.94,4.9c0,3.78 -3.02,5.39 -10.15,5.39c-8.95,0 -10.92,-2.23 -11.58,-6.7c-0.08,-0.47 -0.45,-0.86 -0.93,-0.86l-4.4,0a1.03,1.03 0 0 0 -1.01,1.01c0,5.7 3.1,12.44 17.91,12.44c10.73,0 16.91,-4.2 16.91,-11.58c0,-7.3 -4.99,-9.27 -15.39,-10.65c-10.5,-1.4 -11.52,-2.07 -11.52,-4.53c0,-2.03 0.85,-4.75 8.64,-4.75c6.95,0 9.52,1.5 10.57,6.19c0.1,0.44 0.48,0.8 0.94,0.8l4.4,0c0.27,0 0.53,-0.17 0.72,-0.36c0.18,-0.21 0.31,-0.44 0.29,-0.72c-0.68,-8.08 -6.07,-11.88 -16.91,-11.88l0,0.01z" fill="#83cd29" id="svg_2"/>
   <path d="m271.82,0.38a2.18,2.18 0 0 0 -1.08,0.29a2.18,2.18 0 0 0 -1.08,1.87l0,55.04c0,0.54 -0.25,1.03 -0.72,1.3a1.5,1.5 0 0 1 -1.51,0l-8.99,-5.18a4.31,4.31 0 0 0 -4.32,0l-35.9,20.72c-1.34,0.77 -2.16,2.26 -2.16,3.81l0,41.45a4.31,4.31 0 0 0 2.16,3.74l35.9,20.72a4.3,4.3 0 0 0 4.32,0l35.9,-20.72a4.31,4.31 0 0 0 2.16,-3.74l0,-103.32c0,-1.58 -0.86,-3.05 -2.23,-3.82l-21.37,-11.94c-0.34,-0.19 -0.71,-0.22 -1.08,-0.22zm-230.96,51.74c-0.68,0.02 -1.33,0.14 -1.94,0.5l-35.9,20.72a4.3,4.3 0 0 0 -2.16,3.74l0.07,55.62c0,0.77 0.4,1.49 1.08,1.87c0.67,0.4 1.49,0.4 2.16,0l21.29,-12.23c1.36,-0.8 2.24,-2.2 2.24,-3.74l0,-25.98c0,-1.55 0.81,-2.97 2.16,-3.74l9.06,-5.25a4.25,4.25 0 0 1 2.16,-0.57a4.24,4.24 0 0 1 2.16,0.57l9.06,5.25c1.34,0.77 2.16,2.19 2.16,3.74l0,25.97c0,1.55 0.9,2.95 2.23,3.74l21.29,12.24c0.68,0.4 1.5,0.4 2.16,0c0.66,-0.38 1.08,-1.1 1.08,-1.87l0.08,-55.62a4.28,4.28 0 0 0 -2.16,-3.74l-35.91,-20.72c-0.6,-0.36 -1.25,-0.48 -1.94,-0.51l-0.43,0l0,0.01zm322.62,0.5a4.29,4.29 0 0 0 -2.15,0.58l-35.91,20.72c-1.34,0.77 -2.16,2.19 -2.16,3.74l0,41.44c0,1.56 0.88,2.97 2.23,3.74l35.62,20.3c1.31,0.75 2.92,0.81 4.24,0.07l21.59,-12.02c0.68,-0.38 1.15,-1.09 1.15,-1.87s-0.41,-1.48 -1.08,-1.87l-36.12,-20.72c-0.68,-0.38 -1.15,-1.17 -1.15,-1.94l0,-12.96c0,-0.77 0.48,-1.48 1.15,-1.87l11.22,-6.48c0.67,-0.38 1.49,-0.38 2.16,0l11.23,6.48a2.15,2.15 0 0 1 1.08,1.87l0,10.22a2.15,2.15 0 0 0 1.08,1.87c0.67,0.39 1.49,0.39 2.16,0l21.51,-12.52c1.33,-0.78 2.16,-2.2 2.16,-3.74l0,-10a4.32,4.32 0 0 0 -2.16,-3.74l-35.69,-20.72a4.28,4.28 0 0 0 -2.15,-0.58l-0.01,0zm-107.35,30.94a1.21,1.21 0 0 1 0.58,0.14l12.3,7.13c0.34,0.19 0.58,0.55 0.58,0.93l0,14.25c0,0.38 -0.24,0.74 -0.58,0.93l-12.3,7.12c-0.33,0.19 -0.74,0.19 -1.08,0l-12.3,-7.12c-0.34,-0.19 -0.58,-0.55 -0.58,-0.93l0,-14.25c0,-0.39 0.24,-0.74 0.58,-0.94l12.3,-7.12c0.17,-0.1 0.32,-0.14 0.5,-0.14l0,0z" fill="#ffffff" id="svg_3"/>
   <path d="m148.71,52.4a4.31,4.31 0 0 0 -2.16,0.58l-35.9,20.65c-1.34,0.77 -2.16,2.26 -2.16,3.81l0,41.44a4.3,4.3 0 0 0 2.16,3.74l35.9,20.73a4.3,4.3 0 0 0 4.32,0l35.9,-20.73a4.31,4.31 0 0 0 2.16,-3.74l0,-41.44c0,-1.55 -0.81,-3.04 -2.16,-3.81l-35.9,-20.65a4.27,4.27 0 0 0 -2.16,-0.58zm214.7,36.98c-0.14,0 -0.3,0 -0.43,0.07l-6.91,4.03a0.84,0.84 0 0 0 -0.43,0.72l0,7.92c0,0.3 0.18,0.57 0.43,0.72l6.91,3.96a0.75,0.75 0 0 0 0.79,0l6.91,-3.96c0.25,-0.15 0.43,-0.42 0.43,-0.72l0,-7.92c0,-0.29 -0.17,-0.57 -0.43,-0.72l-6.91,-4.03c-0.13,-0.07 -0.21,-0.07 -0.36,-0.07z" fill="#83cd29" id="svg_4"/>
  </g>
 </g>
</svg>