<?xml version="1.0"?>
<svg width="320" height="60" xmlns="http://www.w3.org/2000/svg" xmlns:svg="http://www.w3.org/2000/svg">
 <style>
  <![CDATA[.B{stroke-width:1.369}.C{stroke:#fff}.D{stroke-linecap:round}.E{stroke-linejoin:round}]]>
 </style>
 <g class="layer">
  <title>Layer 1</title>
  <path d="m86.09,30.19l-11.61,0l0,-11.67l12.24,0c4.48,0 6.71,1.98 6.71,5.93c0,3.83 -2.45,5.75 -7.34,5.75m8.34,-11.81c-1.6,-1.43 -3.82,-2.14 -6.68,-2.14l-16.61,0.09l0,27.92l3.34,0l-0.03,-11.88l12.37,0c3.1,0 5.54,-0.71 7.32,-2.14s2.67,-3.4 2.67,-5.93s-0.79,-4.5 -2.38,-5.92zm21.67,20.01a5.72,5.72 0 0 1 -1.59,2.37c-1.5,1.47 -3.79,2.2 -6.87,2.2c-2.78,0 -4.91,-0.7 -6.4,-2.13s-2.23,-3.33 -2.23,-5.72c0,-1.24 0.2,-2.34 0.59,-3.3s0.95,-1.78 1.69,-2.44c1.54,-1.4 3.66,-2.11 6.36,-2.11c5.97,0 8.96,2.62 8.96,7.85c0,1.25 -0.17,2.34 -0.5,3.28m0.61,-10.3c-2.04,-1.86 -5.06,-2.8 -9.06,-2.8c-3.78,0 -6.71,0.95 -8.77,2.85c-1.86,1.72 -2.8,4.04 -2.8,6.96c0,2.9 0.96,5.24 2.88,7.02c1.06,0.96 2.3,1.66 3.71,2.09s3.07,0.64 4.97,0.64c3.98,0 7,-0.92 9.09,-2.76c1.86,-1.68 2.8,-4 2.8,-6.99c0,-3 -0.94,-5.34 -2.82,-7.02l0,0.01zm25.32,11.11c0,3.75 -3.37,5.63 -10.1,5.63c-2.06,0 -3.8,-0.13 -5.2,-0.39s-2.56,-0.69 -3.44,-1.3a5.02,5.02 0 0 1 -1.61,-1.8c-0.41,-0.74 -0.66,-1.67 -0.78,-2.8l3.13,-0.03c0,1.48 0.55,2.57 1.64,3.27c1.18,0.84 3.26,1.26 6.26,1.26c4.7,0 7.06,-1.18 7.06,-3.54c0,-1.38 -0.8,-2.32 -2.37,-2.85c-0.32,-0.1 -2.23,-0.36 -5.7,-0.79s-5.66,-0.82 -6.52,-1.16c-1.86,-0.74 -2.79,-2.07 -2.79,-3.98c0,-1.88 0.83,-3.28 2.5,-4.2c0.82,-0.38 1.85,-0.68 3.08,-0.89s2.65,-0.31 4.27,-0.31c6.49,0 9.73,2.03 9.73,6.1l-2.98,0c0,-2.86 -2.28,-4.3 -6.84,-4.3c-2.32,0 -4.04,0.3 -5.18,0.87s-1.71,1.47 -1.71,2.67c0,1.12 0.77,1.93 2.31,2.43c0.9,0.26 2.96,0.56 6.2,0.9c2.9,0.26 4.89,0.63 5.97,1.1c2.06,0.8 3.09,2.16 3.09,4.08l-0.02,0.03zm12.3,5.09l-1.27,0.18l-0.8,0.06c-2.04,0 -3.5,-0.3 -4.41,-0.89s-1.35,-1.62 -1.35,-3.1l0,-12.75l-3.71,0l0,-1.88l3.69,0l0.03,-6.02l2.85,0l0,6.02l4.98,0l0,1.91l-4.98,-0.03l0,12.4c0,0.92 0.25,1.56 0.74,1.89s1.36,0.53 2.62,0.53c0.18,0.02 0.38,0.02 0.6,-0.02a10.55,10.55 0 0 0 0.99,-0.22l0.03,1.89l-0.01,0.03zm19.76,-4.23c-0.78,0.64 -1.67,1.13 -2.67,1.47s-2.15,0.5 -3.45,0.5c-5.97,0 -8.96,-2.47 -8.96,-7.4c0,-2.3 0.77,-4.1 2.3,-5.39s3.68,-1.95 6.46,-1.95c2.79,0 4.91,0.65 6.36,1.96s2.18,3.06 2.18,5.26c0,2.4 -0.74,4.25 -2.22,5.54m5.07,-14.13l-2.85,0l-0.03,3.15c-1.26,-1.28 -2.16,-2.09 -2.7,-2.43c-1.6,-0.88 -3.67,-1.32 -6.21,-1.32c-3.72,0 -6.56,0.85 -8.52,2.55c-1.86,1.56 -2.78,3.82 -2.78,6.78c0,1.46 0.23,2.76 0.7,3.9s1.16,2.12 2.06,2.92c1.96,1.64 4.73,2.46 8.32,2.46c4.3,0 7.36,-1.18 9.16,-3.54l0,3.26c0,2.08 -0.66,3.69 -1.97,4.83s-3.46,1.7 -6.46,1.7c-2.82,0 -4.83,-0.4 -6.02,-1.16c-0.9,-0.6 -1.52,-1.63 -1.86,-3.11l-2.94,0c0.32,2.06 1.2,3.55 2.6,4.47c1.64,1.05 4.4,1.58 8.3,1.58c7.46,0 11.2,-2.77 11.2,-8.32l0,-17.71l0,-0.01zm15.45,1.85c-0.86,-0.14 -1.65,-0.2 -2.39,-0.2c-4.7,0 -7.04,2.58 -7.04,7.72l0,8.96l-2.83,0l-0.03,-18.32l2.86,0.02l0,3.27l0.15,0c0.48,-1.28 1.24,-2.26 2.27,-2.93c1.14,-0.64 2.84,-0.96 5.1,-0.96l1.92,0l0,2.46l-0.01,-0.02zm2.66,6.16c0.36,-2.08 1.17,-3.69 2.43,-4.84c0.82,-0.66 1.75,-1.15 2.79,-1.48s2.19,-0.5 3.5,-0.5c2.54,0 4.6,0.7 6.22,2.09s2.42,2.97 2.42,4.73l-17.36,0m17.63,-5.65c-1,-1.01 -2.24,-1.75 -3.72,-2.23s-3.2,-0.72 -5.2,-0.72c-3.7,0 -6.57,0.86 -8.61,2.58s-3.06,4.06 -3.06,7.02s0.98,5.3 2.94,7.05c2.12,1.92 5.1,2.88 8.97,2.88c1.54,0 2.96,-0.17 4.27,-0.52s2.46,-0.84 3.44,-1.48c1.72,-1.24 2.8,-2.76 3.27,-4.57l-3.09,0c-1.06,3.13 -3.7,4.7 -7.92,4.7c-2.97,0 -5.26,-0.77 -6.86,-2.3c-1.38,-1.31 -2.07,-3.01 -2.07,-5.1l20.36,0c0,-3.11 -0.9,-5.55 -2.73,-7.3l0.01,-0.01z" fill="#ffffff" id="svg_1"/>
  <path d="m247.82,36.78c0,5.44 -4.39,8.16 -13.16,8.16c-5.26,0 -9.1,-0.94 -11.52,-2.8c-1.98,-1.54 -2.96,-3.89 -2.96,-7.05l3.53,0c0,5.08 3.65,7.62 10.95,7.62c3.5,0 6.03,-0.52 7.6,-1.56c1.32,-0.92 1.98,-2.36 1.98,-4.32c0,-1.93 -0.9,-3.29 -2.7,-4.07c-1.02,-0.42 -3.5,-0.95 -7.47,-1.59c-4.98,-0.76 -8.21,-1.52 -9.69,-2.28c-2.14,-1.12 -3.2,-3.01 -3.2,-5.69c0,-2.5 0.9,-4.36 2.73,-5.58c1.96,-1.33 5.32,-2 10.08,-2c8.6,0 12.9,2.85 12.9,8.56l-3.57,0c0,-4.28 -3.19,-6.41 -9.57,-6.41c-3.21,0 -5.55,0.43 -7.03,1.3c-1.4,0.92 -2.1,2.27 -2.1,4.05c0,1.86 0.9,3.17 2.7,3.93c0.96,0.44 3.78,1.05 8.46,1.83c4.4,0.66 7.37,1.43 8.9,2.3c2.1,1.08 3.15,2.95 3.15,5.6l-0.01,0zm28.7,2.77c-1.32,1.06 -2.81,1.85 -4.47,2.38s-3.53,0.8 -5.59,0.8c-4.2,0 -7.6,-1.14 -10.19,-3.4s-3.89,-5.29 -3.89,-9.06c0,-3.93 1.29,-7 3.86,-9.19s5.98,-3.29 10.22,-3.29c4.3,0 7.69,1.14 10.15,3.44c1.3,1.12 2.26,2.42 2.88,3.92s0.93,3.21 0.93,5.12c0,3.91 -1.3,7.01 -3.9,9.28m1.88,1.85c1.84,-1.3 3.2,-2.87 4.08,-4.71s1.32,-3.98 1.32,-6.4c0,-4.34 -1.44,-7.8 -4.32,-10.43c-1.54,-1.44 -3.4,-2.51 -5.58,-3.21s-4.67,-1.05 -7.47,-1.05c-5.44,0 -9.7,1.32 -12.8,3.96s-4.65,6.21 -4.65,10.73c0,4.39 1.57,7.94 4.69,10.63s7.41,4.05 12.82,4.05c2.12,0 3.97,-0.15 5.55,-0.43s2.92,-0.73 4.02,-1.32l5.22,3.61l2.18,-2l-5.05,-3.43l-0.01,0zm31.85,2.86l-24.15,0l0,-27.96l3.32,-0.06l0,25.68l20.85,0l-0.03,2.33l0.01,0.01z" fill="#367faf" id="svg_2"/>
  <path d="m48.24,39.57c0.33,-2.37 0.23,-2.72 2.31,-2.34l0.54,0.04c1.6,0.06 3.69,-0.22 4.92,-0.7c2.65,-1.04 4.22,-2.78 1.61,-2.33c-5.96,1.05 -6.37,-0.67 -6.37,-0.67c6.29,-7.91 8.92,-17.96 6.66,-20.42c-6.21,-6.7 -16.92,-3.53 -17.11,-3.45l-0.06,0.01c-1.18,-0.21 -2.49,-0.33 -3.97,-0.35c-2.7,-0.04 -4.75,0.6 -6.3,1.6c0,0 -19.13,-6.68 -18.24,8.4c0.19,3.2 5.43,24.27 11.67,17.91c2.28,-2.33 4.49,-4.3 4.49,-4.3a6.6,6.6 0 0 0 3.78,0.82l0.11,-0.08c-0.04,0.29 -0.02,0.57 0.04,0.91c-1.61,1.52 -1.14,1.79 -4.35,2.35c-3.25,0.57 -1.34,1.58 -0.1,1.85c1.52,0.32 5.02,0.77 7.38,-2.03l-0.09,0.32c0.63,0.42 0.59,3.07 0.68,4.96s0.24,3.66 0.69,4.7s0.99,3.72 5.22,2.96c3.53,-0.65 6.23,-1.57 6.48,-10.16" fill="#231f20" id="svg_3" stroke="#231f20" stroke-width="4.11"/>
  <path d="m57.62,34.24c-5.96,1.05 -6.37,-0.67 -6.37,-0.67c6.29,-7.91 8.92,-17.96 6.65,-20.42c-6.19,-6.71 -16.91,-3.53 -17.1,-3.45l-0.06,0.01c-1.18,-0.21 -2.49,-0.33 -3.97,-0.35c-2.7,-0.04 -4.75,0.6 -6.3,1.6c0,0 -19.13,-6.68 -18.24,8.4c0.19,3.2 5.43,24.27 11.67,17.91c2.28,-2.33 4.49,-4.3 4.49,-4.3a6.6,6.6 0 0 0 3.78,0.82l0.11,-0.08c-0.04,0.29 -0.02,0.57 0.04,0.91c-1.61,1.52 -1.14,1.79 -4.35,2.35c-3.26,0.57 -1.34,1.58 -0.1,1.85c1.52,0.32 5.02,0.77 7.38,-2.03l-0.09,0.32c0.63,0.42 1.07,2.78 1,4.92s-0.13,3.6 0.37,4.74s0.99,3.72 5.22,2.96c3.53,-0.65 5.36,-2.31 5.62,-5.08c0.18,-1.97 0.59,-1.68 0.61,-3.44l0.33,-0.84c0.38,-2.67 0.06,-3.53 2.24,-3.13l0.53,0.04c1.6,0.06 3.7,-0.22 4.93,-0.71c2.65,-1.04 4.22,-2.78 1.6,-2.32l0.01,-0.01z" fill="#417ba2" id="svg_4"/>
  <g class="C B" fill="none" id="svg_5">
   <g class="D" id="svg_6">
    <path class="E" d="m35.52,35.78c-0.17,4.97 0.04,9.98 0.61,11.2s1.81,3.58 6.04,2.81c3.53,-0.64 4.81,-1.88 5.37,-4.62c0.4,-2.02 1.2,-7.62 1.3,-8.77m-18.39,-25.56s-19.15,-6.63 -18.25,8.46c0.2,3.21 5.42,24.27 11.67,17.9c2.28,-2.33 4.34,-4.15 4.34,-4.15m12.59,-23.42c-0.66,0.18 10.65,-3.5 17.07,3.46c2.27,2.46 -0.36,12.51 -6.65,20.42" id="svg_7"/>
    <path d="m51.21,33.51s0.4,1.71 6.37,0.67c2.61,-0.46 1.04,1.28 -1.61,2.33c-2.17,0.85 -7.05,1.07 -7.13,-0.11c-0.2,-3.05 2.57,-2.12 2.37,-2.89c-0.18,-0.69 -1.42,-1.36 -2.24,-3.04c-0.72,-1.47 -9.81,-12.75 2.52,-11.07c0.45,-0.08 -3.22,-9.95 -14.76,-10.11s-11.16,12.03 -11.16,12.03" id="svg_8" stroke-linejoin="bevel"/>
   </g>
   <g class="E" id="svg_9">
    <path d="m32.29,34.56c-1.61,1.52 -1.14,1.79 -4.35,2.35c-3.26,0.57 -1.35,1.58 -0.1,1.84c1.51,0.32 5.01,0.78 7.38,-2.03c0.72,-0.85 0,-2.22 -0.99,-2.57c-0.48,-0.16 -1.12,-0.37 -1.94,0.4l0,0.01z" id="svg_10"/>
    <path class="D" d="m32.18,34.53c-0.16,-0.9 0.35,-1.96 0.9,-3.21c0.82,-1.87 2.71,-3.74 1.2,-9.67c-1.13,-4.43 -8.7,-0.92 -8.7,-0.32s0.34,3.04 -0.13,5.88c-0.61,3.7 2.78,6.84 6.69,6.52" id="svg_11"/>
   </g>
  </g>
  <g class="C" fill="#fff" id="svg_12">
   <path d="m30.38,21.23c-0.03,0.21 0.45,0.75 1.07,0.83s1.15,-0.36 1.18,-0.56s-0.44,-0.43 -1.06,-0.5s-1.16,0.03 -1.19,0.23z" id="svg_13" stroke-width="0.46"/>
   <path d="m49.27,20.82c0.04,0.2 -0.44,0.75 -1.06,0.82s-1.15,-0.35 -1.19,-0.56s0.45,-0.43 1.07,-0.5s1.15,0.03 1.18,0.23l0,0.01z" id="svg_14" stroke-width="0.23"/>
  </g>
  <path class="B C D E" d="m51.49,19.4c0.1,1.6 -0.4,2.7 -0.47,4.41c-0.09,2.49 1.4,5.33 -0.85,8.18" fill="none" id="svg_15"/>
 </g>
</svg>