<?xml version="1.0"?>
<svg width="172" height="60" xmlns="http://www.w3.org/2000/svg" xmlns:svg="http://www.w3.org/2000/svg">
 <defs>
  <linearGradient id="A" x1="0.5" x2="0.23" y1="0.82" y2="0.45">
   <stop offset="0" stop-color="#ffd43b"/>
   <stop offset="1" stop-color="#ffe873"/>
  </linearGradient>
  <linearGradient id="B" x1="0" x2="0.75" y1="0" y2="0.64">
   <stop offset="0" stop-color="#5a9fd4"/>
   <stop offset="1" stop-color="#306998"/>
  </linearGradient>
 </defs>
 <g class="layer">
  <title>Layer 1</title>
  <path d="m71.99,30.31c0,-5.04 -1.44,-7.63 -4.32,-7.77a8.1,8.1 0 0 0 -3.34,0.55c-0.87,0.3 -1.45,0.62 -1.76,0.93l0,12.04c1.84,1.15 3.47,1.7 4.89,1.6c3.02,-0.2 4.53,-2.64 4.53,-7.35zm3.54,0.2c0,2.57 -0.6,4.69 -1.8,6.38c-1.34,1.92 -3.21,2.9 -5.6,2.96c-1.8,0.05 -3.65,-0.51 -5.55,-1.69l0,10.94l-3.09,-1.1l0,-24.28c0.51,-0.62 1.16,-1.16 1.95,-1.61c1.83,-1.07 4.06,-1.62 6.69,-1.64l0.04,0.04c2.4,-0.03 4.25,0.95 5.55,2.95c1.21,1.84 1.82,4.18 1.82,7.06l-0.01,-0.01zm18.86,7.19c0,3.44 -0.35,5.82 -1.04,7.14s-2.01,2.38 -3.95,3.16c-1.58,0.62 -3.28,0.96 -5.1,1.02l-0.5,-1.94c1.86,-0.26 3.17,-0.51 3.93,-0.76c1.49,-0.51 2.52,-1.29 3.08,-2.33c0.46,-0.84 0.68,-2.46 0.68,-4.85l0,-0.81a15.85,15.85 0 0 1 -6.63,1.44c-1.52,0 -2.86,-0.48 -4.02,-1.44c-1.29,-1.04 -1.94,-2.36 -1.94,-3.97l0,-12.83l3.08,-1.06l0,12.93c0,1.38 0.45,2.44 1.34,3.2s2.04,1.1 3.46,1.07s2.93,-0.57 4.54,-1.64l0,-15.09l3.08,0l0,16.76l-0.01,0zm12.04,1.99l-1.02,0.04c-1.74,0 -3.1,-0.42 -4.08,-1.25s-1.45,-1.98 -1.45,-3.45l0,-12.15l-2.11,0l0,-1.94l2.11,0l0,-5.15l3.08,-1.1l0,6.25l3.46,0l0,1.94l-3.46,0l0,12.07c0,1.15 0.3,1.97 0.93,2.45c0.53,0.4 1.38,0.62 2.53,0.68l0,1.61l0.01,0zm18.67,-0.26l-3.08,0l0,-11.9c0,-1.22 -0.28,-2.26 -0.85,-3.13c-0.65,-0.98 -1.55,-1.48 -2.72,-1.48c-1.41,0 -3.18,0.75 -5.3,2.24l0,14.27l-3.09,0l0,-28.46l3.09,-0.97l0,12.96c1.97,-1.43 4.12,-2.15 6.46,-2.15c1.64,0 2.96,0.55 3.97,1.65s1.53,2.46 1.53,4.09l0,12.88l-0.01,0zm16.4,-9.6c0,-1.94 -0.37,-3.54 -1.1,-4.8c-0.87,-1.55 -2.22,-2.36 -4.05,-2.44c-3.38,0.19 -5.07,2.62 -5.07,7.26c0,2.13 0.35,3.91 1.06,5.33c0.9,1.82 2.26,2.72 4.07,2.69c3.39,-0.03 5.09,-2.71 5.09,-8.04zm3.38,0.02c0,2.75 -0.71,5.05 -2.12,6.88c-1.55,2.05 -3.7,3.08 -6.42,3.08c-2.7,0 -4.81,-1.03 -6.33,-3.08c-1.38,-1.83 -2.07,-4.13 -2.07,-6.88c0,-2.59 0.74,-4.77 2.24,-6.55c1.57,-1.88 3.64,-2.83 6.2,-2.83s4.64,0.95 6.25,2.83c1.49,1.78 2.24,3.96 2.24,6.55l0.01,0zm17.68,9.58l-3.08,0l0,-12.58c0,-1.38 -0.42,-2.46 -1.25,-3.23s-1.94,-1.15 -3.32,-1.12c-1.46,0.03 -2.86,0.51 -4.18,1.43l0,15.5l-3.08,0l0,-15.88c1.77,-1.29 3.4,-2.13 4.9,-2.53c1.41,-0.37 2.65,-0.55 3.72,-0.55c0.73,0 1.42,0.07 2.07,0.21c1.21,0.28 2.2,0.8 2.95,1.57c0.85,0.84 1.27,1.85 1.27,3.04l0,14.14z" fill="#ffffff" id="svg_1"/>
  <path d="m29.02,11.09c-1.59,0 -3.11,0.14 -4.44,0.38c-3.93,0.69 -4.64,2.14 -4.64,4.82l0,3.54l9.28,0l0,1.18l-12.77,0c-2.7,0 -5.06,1.62 -5.8,4.71c-0.85,3.53 -0.9,5.74 0,9.43c0.66,2.75 2.24,4.71 4.94,4.71l3.19,0l0,-4.24c0,-3.07 2.65,-5.77 5.8,-5.77l9.27,0c2.58,0 4.64,-2.12 4.64,-4.72l0,-8.83c0,-2.52 -2.12,-4.41 -4.64,-4.83c-1.59,-0.26 -3.25,-0.38 -4.83,-0.38zm-5.02,2.84c0.96,0 1.74,0.8 1.74,1.78s-0.79,1.76 -1.74,1.76s-1.75,-0.79 -1.75,-1.76s0.78,-1.78 1.75,-1.78z" fill="url(#B)" id="svg_2"/>
  <path d="m39.65,21.01l0,4.12c0,3.2 -2.7,5.89 -5.8,5.89l-9.27,0c-2.54,0 -4.64,2.17 -4.64,4.71l0,8.85c0,2.51 2.19,3.99 4.64,4.71c2.94,0.87 5.76,1.02 9.27,0c2.34,-0.67 4.64,-2.04 4.64,-4.71l0,-3.54l-9.27,0l0,-1.18l13.91,0c2.7,0 3.71,-1.88 4.65,-4.71c0.97,-2.91 0.92,-5.7 0,-9.43c-0.67,-2.69 -1.94,-4.71 -4.65,-4.71l-3.48,0zm-5.21,22.38c0.96,0 1.74,0.79 1.74,1.77s-0.78,1.77 -1.74,1.77s-1.74,-0.79 -1.74,-1.77s0.78,-1.77 1.74,-1.77z" fill="url(#A)" id="svg_3"/>
 </g>
</svg>